<svg xmlns="http://www.w3.org/2000/svg" xmlns:xlink="http://www.w3.org/1999/xlink" width="1024" zoomAndPan="magnify" viewBox="0 0 768 767.999994" height="1024" preserveAspectRatio="xMidYMid meet" version="1.0"><defs><clipPath id="5630cbe566"><path d="M 122 5 L 646.132812 5 L 646.132812 763 L 122 763 Z M 122 5 " clip-rule="nonzero"/></clipPath></defs><path fill="#003225" d="M 395.273438 425.953125 C 395.273438 426.695312 395.203125 427.425781 395.058594 428.152344 C 394.914062 428.878906 394.699219 429.585938 394.417969 430.269531 C 394.132812 430.953125 393.785156 431.601562 393.375 432.21875 C 392.960938 432.835938 392.496094 433.40625 391.972656 433.929688 C 391.449219 434.453125 390.878906 434.917969 390.261719 435.332031 C 389.644531 435.742188 388.996094 436.089844 388.3125 436.371094 C 387.628906 436.65625 386.921875 436.871094 386.195312 437.015625 C 385.46875 437.160156 384.738281 437.230469 383.996094 437.230469 C 383.253906 437.230469 382.523438 437.160156 381.796875 437.015625 C 381.070312 436.871094 380.363281 436.65625 379.679688 436.371094 C 378.996094 436.089844 378.347656 435.742188 377.730469 435.332031 C 377.113281 434.917969 376.542969 434.453125 376.019531 433.929688 C 375.496094 433.40625 375.03125 432.835938 374.617188 432.21875 C 374.207031 431.601562 373.859375 430.953125 373.574219 430.269531 C 373.292969 429.585938 373.078125 428.878906 372.933594 428.152344 C 372.789062 427.425781 372.71875 426.695312 372.71875 425.953125 C 372.71875 425.210938 372.789062 424.480469 372.933594 423.753906 C 373.078125 423.027344 373.292969 422.320312 373.574219 421.636719 C 373.859375 420.953125 374.207031 420.304688 374.617188 419.6875 C 375.03125 419.070312 375.496094 418.5 376.019531 417.976562 C 376.542969 417.453125 377.113281 416.988281 377.730469 416.574219 C 378.347656 416.164062 378.996094 415.816406 379.679688 415.53125 C 380.363281 415.25 381.070312 415.035156 381.796875 414.890625 C 382.523438 414.746094 383.253906 414.675781 383.996094 414.675781 C 384.738281 414.675781 385.46875 414.746094 386.195312 414.890625 C 386.921875 415.035156 387.628906 415.25 388.3125 415.53125 C 388.996094 415.816406 389.644531 416.164062 390.261719 416.574219 C 390.878906 416.988281 391.449219 417.453125 391.972656 417.976562 C 392.496094 418.5 392.960938 419.070312 393.375 419.6875 C 393.785156 420.304688 394.132812 420.953125 394.417969 421.636719 C 394.699219 422.320312 394.914062 423.027344 395.058594 423.753906 C 395.203125 424.480469 395.273438 425.210938 395.273438 425.953125 Z M 395.273438 425.953125 " fill-opacity="1" fill-rule="nonzero"/><path fill="#003225" d="M 395.273438 470.527344 C 395.273438 471.265625 395.203125 472 395.058594 472.726562 C 394.914062 473.453125 394.699219 474.15625 394.417969 474.84375 C 394.132812 475.527344 393.785156 476.175781 393.375 476.792969 C 392.960938 477.40625 392.496094 477.976562 391.972656 478.5 C 391.449219 479.023438 390.878906 479.492188 390.261719 479.902344 C 389.644531 480.316406 388.996094 480.664062 388.3125 480.945312 C 387.628906 481.230469 386.921875 481.441406 386.195312 481.585938 C 385.46875 481.730469 384.738281 481.804688 383.996094 481.804688 C 383.253906 481.804688 382.523438 481.730469 381.796875 481.585938 C 381.070312 481.441406 380.363281 481.230469 379.679688 480.945312 C 378.996094 480.664062 378.347656 480.316406 377.730469 479.902344 C 377.113281 479.492188 376.542969 479.023438 376.019531 478.5 C 375.496094 477.976562 375.03125 477.40625 374.617188 476.792969 C 374.207031 476.175781 373.859375 475.527344 373.574219 474.84375 C 373.292969 474.15625 373.078125 473.453125 372.933594 472.726562 C 372.789062 472 372.71875 471.265625 372.71875 470.527344 C 372.71875 469.785156 372.789062 469.050781 372.933594 468.324219 C 373.078125 467.597656 373.292969 466.894531 373.574219 466.210938 C 373.859375 465.527344 374.207031 464.875 374.617188 464.261719 C 375.03125 463.644531 375.496094 463.074219 376.019531 462.550781 C 376.542969 462.027344 377.113281 461.558594 377.730469 461.148438 C 378.347656 460.738281 378.996094 460.390625 379.679688 460.105469 C 380.363281 459.824219 381.070312 459.609375 381.796875 459.464844 C 382.523438 459.320312 383.253906 459.246094 383.996094 459.246094 C 384.738281 459.246094 385.46875 459.320312 386.195312 459.464844 C 386.921875 459.609375 387.628906 459.824219 388.3125 460.105469 C 388.996094 460.390625 389.644531 460.738281 390.261719 461.148438 C 390.878906 461.558594 391.449219 462.027344 391.972656 462.550781 C 392.496094 463.074219 392.960938 463.644531 393.375 464.261719 C 393.785156 464.875 394.132812 465.527344 394.417969 466.210938 C 394.699219 466.894531 394.914062 467.597656 395.058594 468.324219 C 395.203125 469.050781 395.273438 469.785156 395.273438 470.527344 Z M 395.273438 470.527344 " fill-opacity="1" fill-rule="nonzero"/><g clip-path="url(#5630cbe566)"><path fill="#003225" d="M 463.125 357.46875 L 511.851562 312.988281 L 535.21875 291.785156 C 577.445312 253.707031 598.378906 202.097656 599.191406 133.792969 L 599.191406 76.410156 L 634.558594 76.410156 C 635.3125 76.425781 636.058594 76.371094 636.800781 76.238281 C 637.539062 76.109375 638.257812 75.90625 638.960938 75.628906 C 639.660156 75.355469 640.324219 75.011719 640.957031 74.601562 C 641.589844 74.195312 642.171875 73.726562 642.710938 73.203125 C 643.25 72.675781 643.730469 72.101562 644.152344 71.480469 C 644.578125 70.859375 644.933594 70.203125 645.226562 69.507812 C 645.519531 68.816406 645.738281 68.101562 645.886719 67.363281 C 646.035156 66.625 646.109375 65.882812 646.109375 65.128906 L 646.109375 16.316406 C 646.109375 15.574219 646.039062 14.84375 645.894531 14.117188 C 645.75 13.390625 645.535156 12.683594 645.25 12 C 644.96875 11.316406 644.621094 10.667969 644.207031 10.050781 C 643.796875 9.433594 643.328125 8.863281 642.804688 8.339844 C 642.28125 7.816406 641.710938 7.351562 641.097656 6.9375 C 640.480469 6.527344 639.832031 6.179688 639.148438 5.898438 C 638.460938 5.613281 637.757812 5.398438 637.03125 5.253906 C 636.304688 5.109375 635.570312 5.039062 634.832031 5.039062 L 133.34375 5.039062 C 132.601562 5.039062 131.867188 5.109375 131.140625 5.253906 C 130.414062 5.398438 129.710938 5.613281 129.027344 5.898438 C 128.339844 6.179688 127.691406 6.527344 127.074219 6.9375 C 126.460938 7.351562 125.890625 7.816406 125.367188 8.339844 C 124.84375 8.863281 124.375 9.433594 123.964844 10.050781 C 123.550781 10.667969 123.207031 11.316406 122.921875 12 C 122.636719 12.683594 122.425781 13.390625 122.28125 14.117188 C 122.136719 14.84375 122.0625 15.574219 122.0625 16.316406 L 122.0625 65.128906 C 122.0625 65.871094 122.136719 66.605469 122.28125 67.332031 C 122.425781 68.058594 122.636719 68.761719 122.921875 69.445312 C 123.207031 70.128906 123.550781 70.78125 123.964844 71.394531 C 124.375 72.011719 124.84375 72.582031 125.367188 73.105469 C 125.890625 73.628906 126.460938 74.097656 127.074219 74.507812 C 127.691406 74.917969 128.339844 75.265625 129.027344 75.550781 C 129.710938 75.832031 130.414062 76.046875 131.140625 76.191406 C 131.867188 76.335938 132.601562 76.410156 133.34375 76.410156 L 168.710938 76.410156 L 168.710938 133.613281 C 169.523438 201.734375 190.546875 253.347656 232.773438 291.332031 L 259.84375 316.054688 L 304.957031 357.199219 C 307.300781 358.964844 309.433594 360.957031 311.355469 363.175781 C 313.273438 365.394531 314.9375 367.792969 316.347656 370.367188 C 317.753906 372.941406 318.875 375.636719 319.707031 378.453125 C 320.542969 381.265625 321.066406 384.136719 321.289062 387.066406 C 321 390.085938 320.398438 393.039062 319.480469 395.933594 C 318.566406 398.824219 317.359375 401.589844 315.859375 404.222656 C 314.355469 406.859375 312.597656 409.308594 310.578125 411.574219 C 308.558594 413.835938 306.324219 415.863281 303.875 417.652344 L 232.59375 482.796875 C 190.367188 520.78125 169.433594 572.394531 168.53125 640.695312 L 168.53125 690.503906 L 133.34375 690.503906 C 132.589844 690.503906 131.84375 690.578125 131.109375 690.726562 C 130.371094 690.875 129.65625 691.09375 128.960938 691.386719 C 128.269531 691.679688 127.613281 692.035156 126.988281 692.457031 C 126.367188 692.882812 125.796875 693.363281 125.269531 693.902344 C 124.742188 694.4375 124.277344 695.023438 123.867188 695.65625 C 123.460938 696.285156 123.117188 696.953125 122.84375 697.652344 C 122.566406 698.351562 122.363281 699.074219 122.234375 699.8125 C 122.101562 700.554688 122.046875 701.300781 122.0625 702.050781 L 122.0625 750.867188 C 122.0625 751.605469 122.136719 752.339844 122.28125 753.066406 C 122.425781 753.792969 122.636719 754.496094 122.921875 755.179688 C 123.207031 755.867188 123.550781 756.515625 123.964844 757.132812 C 124.375 757.746094 124.84375 758.316406 125.367188 758.839844 C 125.890625 759.363281 126.460938 759.832031 127.074219 760.242188 C 127.691406 760.65625 128.339844 761 129.027344 761.285156 C 129.710938 761.570312 130.414062 761.78125 131.140625 761.925781 C 131.867188 762.070312 132.601562 762.144531 133.34375 762.144531 L 634.558594 762.144531 C 635.324219 762.164062 636.082031 762.105469 636.832031 761.96875 C 637.585938 761.832031 638.3125 761.625 639.023438 761.339844 C 639.734375 761.054688 640.40625 760.703125 641.042969 760.285156 C 641.679688 759.863281 642.269531 759.382812 642.808594 758.84375 C 643.347656 758.304688 643.828125 757.714844 644.25 757.078125 C 644.671875 756.441406 645.023438 755.765625 645.304688 755.058594 C 645.589844 754.347656 645.800781 753.617188 645.933594 752.867188 C 646.070312 752.117188 646.128906 751.359375 646.109375 750.59375 L 646.109375 702.050781 C 646.109375 701.3125 646.039062 700.578125 645.894531 699.851562 C 645.75 699.125 645.535156 698.417969 645.25 697.734375 C 644.96875 697.050781 644.621094 696.402344 644.207031 695.785156 C 643.796875 695.167969 643.328125 694.601562 642.804688 694.078125 C 642.28125 693.554688 641.710938 693.085938 641.097656 692.675781 C 640.480469 692.261719 639.832031 691.914062 639.148438 691.632812 C 638.460938 691.347656 637.757812 691.132812 637.03125 690.988281 C 636.304688 690.84375 635.570312 690.773438 634.832031 690.773438 L 599.191406 690.773438 L 599.191406 640.515625 C 598.378906 572.394531 577.445312 520.78125 535.21875 482.796875 L 463.847656 417.5625 C 461.421875 415.789062 459.207031 413.78125 457.207031 411.535156 C 455.207031 409.292969 453.464844 406.867188 451.980469 404.253906 C 450.492188 401.640625 449.296875 398.898438 448.394531 396.035156 C 447.492188 393.167969 446.898438 390.238281 446.613281 387.246094 C 446.863281 384.320312 447.414062 381.457031 448.269531 378.648438 C 449.121094 375.84375 450.261719 373.15625 451.683594 370.589844 C 453.105469 368.023438 454.78125 365.636719 456.710938 363.425781 C 458.640625 361.214844 460.777344 359.230469 463.125 357.46875 Z M 424.058594 387.335938 C 424.179688 389.613281 424.425781 391.882812 424.789062 394.132812 C 425.15625 396.386719 425.640625 398.617188 426.246094 400.816406 C 426.851562 403.019531 427.570312 405.179688 428.410156 407.304688 C 429.246094 409.429688 430.195312 411.5 431.253906 413.523438 C 432.3125 415.546875 433.476562 417.503906 434.746094 419.402344 C 436.015625 421.296875 437.386719 423.121094 438.851562 424.871094 C 440.316406 426.621094 441.871094 428.289062 443.515625 429.871094 C 445.160156 431.457031 446.886719 432.945312 448.691406 434.34375 L 519.789062 499.488281 C 557.6875 533.59375 575.640625 578.527344 576.363281 640.695312 L 576.363281 690.503906 L 191.269531 690.503906 L 191.269531 640.785156 C 192.082031 578.527344 210.035156 533.59375 247.933594 499.488281 L 319.210938 434.433594 C 321.03125 433.023438 322.765625 431.523438 324.421875 429.925781 C 326.078125 428.332031 327.644531 426.652344 329.121094 424.886719 C 330.597656 423.121094 331.976562 421.285156 333.253906 419.375 C 334.535156 417.460938 335.707031 415.488281 336.773438 413.449219 C 337.839844 411.414062 338.796875 409.324219 339.640625 407.183594 C 340.484375 405.042969 341.207031 402.863281 341.820312 400.648438 C 342.429688 398.429688 342.917969 396.183594 343.285156 393.914062 C 343.65625 391.644531 343.902344 389.363281 344.023438 387.066406 C 343.910156 384.839844 343.679688 382.625 343.328125 380.421875 C 342.972656 378.222656 342.503906 376.046875 341.917969 373.894531 C 341.332031 371.742188 340.628906 369.628906 339.816406 367.554688 C 339.003906 365.480469 338.078125 363.453125 337.046875 361.476562 C 336.011719 359.5 334.878906 357.585938 333.636719 355.734375 C 332.398438 353.878906 331.066406 352.097656 329.632812 350.386719 C 328.203125 348.679688 326.683594 347.050781 325.078125 345.503906 C 323.472656 343.957031 321.789062 342.503906 320.023438 341.136719 L 274.910156 299.996094 L 247.839844 275.273438 C 210.035156 241.164062 192.082031 196.230469 191.269531 134.066406 L 191.269531 76.410156 L 576.632812 76.410156 L 576.632812 133.613281 C 575.910156 195.871094 557.957031 240.804688 520.058594 274.910156 C 512.210938 281.949219 504.449219 289.078125 496.601562 296.296875 L 447.605469 341.136719 C 445.871094 342.535156 444.210938 344.015625 442.628906 345.585938 C 441.046875 347.15625 439.554688 348.808594 438.148438 350.535156 C 436.742188 352.265625 435.429688 354.0625 434.214844 355.929688 C 433 357.796875 431.886719 359.722656 430.871094 361.707031 C 429.859375 363.695312 428.957031 365.726562 428.160156 367.808594 C 427.363281 369.890625 426.679688 372.007812 426.105469 374.160156 C 425.53125 376.3125 425.074219 378.492188 424.734375 380.695312 C 424.390625 382.894531 424.164062 385.109375 424.058594 387.335938 Z M 424.058594 387.335938 " fill-opacity="1" fill-rule="nonzero"/></g><path fill="#003225" d="M 532.511719 223.839844 C 532.8125 223.320312 533.070312 222.777344 533.285156 222.214844 C 533.5 221.648438 533.664062 221.074219 533.785156 220.484375 C 533.90625 219.890625 533.980469 219.296875 534.003906 218.695312 C 534.027344 218.09375 534.003906 217.492188 533.929688 216.894531 C 533.859375 216.296875 533.738281 215.707031 533.570312 215.128906 C 533.402344 214.550781 533.1875 213.988281 532.929688 213.441406 C 532.671875 212.898438 532.371094 212.378906 532.027344 211.882812 C 531.6875 211.386719 531.304688 210.921875 530.886719 210.488281 C 530.476562 210.042969 530.035156 209.636719 529.558594 209.265625 C 529.082031 208.894531 528.578125 208.5625 528.046875 208.273438 C 527.515625 207.988281 526.964844 207.742188 526.390625 207.546875 C 525.820312 207.347656 525.238281 207.199219 524.640625 207.097656 C 524.042969 206.996094 523.445312 206.945312 522.839844 206.941406 C 522.234375 206.941406 521.636719 206.988281 521.039062 207.082031 C 520.441406 207.179688 519.855469 207.324219 519.285156 207.515625 C 518.710938 207.710938 518.15625 207.949219 517.625 208.230469 C 473.140625 230.878906 456.449219 239.359375 387.425781 217.253906 C 381.957031 215.472656 376.417969 213.957031 370.804688 212.707031 C 365.195312 211.453125 359.535156 210.472656 353.828125 209.761719 C 348.125 209.050781 342.398438 208.613281 336.648438 208.449219 C 330.902344 208.289062 325.160156 208.398438 319.421875 208.785156 C 313.683594 209.167969 307.980469 209.828125 302.304688 210.757812 C 296.632812 211.691406 291.015625 212.890625 285.457031 214.355469 C 279.894531 215.824219 274.417969 217.554688 269.027344 219.546875 C 263.632812 221.539062 258.34375 223.78125 253.164062 226.277344 C 252.785156 226.457031 252.414062 226.660156 252.054688 226.882812 C 251.695312 227.101562 251.351562 227.34375 251.019531 227.605469 C 250.6875 227.863281 250.371094 228.144531 250.074219 228.4375 C 249.773438 228.734375 249.488281 229.046875 249.222656 229.375 C 248.957031 229.703125 248.710938 230.042969 248.484375 230.398438 C 248.257812 230.753906 248.050781 231.121094 247.867188 231.5 C 247.679688 231.878906 247.515625 232.265625 247.375 232.664062 C 247.230469 233.058594 247.109375 233.464844 247.015625 233.875 C 246.917969 234.285156 246.84375 234.699219 246.792969 235.117188 C 246.742188 235.535156 246.714844 235.957031 246.710938 236.378906 C 246.707031 236.800781 246.726562 237.21875 246.769531 237.640625 C 246.8125 238.058594 246.882812 238.472656 246.972656 238.886719 C 247.0625 239.296875 247.175781 239.703125 247.308594 240.101562 C 247.445312 240.5 247.601562 240.890625 247.78125 241.273438 C 247.960938 241.65625 248.164062 242.023438 248.382812 242.382812 C 248.605469 242.742188 248.84375 243.089844 249.105469 243.421875 C 253.4375 248.5625 351.605469 342.671875 352.507812 342.671875 C 354.3125 344.75 355.949219 346.957031 357.40625 349.292969 C 358.863281 351.625 360.128906 354.0625 361.203125 356.597656 C 362.273438 359.132812 363.140625 361.738281 363.800781 364.414062 C 364.460938 367.085938 364.90625 369.792969 365.136719 372.539062 C 365.285156 373.675781 365.535156 374.789062 365.894531 375.878906 C 366.253906 376.972656 366.710938 378.019531 367.269531 379.019531 C 367.828125 380.023438 368.472656 380.964844 369.210938 381.84375 C 369.949219 382.722656 370.761719 383.523438 371.652344 384.25 C 372.542969 384.972656 373.496094 385.605469 374.507812 386.148438 C 375.515625 386.691406 376.570312 387.132812 377.667969 387.476562 C 378.761719 387.816406 379.878906 388.050781 381.019531 388.179688 C 382.160156 388.308594 383.304688 388.328125 384.449219 388.238281 C 384.988281 388.289062 385.53125 388.316406 386.074219 388.316406 C 386.617188 388.3125 387.160156 388.285156 387.703125 388.230469 C 388.242188 388.175781 388.78125 388.097656 389.3125 387.988281 C 389.847656 387.882812 390.371094 387.746094 390.890625 387.589844 C 391.410156 387.429688 391.921875 387.242188 392.425781 387.035156 C 392.925781 386.824219 393.414062 386.589844 393.894531 386.332031 C 394.371094 386.070312 394.835938 385.789062 395.289062 385.488281 C 395.738281 385.183594 396.171875 384.855469 396.589844 384.507812 C 397.007812 384.160156 397.410156 383.792969 397.792969 383.40625 C 398.175781 383.019531 398.535156 382.617188 398.878906 382.195312 C 399.21875 381.769531 399.542969 381.332031 399.839844 380.878906 C 400.140625 380.425781 400.414062 379.957031 400.667969 379.476562 C 400.917969 378.992188 401.148438 378.5 401.351562 377.996094 C 401.554688 377.492188 401.734375 376.980469 401.886719 376.457031 C 402.042969 375.9375 402.167969 375.40625 402.269531 374.875 C 402.371094 374.339844 402.445312 373.800781 402.492188 373.261719 C 402.921875 369.6875 403.679688 366.1875 404.761719 362.757812 C 405.84375 359.324219 407.234375 356.023438 408.933594 352.851562 C 410.632812 349.679688 412.605469 346.691406 414.863281 343.890625 C 417.117188 341.085938 419.609375 338.515625 422.34375 336.175781 C 423.878906 334.824219 430.191406 328.777344 438.765625 320.566406 C 459.878906 300.355469 495.066406 266.429688 504.722656 257.949219 C 515.824219 248.078125 525.089844 236.710938 532.511719 223.839844 Z M 532.511719 223.839844 " fill-opacity="1" fill-rule="nonzero"/><path fill="#003225" d="M 228.621094 654.410156 C 228.605469 655.171875 228.664062 655.925781 228.796875 656.671875 C 228.929688 657.421875 229.136719 658.148438 229.417969 658.851562 C 229.699219 659.558594 230.046875 660.230469 230.464844 660.863281 C 230.882812 661.5 231.355469 662.085938 231.890625 662.628906 C 232.425781 663.167969 233.011719 663.648438 233.644531 664.066406 C 234.273438 664.488281 234.941406 664.84375 235.648438 665.128906 C 236.351562 665.417969 237.074219 665.628906 237.824219 665.769531 C 238.570312 665.910156 239.324219 665.972656 240.082031 665.960938 L 528 665.960938 C 528.742188 665.960938 529.472656 665.886719 530.199219 665.742188 C 530.925781 665.597656 531.632812 665.386719 532.316406 665.101562 C 533 664.820312 533.652344 664.472656 534.265625 664.058594 C 534.882812 663.648438 535.453125 663.179688 535.976562 662.65625 C 536.5 662.132812 536.96875 661.5625 537.378906 660.949219 C 537.789062 660.332031 538.136719 659.683594 538.421875 659 C 538.703125 658.3125 538.917969 657.609375 539.0625 656.882812 C 539.207031 656.15625 539.277344 655.421875 539.277344 654.683594 C 539.21875 652.179688 539.097656 649.679688 538.917969 647.179688 C 538.734375 644.683594 538.496094 642.191406 538.191406 639.707031 C 537.890625 637.222656 537.53125 634.746094 537.109375 632.277344 C 536.6875 629.808594 536.207031 627.351562 535.664062 624.90625 C 535.125 622.460938 534.527344 620.03125 533.871094 617.617188 C 533.210938 615.199219 532.496094 612.800781 531.722656 610.421875 C 530.949219 608.039062 530.117188 605.679688 529.230469 603.335938 C 528.34375 600.996094 527.398438 598.679688 526.398438 596.382812 C 525.398438 594.085938 524.34375 591.816406 523.234375 589.574219 C 522.125 587.328125 520.960938 585.113281 519.746094 582.921875 C 518.527344 580.734375 517.261719 578.578125 515.9375 576.449219 C 514.617188 574.324219 513.246094 572.230469 511.824219 570.167969 C 510.402344 568.109375 508.929688 566.082031 507.410156 564.09375 C 505.890625 562.105469 504.324219 560.152344 502.710938 558.238281 C 501.09375 556.324219 499.433594 554.453125 497.730469 552.617188 C 496.023438 550.785156 494.277344 548.992188 492.484375 547.246094 C 490.691406 545.496094 488.859375 543.789062 486.988281 542.128906 C 485.113281 540.46875 483.199219 538.855469 481.246094 537.289062 C 479.296875 535.71875 477.304688 534.199219 475.28125 532.730469 C 473.253906 531.257812 471.195312 529.835938 469.101562 528.460938 C 467.007812 527.089844 464.878906 525.769531 462.722656 524.5 C 460.5625 523.230469 458.375 522.015625 456.160156 520.851562 C 453.941406 519.6875 451.699219 518.578125 449.429688 517.523438 C 447.15625 516.46875 444.863281 515.46875 442.542969 514.523438 C 440.226562 513.578125 437.882812 512.691406 435.523438 511.859375 C 433.160156 511.03125 430.78125 510.257812 428.382812 509.539062 C 425.980469 508.824219 423.566406 508.167969 421.136719 507.566406 C 418.703125 506.96875 416.261719 506.429688 413.804688 505.949219 C 411.347656 505.464844 408.878906 505.042969 406.402344 504.683594 C 403.925781 504.320312 401.441406 504.019531 398.949219 503.777344 C 396.457031 503.535156 393.957031 503.355469 391.457031 503.234375 C 388.957031 503.113281 386.453125 503.050781 383.949219 503.050781 C 381.449219 503.050781 378.945312 503.113281 376.445312 503.234375 C 373.941406 503.355469 371.445312 503.535156 368.953125 503.777344 C 366.460938 504.019531 363.976562 504.320312 361.5 504.683594 C 359.023438 505.042969 356.554688 505.464844 354.097656 505.949219 C 351.640625 506.429688 349.195312 506.96875 346.765625 507.566406 C 344.335938 508.167969 341.921875 508.824219 339.519531 509.539062 C 337.121094 510.257812 334.742188 511.03125 332.378906 511.859375 C 330.015625 512.691406 327.675781 513.578125 325.359375 514.523438 C 323.039062 515.46875 320.746094 516.46875 318.472656 517.523438 C 316.203125 518.578125 313.960938 519.6875 311.742188 520.851562 C 309.527344 522.015625 307.339844 523.230469 305.179688 524.5 C 303.023438 525.769531 300.894531 527.089844 298.800781 528.460938 C 296.707031 529.835938 294.648438 531.257812 292.621094 532.730469 C 290.597656 534.199219 288.605469 535.71875 286.65625 537.289062 C 284.703125 538.855469 282.789062 540.46875 280.914062 542.128906 C 279.042969 543.789062 277.210938 545.496094 275.417969 547.246094 C 273.625 548.992188 271.878906 550.785156 270.171875 552.617188 C 268.46875 554.453125 266.808594 556.324219 265.191406 558.238281 C 263.578125 560.152344 262.011719 562.105469 260.492188 564.09375 C 258.972656 566.082031 257.5 568.109375 256.078125 570.167969 C 254.65625 572.230469 253.285156 574.324219 251.960938 576.449219 C 250.640625 578.578125 249.371094 580.734375 248.15625 582.921875 C 246.941406 585.113281 245.777344 587.328125 244.667969 589.574219 C 243.558594 591.816406 242.503906 594.085938 241.503906 596.382812 C 240.503906 598.679688 239.558594 600.996094 238.671875 603.335938 C 237.785156 605.679688 236.953125 608.039062 236.179688 610.421875 C 235.40625 612.800781 234.691406 615.199219 234.03125 617.617188 C 233.375 620.03125 232.777344 622.460938 232.234375 624.90625 C 231.695312 627.351562 231.214844 629.808594 230.792969 632.277344 C 230.371094 634.746094 230.011719 637.222656 229.710938 639.707031 C 229.40625 642.191406 229.167969 644.683594 228.984375 647.179688 C 228.804688 649.679688 228.683594 652.179688 228.621094 654.683594 Z M 228.621094 654.410156 " fill-opacity="1" fill-rule="nonzero"/></svg>