<svg xmlns="http://www.w3.org/2000/svg" xmlns:xlink="http://www.w3.org/1999/xlink" width="1024" zoomAndPan="magnify" viewBox="0 0 768 767.999994" height="1024" preserveAspectRatio="xMidYMid meet" version="1.0"><defs><clipPath id="0a0b43125b"><path d="M 544 530 L 726.796875 530 L 726.796875 739 L 544 739 Z M 544 530 " clip-rule="nonzero"/></clipPath><clipPath id="131d5345c1"><path d="M 41.296875 614 L 421 614 L 421 641 L 41.296875 641 Z M 41.296875 614 " clip-rule="nonzero"/></clipPath></defs><g clip-path="url(#0a0b43125b)"><path fill="#ffffff" d="M 726.703125 555.867188 L 713.6875 738.976562 L 544.183594 738.976562 L 556.3125 566.960938 C 557.792969 546.546875 574.949219 530.425781 595.507812 530.425781 L 702.890625 530.425781 C 709.546875 530.425781 715.757812 533.089844 720.195312 537.96875 C 724.925781 542.851562 727.144531 549.210938 726.703125 555.867188 Z M 726.703125 555.867188 " fill-opacity="1" fill-rule="nonzero"/></g><path fill="#ffffff" d="M 649.496094 343.617188 C 649.496094 381.777344 618.433594 412.839844 580.273438 412.839844 C 542.113281 412.839844 511.050781 381.777344 511.050781 343.617188 C 511.050781 305.457031 542.113281 274.398438 580.273438 274.398438 C 618.433594 274.398438 649.496094 305.457031 649.496094 343.617188 Z M 649.496094 343.617188 " fill-opacity="1" fill-rule="nonzero"/><path fill="#ffffff" d="M 579.976562 29.019531 L 369.800781 29.019531 C 350.425781 29.019531 334.746094 44.695312 334.746094 64.070312 L 334.746094 159.175781 C 334.746094 178.40625 350.425781 194.230469 369.800781 194.230469 L 427.335938 194.230469 C 430 194.230469 432.660156 195.265625 434.582031 197.191406 L 482.800781 244.078125 C 484.578125 245.851562 486.5 245.40625 487.535156 244.964844 C 488.570312 244.519531 490.199219 243.484375 490.199219 240.96875 L 490.199219 204.734375 C 490.199219 198.964844 494.929688 194.230469 500.699219 194.230469 L 579.976562 194.230469 C 599.355469 194.230469 615.03125 178.554688 615.03125 159.175781 L 615.03125 64.070312 C 614.882812 44.695312 599.207031 29.019531 579.976562 29.019531 Z M 404.410156 129.59375 C 394.796875 129.59375 386.957031 121.757812 386.957031 112.140625 C 386.957031 102.527344 394.796875 94.6875 404.410156 94.6875 C 414.023438 94.6875 421.863281 102.527344 421.863281 112.140625 C 422.011719 121.757812 414.023438 129.59375 404.410156 129.59375 Z M 474.816406 129.59375 C 465.199219 129.59375 457.363281 121.757812 457.363281 112.140625 C 457.363281 102.527344 465.199219 94.6875 474.816406 94.6875 C 484.429688 94.6875 492.269531 102.527344 492.269531 112.140625 C 492.414062 121.757812 484.429688 129.59375 474.816406 129.59375 Z M 545.21875 129.59375 C 535.605469 129.59375 527.765625 121.757812 527.765625 112.140625 C 527.765625 102.527344 535.605469 94.6875 545.21875 94.6875 C 554.832031 94.6875 562.671875 102.527344 562.671875 112.140625 C 562.820312 121.757812 554.832031 129.59375 545.21875 129.59375 Z M 545.21875 129.59375 " fill-opacity="1" fill-rule="nonzero"/><path fill="#ffffff" d="M 407.8125 112.140625 C 407.8125 114.066406 406.332031 115.542969 404.410156 115.542969 C 402.488281 115.542969 401.007812 114.066406 401.007812 112.140625 C 401.007812 110.21875 402.488281 108.742188 404.410156 108.742188 C 406.332031 108.742188 407.8125 110.21875 407.8125 112.140625 Z M 407.8125 112.140625 " fill-opacity="1" fill-rule="nonzero"/><path fill="#ffffff" d="M 478.21875 112.140625 C 478.21875 114.066406 476.738281 115.542969 474.816406 115.542969 C 472.890625 115.542969 471.414062 114.066406 471.414062 112.140625 C 471.414062 110.21875 472.890625 108.742188 474.816406 108.742188 C 476.738281 108.742188 478.21875 110.21875 478.21875 112.140625 Z M 478.21875 112.140625 " fill-opacity="1" fill-rule="nonzero"/><path fill="#ffffff" d="M 548.621094 112.140625 C 548.621094 114.066406 547.140625 115.542969 545.21875 115.542969 C 543.296875 115.542969 541.816406 114.066406 541.816406 112.140625 C 541.816406 110.21875 543.296875 108.742188 545.21875 108.742188 C 547.140625 108.742188 548.621094 110.21875 548.621094 112.140625 Z M 548.621094 112.140625 " fill-opacity="1" fill-rule="nonzero"/><g clip-path="url(#131d5345c1)"><path fill="#ffffff" d="M 41.296875 614.882812 L 420.089844 614.882812 L 420.089844 640.175781 L 41.296875 640.175781 Z M 41.296875 614.882812 " fill-opacity="1" fill-rule="nonzero"/></g><path fill="#ffffff" d="M 491.527344 601.71875 L 486.648438 665.171875 L 427.632812 673.15625 C 398.199219 677.152344 375.863281 702.445312 375.421875 732.171875 L 375.273438 738.976562 L 79.898438 738.976562 L 79.898438 661.03125 L 424.378906 661.03125 C 433.546875 661.03125 440.945312 653.632812 440.945312 644.464844 L 440.945312 610.886719 L 461.058594 610.886719 C 472.003906 610.886719 482.507812 607.632812 491.527344 601.71875 Z M 491.527344 601.71875 " fill-opacity="1" fill-rule="nonzero"/><path fill="#ffffff" d="M 681.886719 501.585938 L 681.886719 509.421875 L 595.507812 509.421875 C 564.003906 509.421875 537.675781 533.976562 535.457031 565.332031 L 523.328125 738.976562 L 396.277344 738.976562 L 396.421875 732.320312 C 396.71875 712.945312 411.214844 696.527344 430.441406 693.863281 L 497.886719 684.84375 C 502.769531 684.25 506.46875 680.257812 506.910156 675.226562 L 514.601562 575.835938 C 514.898438 571.398438 512.382812 567.253906 508.390625 565.480469 C 504.25 563.707031 499.515625 564.742188 496.558594 567.996094 L 486.648438 578.792969 C 480.140625 585.890625 470.820312 589.886719 461.207031 589.886719 L 354.417969 589.886719 C 345.988281 589.886719 339.183594 583.082031 339.183594 574.652344 C 339.183594 566.21875 345.988281 559.417969 354.417969 559.417969 L 437.246094 559.417969 C 440.648438 559.417969 443.902344 557.789062 445.824219 554.980469 L 490.492188 491.230469 C 499.8125 477.769531 515.195312 469.785156 531.613281 469.785156 L 650.234375 469.785156 C 667.6875 469.785156 681.886719 484.132812 681.886719 501.585938 Z M 681.886719 501.585938 " fill-opacity="1" fill-rule="nonzero"/><path fill="#ffffff" d="M 345.246094 507.648438 L 345.246094 539.597656 C 329.570312 543.589844 318.03125 557.789062 318.03125 574.652344 C 318.03125 581.75 320.101562 588.40625 323.652344 593.878906 L 239.640625 593.878906 C 242.453125 588.554688 243.929688 582.488281 243.929688 576.128906 C 243.929688 554.832031 226.625 537.527344 205.328125 537.527344 L 137.730469 537.527344 L 137.730469 490.640625 C 137.730469 484.871094 133 480.136719 127.230469 480.136719 C 121.460938 480.136719 116.730469 484.871094 116.730469 490.640625 L 116.730469 548.027344 C 116.730469 553.796875 121.460938 558.527344 127.230469 558.527344 L 205.328125 558.527344 C 215.089844 558.527344 223.074219 566.515625 223.074219 576.277344 C 223.074219 586.039062 215.089844 594.027344 205.328125 594.027344 L 120.132812 594.027344 C 97.945312 594.027344 79.898438 575.980469 79.898438 553.796875 L 79.898438 452.035156 C 80.046875 450.40625 81.378906 440.5 88.625 430.882812 C 98.980469 417.425781 116.285156 410.324219 140.394531 409.882812 C 195.5625 436.503906 222.335938 435.914062 278.6875 407.070312 C 314.039062 407.957031 345.246094 417.71875 345.246094 507.648438 Z M 345.246094 507.648438 " fill-opacity="1" fill-rule="nonzero"/><path fill="#ffffff" d="M 261.679688 238.027344 C 262.523438 238.867188 263.34375 239.730469 264.144531 240.613281 C 264.941406 241.496094 265.71875 242.398438 266.476562 243.316406 C 267.230469 244.238281 267.964844 245.175781 268.671875 246.132812 C 269.382812 247.089844 270.066406 248.0625 270.730469 249.054688 C 271.390625 250.042969 272.027344 251.050781 272.640625 252.070312 C 273.253906 253.09375 273.839844 254.128906 274.402344 255.179688 C 274.960938 256.230469 275.496094 257.292969 276.007812 258.367188 C 276.515625 259.445312 277 260.535156 277.453125 261.632812 C 277.910156 262.734375 278.339844 263.84375 278.738281 264.964844 C 279.140625 266.085938 279.515625 267.21875 279.859375 268.359375 C 280.207031 269.496094 280.523438 270.644531 280.8125 271.800781 C 281.101562 272.957031 281.363281 274.117188 281.59375 275.285156 C 281.828125 276.453125 282.03125 277.625 282.207031 278.804688 C 282.382812 279.984375 282.527344 281.164062 282.644531 282.347656 C 282.761719 283.535156 282.847656 284.722656 282.90625 285.910156 C 282.964844 287.101562 282.992188 288.292969 282.992188 289.480469 C 282.992188 290.671875 282.964844 291.863281 282.90625 293.050781 C 282.847656 294.242188 282.761719 295.429688 282.644531 296.613281 C 282.527344 297.800781 282.382812 298.980469 282.207031 300.160156 C 282.03125 301.335938 281.828125 302.511719 281.59375 303.679688 C 281.363281 304.847656 281.101562 306.007812 280.8125 307.164062 C 280.523438 308.320312 280.207031 309.464844 279.859375 310.605469 C 279.515625 311.746094 279.140625 312.875 278.738281 313.996094 C 278.339844 315.117188 277.910156 316.230469 277.453125 317.328125 C 277 318.429688 276.515625 319.519531 276.007812 320.59375 C 275.496094 321.671875 274.960938 322.734375 274.402344 323.785156 C 273.839844 324.835938 273.253906 325.871094 272.640625 326.894531 C 272.027344 327.914062 271.390625 328.921875 270.730469 329.910156 C 270.066406 330.902344 269.382812 331.875 268.671875 332.832031 C 267.964844 333.789062 267.230469 334.726562 266.476562 335.648438 C 265.71875 336.566406 264.941406 337.46875 264.144531 338.351562 C 263.34375 339.234375 262.523438 340.097656 261.679688 340.9375 C 260.839844 341.78125 259.976562 342.601562 259.09375 343.402344 C 258.210938 344.199219 257.308594 344.980469 256.390625 345.734375 C 255.46875 346.488281 254.53125 347.222656 253.574219 347.929688 C 252.617188 348.640625 251.644531 349.328125 250.652344 349.988281 C 249.664062 350.648438 248.65625 351.285156 247.636719 351.898438 C 246.613281 352.511719 245.578125 353.097656 244.527344 353.660156 C 243.476562 354.222656 242.414062 354.757812 241.335938 355.265625 C 240.261719 355.773438 239.171875 356.257812 238.070312 356.710938 C 236.972656 357.167969 235.859375 357.597656 234.738281 358 C 233.617188 358.398438 232.488281 358.773438 231.347656 359.117188 C 230.207031 359.464844 229.0625 359.78125 227.90625 360.070312 C 226.75 360.359375 225.589844 360.621094 224.421875 360.855469 C 223.253906 361.085938 222.078125 361.289062 220.902344 361.464844 C 219.722656 361.640625 218.542969 361.785156 217.355469 361.902344 C 216.171875 362.019531 214.984375 362.105469 213.792969 362.164062 C 212.605469 362.222656 211.414062 362.253906 210.222656 362.253906 C 209.03125 362.253906 207.84375 362.222656 206.652344 362.164062 C 205.464844 362.105469 204.277344 362.019531 203.089844 361.902344 C 201.90625 361.785156 200.722656 361.640625 199.546875 361.464844 C 198.367188 361.289062 197.195312 361.085938 196.027344 360.855469 C 194.859375 360.621094 193.699219 360.359375 192.542969 360.070312 C 191.386719 359.78125 190.238281 359.464844 189.101562 359.117188 C 187.960938 358.773438 186.828125 358.398438 185.707031 358 C 184.585938 357.597656 183.476562 357.167969 182.375 356.710938 C 181.277344 356.257812 180.1875 355.773438 179.109375 355.265625 C 178.035156 354.757812 176.96875 354.222656 175.921875 353.660156 C 174.871094 353.097656 173.835938 352.511719 172.8125 351.898438 C 171.792969 351.285156 170.785156 350.648438 169.796875 349.988281 C 168.804688 349.328125 167.832031 348.640625 166.875 347.929688 C 165.917969 347.222656 164.980469 346.488281 164.058594 345.734375 C 163.136719 344.980469 162.238281 344.199219 161.355469 343.402344 C 160.472656 342.601562 159.609375 341.78125 158.769531 340.9375 C 157.925781 340.097656 157.105469 339.234375 156.304688 338.351562 C 155.503906 337.46875 154.726562 336.566406 153.972656 335.648438 C 153.214844 334.726562 152.484375 333.789062 151.773438 332.832031 C 151.066406 331.875 150.378906 330.902344 149.71875 329.910156 C 149.054688 328.921875 148.417969 327.914062 147.808594 326.894531 C 147.195312 325.871094 146.609375 324.835938 146.046875 323.785156 C 145.484375 322.734375 144.949219 321.671875 144.441406 320.59375 C 143.929688 319.519531 143.449219 318.429688 142.992188 317.328125 C 142.539062 316.230469 142.109375 315.117188 141.707031 313.996094 C 141.304688 312.875 140.933594 311.746094 140.585938 310.605469 C 140.242188 309.464844 139.925781 308.320312 139.632812 307.164062 C 139.34375 306.007812 139.085938 304.847656 138.851562 303.679688 C 138.621094 302.511719 138.417969 301.335938 138.242188 300.160156 C 138.066406 298.980469 137.921875 297.800781 137.804688 296.613281 C 137.6875 295.429688 137.601562 294.242188 137.542969 293.050781 C 137.484375 291.863281 137.453125 290.671875 137.453125 289.480469 C 137.453125 288.292969 137.484375 287.101562 137.542969 285.910156 C 137.601562 284.722656 137.6875 283.535156 137.804688 282.347656 C 137.921875 281.164062 138.066406 279.984375 138.242188 278.804688 C 138.417969 277.625 138.621094 276.453125 138.851562 275.285156 C 139.085938 274.117188 139.34375 272.957031 139.632812 271.800781 C 139.925781 270.644531 140.242188 269.496094 140.585938 268.359375 C 140.933594 267.21875 141.304688 266.085938 141.707031 264.964844 C 142.109375 263.84375 142.539062 262.734375 142.992188 261.632812 C 143.449219 260.535156 143.929688 259.445312 144.441406 258.367188 C 144.949219 257.292969 145.484375 256.230469 146.046875 255.179688 C 146.609375 254.128906 147.195312 253.09375 147.808594 252.070312 C 148.417969 251.050781 149.054688 250.042969 149.71875 249.054688 C 150.378906 248.0625 151.066406 247.089844 151.773438 246.132812 C 152.484375 245.175781 153.214844 244.238281 153.972656 243.316406 C 154.726562 242.398438 155.503906 241.496094 156.304688 240.613281 C 157.105469 239.730469 157.925781 238.867188 158.769531 238.027344 C 159.609375 237.183594 160.472656 236.363281 161.355469 235.5625 C 162.238281 234.761719 163.136719 233.984375 164.058594 233.230469 C 164.980469 232.472656 165.917969 231.742188 166.875 231.03125 C 167.832031 230.324219 168.804688 229.636719 169.796875 228.976562 C 170.785156 228.3125 171.792969 227.675781 172.8125 227.066406 C 173.835938 226.453125 174.871094 225.867188 175.921875 225.304688 C 176.96875 224.742188 178.035156 224.207031 179.109375 223.699219 C 180.1875 223.191406 181.277344 222.707031 182.375 222.25 C 183.476562 221.796875 184.585938 221.367188 185.707031 220.964844 C 186.828125 220.566406 187.960938 220.191406 189.101562 219.84375 C 190.238281 219.5 191.386719 219.183594 192.542969 218.894531 C 193.699219 218.601562 194.859375 218.34375 196.027344 218.109375 C 197.195312 217.878906 198.367188 217.675781 199.546875 217.5 C 200.722656 217.324219 201.90625 217.179688 203.089844 217.0625 C 204.277344 216.945312 205.464844 216.859375 206.652344 216.800781 C 207.84375 216.742188 209.03125 216.710938 210.222656 216.710938 C 211.414062 216.710938 212.605469 216.742188 213.792969 216.800781 C 214.984375 216.859375 216.171875 216.945312 217.355469 217.0625 C 218.542969 217.179688 219.722656 217.324219 220.902344 217.5 C 222.078125 217.675781 223.253906 217.878906 224.421875 218.109375 C 225.589844 218.34375 226.75 218.601562 227.90625 218.894531 C 229.0625 219.183594 230.207031 219.5 231.347656 219.84375 C 232.488281 220.191406 233.617188 220.566406 234.738281 220.964844 C 235.859375 221.367188 236.972656 221.796875 238.070312 222.25 C 239.171875 222.707031 240.261719 223.191406 241.335938 223.699219 C 242.414062 224.207031 243.476562 224.742188 244.527344 225.304688 C 245.578125 225.867188 246.613281 226.453125 247.636719 227.066406 C 248.65625 227.675781 249.664062 228.3125 250.652344 228.976562 C 251.644531 229.636719 252.617188 230.324219 253.574219 231.03125 C 254.53125 231.742188 255.46875 232.472656 256.390625 233.230469 C 257.308594 233.984375 258.210938 234.761719 259.09375 235.5625 C 259.976562 236.363281 260.839844 237.183594 261.679688 238.027344 Z M 261.679688 238.027344 " fill-opacity="1" fill-rule="nonzero"/></svg>