<svg xmlns="http://www.w3.org/2000/svg" xmlns:xlink="http://www.w3.org/1999/xlink" width="1024" zoomAndPan="magnify" viewBox="0 0 768 767.999994" height="1024" preserveAspectRatio="xMidYMid meet" version="1.0"><defs><clipPath id="8f64d687ce"><path d="M 20.011719 155.144531 L 748 155.144531 L 748 612.644531 L 20.011719 612.644531 Z M 20.011719 155.144531 " clip-rule="nonzero"/></clipPath></defs><g clip-path="url(#8f64d687ce)"><path fill="#ffffff" d="M 746.46875 380.953125 C 504.769531 79.78125 263.0625 79.785156 21.363281 380.953125 C 19.988281 382.65625 19.988281 385.175781 21.363281 386.882812 C 263.0625 688.050781 504.769531 688.054688 746.46875 386.882812 C 747.84375 385.175781 747.84375 382.65625 746.46875 380.953125 Z M 383.914062 292.890625 C 399.054688 292.890625 413.328125 296.589844 425.886719 303.128906 C 428.335938 304.402344 429.328125 307.40625 428.121094 309.894531 C 425.046875 316.199219 423.320312 323.285156 423.320312 330.773438 C 423.320312 356.769531 444.097656 377.914062 469.953125 378.507812 C 472.714844 378.570312 474.933594 380.828125 474.941406 383.59375 C 474.941406 383.699219 474.941406 383.808594 474.941406 383.917969 C 474.941406 434.191406 434.1875 474.945312 383.914062 474.945312 C 333.640625 474.945312 292.890625 434.191406 292.890625 383.917969 C 292.890625 333.644531 333.640625 292.890625 383.914062 292.890625 Z M 576.128906 383.917969 C 576.128906 490.074219 490.070312 576.128906 383.914062 576.128906 C 277.757812 576.128906 191.703125 490.074219 191.703125 383.917969 C 191.703125 277.761719 277.757812 191.703125 383.914062 191.703125 C 490.070312 191.703125 576.128906 277.761719 576.128906 383.917969 Z M 576.128906 383.917969 " fill-opacity="1" fill-rule="evenodd"/></g></svg>