<svg xmlns="http://www.w3.org/2000/svg" xmlns:xlink="http://www.w3.org/1999/xlink" width="1024" zoomAndPan="magnify" viewBox="0 0 768 767.999994" height="1024" preserveAspectRatio="xMidYMid meet" version="1.0"><defs><clipPath id="16a1d7e3e4"><path d="M 17.460938 127.878906 L 750.210938 127.878906 L 750.210938 640.128906 L 17.460938 640.128906 Z M 17.460938 127.878906 " clip-rule="nonzero"/></clipPath></defs><g clip-path="url(#16a1d7e3e4)"><path fill="#ffffff" d="M 103.855469 127.960938 L 664.105469 127.960938 C 687.867188 127.960938 709.484375 137.6875 725.136719 153.335938 C 740.785156 168.984375 750.511719 190.601562 750.511719 214.367188 L 750.511719 553.59375 C 750.511719 577.320312 740.785156 598.921875 725.136719 614.578125 C 709.484375 630.285156 687.867188 640.011719 664.105469 640.011719 L 103.855469 640.011719 C 80.09375 640.011719 58.476562 630.285156 42.824219 614.632812 L 41.988281 613.730469 C 26.835938 598.148438 17.449219 576.898438 17.449219 553.59375 L 17.449219 214.367188 C 17.449219 190.601562 27.175781 168.984375 42.824219 153.335938 C 58.476562 137.6875 80.09375 127.960938 103.855469 127.960938 Z M 498.164062 363.929688 L 681.585938 553.207031 C 687.574219 559.359375 687.433594 569.226562 681.28125 575.214844 C 675.128906 581.199219 665.265625 581.0625 659.277344 574.910156 L 473.195312 382.894531 L 393.597656 443.34375 C 388.171875 447.617188 380.34375 447.882812 374.59375 443.519531 L 294.765625 382.894531 L 108.683594 574.910156 C 102.695312 581.0625 92.832031 581.199219 86.679688 575.214844 C 80.523438 569.226562 80.386719 559.359375 86.375 553.207031 L 269.796875 363.929688 L 86.117188 224.433594 C 79.292969 219.257812 77.957031 209.503906 83.132812 202.675781 C 88.308594 195.851562 98.0625 194.515625 104.886719 199.695312 L 302.015625 349.394531 L 303.121094 350.242188 L 383.980469 411.648438 L 464.839844 350.242188 L 465.945312 349.394531 L 663.074219 199.695312 C 669.898438 194.515625 679.652344 195.851562 684.828125 202.675781 C 690.003906 209.503906 688.667969 219.257812 681.84375 224.433594 Z M 664.105469 159.167969 L 103.855469 159.167969 C 88.6875 159.167969 74.878906 165.382812 64.875 175.386719 C 54.875 185.390625 48.65625 199.195312 48.65625 214.367188 L 48.65625 553.59375 C 48.65625 568.453125 54.589844 581.992188 64.1875 591.941406 L 64.875 592.585938 C 74.878906 602.585938 88.6875 608.804688 103.855469 608.804688 L 664.105469 608.804688 C 679.273438 608.804688 693.082031 602.585938 703.085938 592.585938 C 713.097656 582.601562 719.304688 568.785156 719.304688 553.59375 L 719.304688 214.367188 C 719.304688 199.195312 713.085938 185.390625 703.085938 175.386719 C 693.082031 165.382812 679.273438 159.167969 664.105469 159.167969 Z M 664.105469 159.167969 " fill-opacity="1" fill-rule="nonzero"/></g></svg>