<svg xmlns="http://www.w3.org/2000/svg" xmlns:xlink="http://www.w3.org/1999/xlink" width="1024" zoomAndPan="magnify" viewBox="0 0 768 767.999994" height="1024" preserveAspectRatio="xMidYMid meet" version="1.0"><defs><clipPath id="1d839ff422"><path d="M 16.917969 88.039062 L 751.167969 88.039062 L 751.167969 679.789062 L 16.917969 679.789062 Z M 16.917969 88.039062 " clip-rule="nonzero"/></clipPath></defs><g clip-path="url(#1d839ff422)"><path fill="#ffffff" d="M 451.992188 443.988281 L 720.46875 352.796875 L 720.46875 641.269531 C 720.46875 662.332031 706.175781 679.46875 688.609375 679.46875 L 79.382812 679.46875 C 61.816406 679.46875 47.523438 662.332031 47.523438 641.269531 L 47.523438 351.863281 L 337.175781 444.140625 L 337.175781 478.980469 C 337.175781 484.726562 341.832031 489.382812 347.578125 489.382812 L 441.589844 489.382812 C 447.335938 489.382812 451.992188 484.726562 451.992188 478.980469 Z M 357.980469 426.710938 L 357.980469 468.578125 L 431.1875 468.578125 L 431.1875 426.710938 Z M 751.074219 211.910156 L 751.074219 320.429688 L 451.992188 422.019531 L 451.992188 416.3125 C 451.992188 410.566406 447.335938 405.910156 441.589844 405.910156 L 347.578125 405.910156 C 341.832031 405.910156 337.175781 410.566406 337.175781 416.3125 L 337.175781 422.308594 L 16.917969 320.277344 L 16.917969 211.910156 C 16.917969 185.15625 38.679688 163.390625 65.429688 163.390625 L 208 163.390625 L 208 150.9375 C 208 116.605469 235.929688 88.671875 270.261719 88.671875 L 497.734375 88.671875 C 532.0625 88.671875 559.996094 116.605469 559.996094 150.9375 L 559.996094 163.390625 L 702.5625 163.390625 C 729.3125 163.390625 751.078125 185.15625 751.078125 211.910156 Z M 539.183594 163.394531 L 539.183594 150.9375 C 539.183594 128.078125 520.589844 109.480469 497.730469 109.480469 L 270.257812 109.480469 C 247.402344 109.480469 228.804688 128.078125 228.804688 150.9375 L 228.804688 163.394531 Z M 539.183594 163.394531 " fill-opacity="1" fill-rule="nonzero"/></g></svg>