<svg xmlns="http://www.w3.org/2000/svg" xmlns:xlink="http://www.w3.org/1999/xlink" width="1024" zoomAndPan="magnify" viewBox="0 0 768 767.999994" height="1024" preserveAspectRatio="xMidYMid meet" version="1.0"><defs><clipPath id="716567b715"><path d="M 2 61.019531 L 766 61.019531 L 766 706.769531 L 2 706.769531 Z M 2 61.019531 " clip-rule="nonzero"/></clipPath></defs><g clip-path="url(#716567b715)"><path fill="#ffffff" d="M 363.660156 664.820312 L 363.660156 662.292969 C 363.660156 612.683594 323.070312 572.09375 273.460938 572.09375 L 235.550781 572.09375 C 226.265625 572.09375 218.691406 564.519531 218.691406 555.230469 L 218.691406 533.269531 C 240.765625 520.808594 255.757812 497.117188 255.757812 470.089844 L 255.757812 440.585938 C 255.757812 400.710938 223.132812 368.089844 183.261719 368.089844 C 143.386719 368.089844 110.761719 400.710938 110.761719 440.585938 L 110.761719 470.089844 C 110.761719 497.117188 125.753906 520.808594 147.828125 533.269531 L 147.828125 555.230469 C 147.828125 564.519531 140.253906 572.09375 130.96875 572.09375 L 93.058594 572.09375 C 43.449219 572.09375 2.859375 612.683594 2.859375 662.292969 L 2.859375 664.820312 C 2.859375 688.035156 21.792969 706.972656 45.011719 706.972656 L 321.511719 706.972656 C 344.726562 706.972656 363.660156 688.035156 363.660156 664.820312 Z M 327.984375 61.019531 C 339.671875 61.019531 350.980469 62.632812 361.699219 65.652344 C 322.941406 91.296875 297.371094 135.269531 297.371094 185.21875 C 297.371094 235.164062 322.941406 279.140625 361.703125 304.785156 C 350.980469 307.800781 339.671875 309.417969 327.984375 309.417969 C 305.875 309.417969 285.121094 303.632812 267.136719 293.507812 L 252.085938 297.539062 L 202.332031 310.871094 L 215.664062 261.117188 L 219.699219 246.066406 C 209.570312 228.082031 203.785156 207.328125 203.785156 185.21875 C 203.785156 116.625 259.394531 61.019531 327.984375 61.019531 Z M 440.640625 61.019531 C 372.050781 61.019531 316.441406 116.625 316.441406 185.21875 C 316.441406 253.8125 372.050781 309.417969 440.640625 309.417969 C 462.75 309.417969 483.507812 303.632812 501.492188 293.507812 L 516.542969 297.539062 L 566.296875 310.871094 L 552.964844 261.117188 L 548.929688 246.066406 C 559.058594 228.082031 564.84375 207.328125 564.84375 185.21875 C 564.84375 116.625 509.234375 61.019531 440.640625 61.019531 Z M 502.34375 143.882812 C 507.609375 143.882812 511.882812 148.152344 511.882812 153.421875 C 511.882812 158.6875 507.609375 162.957031 502.34375 162.957031 L 440.640625 162.957031 C 435.375 162.957031 431.105469 158.6875 431.105469 153.421875 C 431.105469 148.15625 435.375 143.882812 440.640625 143.882812 Z M 502.34375 207.480469 C 507.609375 207.480469 511.882812 211.75 511.882812 217.015625 C 511.882812 222.28125 507.609375 226.550781 502.34375 226.550781 L 378.9375 226.550781 C 373.671875 226.550781 369.402344 222.28125 369.402344 217.015625 C 369.402344 211.75 373.671875 207.480469 378.9375 207.480469 Z M 453.960938 462.785156 C 459.226562 462.785156 463.5 467.054688 463.5 472.320312 C 463.5 477.589844 459.226562 481.859375 453.960938 481.859375 L 348.070312 481.859375 L 369.324219 495.035156 C 373.785156 497.792969 375.171875 503.648438 372.414062 508.113281 C 369.65625 512.574219 363.804688 513.960938 359.339844 511.203125 L 310.371094 480.839844 C 307.261719 479.265625 305.128906 476.042969 305.128906 472.320312 C 305.128906 467.054688 309.398438 462.785156 314.667969 462.785156 Z M 314.667969 445.226562 C 309.398438 445.226562 305.128906 440.957031 305.128906 435.691406 C 305.128906 430.425781 309.398438 426.152344 314.667969 426.152344 L 420.554688 426.152344 L 399.304688 412.976562 C 394.839844 410.21875 393.457031 404.363281 396.214844 399.902344 C 398.96875 395.4375 404.824219 394.050781 409.289062 396.808594 L 458.253906 427.171875 C 461.363281 428.746094 463.5 431.96875 463.5 435.691406 C 463.5 440.957031 459.226562 445.226562 453.960938 445.226562 Z M 765.769531 664.820312 L 765.769531 662.292969 C 765.769531 612.683594 725.179688 572.09375 675.566406 572.09375 L 637.660156 572.09375 C 628.375 572.09375 620.800781 564.519531 620.800781 555.230469 L 620.800781 533.269531 C 642.875 520.808594 657.867188 497.117188 657.867188 470.089844 L 657.867188 440.585938 C 657.867188 400.710938 625.242188 368.089844 585.367188 368.089844 C 545.496094 368.089844 512.871094 400.710938 512.871094 440.585938 L 512.871094 470.089844 C 512.871094 497.117188 527.859375 520.808594 549.9375 533.269531 L 549.9375 555.230469 C 549.9375 564.519531 542.359375 572.09375 533.074219 572.09375 L 495.167969 572.09375 C 445.558594 572.09375 404.96875 612.683594 404.96875 662.292969 L 404.96875 664.820312 C 404.96875 688.035156 423.902344 706.972656 447.117188 706.972656 L 723.617188 706.972656 C 746.832031 706.972656 765.769531 688.035156 765.769531 664.820312 Z M 765.769531 664.820312 " fill-opacity="1" fill-rule="evenodd"/></g></svg>