<svg xmlns="http://www.w3.org/2000/svg" xmlns:xlink="http://www.w3.org/1999/xlink" width="1024" zoomAndPan="magnify" viewBox="0 0 768 767.999994" height="1024" preserveAspectRatio="xMidYMid meet" version="1.0"><defs><clipPath id="09e6eb1753"><path d="M 190 26.730469 L 568 26.730469 L 568 281 L 190 281 Z M 190 26.730469 " clip-rule="nonzero"/></clipPath><clipPath id="ff3e114109"><path d="M 119.621094 312 L 648.371094 312 L 648.371094 741 L 119.621094 741 Z M 119.621094 312 " clip-rule="nonzero"/></clipPath></defs><g clip-path="url(#09e6eb1753)"><path fill="#ffde59" d="M 346.519531 28.292969 C 285.050781 38.265625 235.992188 73.988281 209.550781 128.035156 C 193.890625 159.929688 190.414062 180.6875 190.414062 242.390625 L 190.414062 280.546875 L 264.523438 280.546875 L 264.871094 233.808594 L 265.335938 187.183594 L 268.464844 176.976562 C 280.527344 138.125 310.101562 110.867188 349.304688 102.867188 C 358.8125 100.894531 363.570312 100.664062 383.519531 101.125 C 404.394531 101.589844 407.757812 101.9375 416.921875 104.722656 C 434.898438 110.058594 449.277344 118.292969 461.570312 130.238281 C 473.402344 141.601562 480.476562 151.925781 486.160156 166.421875 C 492.886719 183.125 493.351562 187.996094 493.929688 236.125 L 494.511719 280.546875 L 567.34375 280.546875 L 567.34375 241.230469 C 567.34375 189.734375 565.722656 174.308594 557.835938 149.722656 C 540.785156 96.371094 499.148438 54.386719 445.335938 36.410156 C 422.949219 28.988281 413.09375 27.480469 383.519531 27.015625 C 364.148438 26.785156 354.058594 27.132812 346.519531 28.292969 Z M 346.519531 28.292969 " fill-opacity="1" fill-rule="nonzero"/></g><g clip-path="url(#ff3e114109)"><path fill="#ffde59" d="M 171.277344 312.671875 C 153.414062 315.109375 133.929688 328.679688 126.042969 344.335938 C 119.199219 357.789062 119.550781 348.859375 119.664062 526.65625 C 119.78125 704.566406 119.433594 695.984375 126.390625 708.972656 C 130.683594 717.09375 144.253906 730.429688 152.140625 734.257812 C 166.289062 741.214844 161.183594 740.984375 294.445312 740.984375 C 424.921875 740.984375 427.589844 740.867188 454.84375 735.070312 C 528.722656 719.066406 579.175781 669.425781 588.917969 602.96875 C 590.425781 592.53125 590.65625 584.296875 590.308594 565.042969 C 589.613281 538.019531 589.84375 536.746094 596.921875 531.292969 C 601.675781 527.582031 610.140625 527.816406 614.78125 531.757812 C 620.464844 536.511719 621.160156 538.714844 621.972656 555.417969 C 624.871094 612.246094 611.183594 658.292969 580.101562 696.332031 C 567.808594 711.292969 548.554688 727.996094 533.132812 737.042969 L 527.332031 740.40625 L 560.734375 740.753906 C 596.457031 740.984375 603.648438 740.289062 614.085938 735.070312 C 628.003906 728.109375 639.367188 715.121094 644.933594 700.042969 L 647.949219 691.695312 L 648.300781 529.902344 C 648.53125 384.578125 648.414062 367.300781 646.792969 359.644531 C 642.152344 339 628.582031 323.457031 608.402344 315.570312 L 600.398438 312.441406 L 387.578125 312.324219 C 270.554688 312.207031 173.246094 312.441406 171.277344 312.671875 Z M 393.375 410.90625 C 443.480469 419.835938 462.847656 480.957031 427.011719 517.144531 L 419.472656 524.683594 L 420.398438 571.886719 C 421.558594 623.960938 421.675781 623.265625 414.367188 628.136719 C 410.542969 630.6875 409.613281 630.804688 383.054688 630.804688 C 351.972656 630.804688 349.304688 630.222656 345.476562 622.453125 C 343.503906 618.511719 343.503906 615.496094 344.664062 571.539062 L 345.941406 524.800781 L 338.980469 517.839844 C 325.296875 503.808594 320.078125 491.511719 320.078125 473.070312 C 319.960938 438.164062 346.636719 410.675781 381.777344 409.515625 C 383.402344 409.398438 388.621094 410.09375 393.375 410.90625 Z M 393.375 410.90625 " fill-opacity="1" fill-rule="nonzero"/></g></svg>