<svg xmlns="http://www.w3.org/2000/svg" xmlns:xlink="http://www.w3.org/1999/xlink" width="1024" zoomAndPan="magnify" viewBox="0 0 768 767.999994" height="1024" preserveAspectRatio="xMidYMid meet" version="1.0"><defs><clipPath id="d80afe5407"><path d="M 33.828125 37 L 731 37 L 731 734.328125 L 33.828125 734.328125 Z M 33.828125 37 " clip-rule="nonzero"/></clipPath></defs><g clip-path="url(#d80afe5407)"><path fill="#003225" d="M 641.445312 208.828125 L 628.792969 225.703125 L 701.890625 280.527344 L 614.023438 345.945312 L 614.023438 248.910156 L 592.921875 248.910156 L 592.921875 361.652344 L 381.945312 518.722656 L 170.964844 361.652344 L 170.964844 69.578125 C 170.964844 68.886719 171.035156 68.203125 171.167969 67.523438 C 171.304688 66.84375 171.503906 66.183594 171.769531 65.542969 C 172.035156 64.90625 172.359375 64.296875 172.746094 63.722656 C 173.132812 63.144531 173.566406 62.613281 174.058594 62.125 C 174.546875 61.632812 175.082031 61.195312 175.65625 60.8125 C 176.230469 60.425781 176.839844 60.101562 177.480469 59.835938 C 178.117188 59.570312 178.777344 59.371094 179.457031 59.234375 C 180.136719 59.097656 180.820312 59.03125 181.515625 59.03125 L 582.375 59.03125 C 583.066406 59.03125 583.753906 59.097656 584.433594 59.234375 C 585.109375 59.371094 585.769531 59.570312 586.410156 59.835938 C 587.050781 60.101562 587.65625 60.425781 588.234375 60.8125 C 588.808594 61.195312 589.339844 61.632812 589.832031 62.125 C 590.320312 62.613281 590.757812 63.144531 591.144531 63.722656 C 591.527344 64.296875 591.851562 64.90625 592.117188 65.542969 C 592.382812 66.183594 592.582031 66.84375 592.71875 67.523438 C 592.855469 68.203125 592.921875 68.886719 592.921875 69.578125 L 592.921875 80.128906 L 614.023438 80.128906 L 614.023438 69.578125 C 614.019531 68.542969 613.96875 67.511719 613.867188 66.480469 C 613.761719 65.449219 613.609375 64.425781 613.40625 63.40625 C 613.203125 62.390625 612.953125 61.386719 612.652344 60.398438 C 612.351562 59.40625 612 58.429688 611.601562 57.472656 C 611.207031 56.515625 610.761719 55.582031 610.273438 54.667969 C 609.785156 53.753906 609.253906 52.867188 608.675781 52.003906 C 608.101562 51.144531 607.484375 50.3125 606.828125 49.511719 C 606.171875 48.710938 605.476562 47.945312 604.742188 47.210938 C 604.007812 46.480469 603.242188 45.785156 602.441406 45.125 C 601.640625 44.46875 600.808594 43.851562 599.949219 43.277344 C 599.085938 42.699219 598.199219 42.167969 597.285156 41.679688 C 596.371094 41.191406 595.4375 40.746094 594.480469 40.351562 C 593.523438 39.953125 592.546875 39.605469 591.558594 39.304688 C 590.566406 39 589.5625 38.75 588.546875 38.546875 C 587.53125 38.34375 586.507812 38.191406 585.476562 38.089844 C 584.445312 37.984375 583.410156 37.933594 582.375 37.933594 L 181.515625 37.933594 C 180.476562 37.933594 179.445312 37.984375 178.414062 38.089844 C 177.382812 38.191406 176.359375 38.34375 175.34375 38.546875 C 174.328125 38.75 173.324219 39 172.332031 39.304688 C 171.339844 39.605469 170.367188 39.953125 169.410156 40.351562 C 168.453125 40.746094 167.515625 41.191406 166.601562 41.679688 C 165.6875 42.167969 164.800781 42.699219 163.941406 43.277344 C 163.078125 43.851562 162.246094 44.46875 161.445312 45.125 C 160.644531 45.785156 159.878906 46.480469 159.148438 47.210938 C 158.414062 47.945312 157.71875 48.710938 157.0625 49.511719 C 156.402344 50.3125 155.789062 51.144531 155.210938 52.003906 C 154.636719 52.867188 154.101562 53.753906 153.613281 54.667969 C 153.125 55.582031 152.683594 56.515625 152.285156 57.472656 C 151.886719 58.429688 151.539062 59.40625 151.238281 60.398438 C 150.9375 61.386719 150.683594 62.390625 150.480469 63.40625 C 150.277344 64.425781 150.125 65.449219 150.023438 66.480469 C 149.921875 67.511719 149.867188 68.542969 149.867188 69.578125 L 149.867188 190.800781 L 38.175781 272.027344 C 37.503906 272.519531 36.894531 273.078125 36.355469 273.710938 C 35.816406 274.34375 35.355469 275.03125 34.980469 275.773438 C 34.601562 276.511719 34.316406 277.289062 34.121094 278.097656 C 33.925781 278.90625 33.828125 279.726562 33.828125 280.558594 L 33.828125 681.417969 C 33.832031 683.148438 33.917969 684.871094 34.089844 686.585938 C 34.257812 688.304688 34.515625 690.011719 34.851562 691.707031 C 35.191406 693.398438 35.609375 695.070312 36.113281 696.722656 C 36.617188 698.375 37.199219 700 37.859375 701.59375 C 38.523438 703.191406 39.261719 704.75 40.074219 706.269531 C 40.890625 707.792969 41.777344 709.273438 42.738281 710.707031 C 43.695312 712.144531 44.722656 713.527344 45.820312 714.863281 C 46.914062 716.199219 48.074219 717.476562 49.296875 718.699219 C 50.515625 719.917969 51.792969 721.078125 53.128906 722.171875 C 54.464844 723.269531 55.847656 724.296875 57.285156 725.257812 C 58.71875 726.214844 60.199219 727.101562 61.722656 727.917969 C 63.246094 728.734375 64.804688 729.472656 66.398438 730.132812 C 67.992188 730.792969 69.617188 731.375 71.269531 731.878906 C 72.921875 732.382812 74.59375 732.800781 76.289062 733.140625 C 77.980469 733.480469 79.6875 733.734375 81.40625 733.90625 C 83.125 734.074219 84.847656 734.164062 86.574219 734.164062 L 677.316406 734.164062 C 679.042969 734.164062 680.765625 734.074219 682.484375 733.90625 C 684.203125 733.734375 685.90625 733.480469 687.601562 733.140625 C 689.292969 732.800781 690.96875 732.382812 692.621094 731.878906 C 694.269531 731.378906 695.894531 730.792969 697.488281 730.132812 C 699.085938 729.472656 700.644531 728.734375 702.167969 727.917969 C 703.6875 727.105469 705.167969 726.214844 706.605469 725.257812 C 708.039062 724.296875 709.425781 723.269531 710.757812 722.171875 C 712.09375 721.078125 713.371094 719.917969 714.59375 718.699219 C 715.816406 717.476562 716.972656 716.199219 718.070312 714.863281 C 719.164062 713.53125 720.191406 712.144531 721.152344 710.707031 C 722.113281 709.273438 723 707.792969 723.8125 706.269531 C 724.628906 704.75 725.367188 703.191406 726.027344 701.59375 C 726.691406 700 727.273438 698.375 727.773438 696.722656 C 728.277344 695.070312 728.699219 693.398438 729.035156 691.707031 C 729.375 690.011719 729.628906 688.304688 729.800781 686.585938 C 729.972656 684.871094 730.058594 683.148438 730.058594 681.417969 L 730.058594 280.558594 C 730.058594 279.738281 729.964844 278.929688 729.777344 278.132812 C 729.589844 277.335938 729.3125 276.574219 728.945312 275.839844 C 728.578125 275.109375 728.132812 274.429688 727.609375 273.800781 C 727.082031 273.171875 726.492188 272.613281 725.835938 272.121094 Z M 149.867188 345.945312 L 62.175781 280.660156 L 149.867188 216.878906 Z M 677.316406 713.066406 L 86.574219 713.066406 C 85.539062 713.066406 84.503906 713.011719 83.472656 712.910156 C 82.441406 712.808594 81.417969 712.65625 80.402344 712.453125 C 79.386719 712.25 78.382812 711.996094 77.390625 711.695312 C 76.398438 711.394531 75.425781 711.046875 74.46875 710.648438 C 73.511719 710.25 72.574219 709.808594 71.660156 709.320312 C 70.75 708.832031 69.859375 708.296875 69 707.722656 C 68.136719 707.148438 67.308594 706.53125 66.507812 705.871094 C 65.707031 705.214844 64.9375 704.519531 64.207031 703.789062 C 63.472656 703.054688 62.777344 702.289062 62.121094 701.488281 C 61.464844 700.6875 60.847656 699.855469 60.269531 698.992188 C 59.695312 698.132812 59.164062 697.246094 58.671875 696.332031 C 58.183594 695.417969 57.742188 694.480469 57.34375 693.523438 C 56.949219 692.566406 56.597656 691.59375 56.296875 690.601562 C 55.996094 689.609375 55.742188 688.605469 55.539062 687.589844 C 55.335938 686.574219 55.183594 685.550781 55.082031 684.519531 C 54.980469 683.488281 54.925781 682.457031 54.925781 681.417969 L 54.925781 301.5625 L 269.542969 461.34375 L 89.242188 663.855469 L 105.003906 677.886719 L 286.535156 473.992188 L 375.648438 540.335938 C 376.101562 540.675781 376.578125 540.972656 377.078125 541.234375 C 377.578125 541.492188 378.09375 541.710938 378.628906 541.886719 C 379.164062 542.066406 379.710938 542.199219 380.265625 542.289062 C 380.820312 542.378906 381.382812 542.421875 381.945312 542.421875 C 382.507812 542.421875 383.066406 542.378906 383.625 542.289062 C 384.179688 542.199219 384.726562 542.066406 385.261719 541.886719 C 385.792969 541.710938 386.3125 541.492188 386.8125 541.234375 C 387.3125 540.972656 387.785156 540.675781 388.238281 540.335938 L 477.351562 473.992188 L 658.886719 677.886719 L 674.648438 663.855469 L 494.34375 461.34375 L 708.964844 301.5625 L 708.964844 681.417969 C 708.960938 682.457031 708.910156 683.488281 708.808594 684.519531 C 708.703125 685.550781 708.550781 686.574219 708.347656 687.589844 C 708.144531 688.605469 707.894531 689.609375 707.59375 690.601562 C 707.292969 691.59375 706.941406 692.566406 706.546875 693.523438 C 706.148438 694.480469 705.703125 695.417969 705.214844 696.332031 C 704.726562 697.246094 704.195312 698.132812 703.617188 698.992188 C 703.042969 699.855469 702.425781 700.6875 701.769531 701.488281 C 701.113281 702.289062 700.417969 703.054688 699.683594 703.789062 C 698.949219 704.519531 698.183594 705.214844 697.382812 705.871094 C 696.582031 706.53125 695.75 707.148438 694.890625 707.722656 C 694.027344 708.296875 693.140625 708.832031 692.226562 709.320312 C 691.3125 709.808594 690.378906 710.25 689.421875 710.648438 C 688.464844 711.046875 687.488281 711.394531 686.5 711.695312 C 685.507812 711.996094 684.503906 712.25 683.488281 712.453125 C 682.472656 712.65625 681.449219 712.808594 680.417969 712.910156 C 679.386719 713.015625 678.351562 713.066406 677.316406 713.066406 Z M 677.316406 713.066406 " fill-opacity="1" fill-rule="nonzero"/></g><path fill="#003225" d="M 223.710938 660.320312 L 265.90625 660.320312 L 265.90625 681.417969 L 223.710938 681.417969 Z M 223.710938 660.320312 " fill-opacity="1" fill-rule="nonzero"/><path fill="#003225" d="M 287.003906 660.320312 L 540.179688 660.320312 L 540.179688 681.417969 L 287.003906 681.417969 Z M 287.003906 660.320312 " fill-opacity="1" fill-rule="nonzero"/><path fill="#003225" d="M 223.710938 618.125 L 476.886719 618.125 L 476.886719 639.222656 L 223.710938 639.222656 Z M 223.710938 618.125 " fill-opacity="1" fill-rule="nonzero"/><path fill="#003225" d="M 497.984375 618.125 L 540.179688 618.125 L 540.179688 639.222656 L 497.984375 639.222656 Z M 497.984375 618.125 " fill-opacity="1" fill-rule="nonzero"/><path fill="#003225" d="M 255.355469 227.816406 L 424.140625 227.816406 L 424.140625 248.914062 L 255.355469 248.914062 Z M 255.355469 227.816406 " fill-opacity="1" fill-rule="nonzero"/><path fill="#003225" d="M 202.609375 270.007812 L 392.492188 270.007812 L 392.492188 291.109375 L 202.609375 291.109375 Z M 202.609375 270.007812 " fill-opacity="1" fill-rule="nonzero"/><path fill="#003225" d="M 202.609375 312.207031 L 371.394531 312.207031 L 371.394531 333.304688 L 202.609375 333.304688 Z M 202.609375 312.207031 " fill-opacity="1" fill-rule="nonzero"/><path fill="#003225" d="M 223.710938 354.402344 L 360.847656 354.402344 L 360.847656 375.5 L 223.710938 375.5 Z M 223.710938 354.402344 " fill-opacity="1" fill-rule="nonzero"/><path fill="#003225" d="M 287.003906 407.148438 L 476.886719 407.148438 L 476.886719 428.246094 L 287.003906 428.246094 Z M 287.003906 407.148438 " fill-opacity="1" fill-rule="nonzero"/><path fill="#003225" d="M 717.574219 50.417969 C 716.585938 49.433594 715.550781 48.496094 714.472656 47.613281 C 713.390625 46.730469 712.269531 45.902344 711.109375 45.125 C 709.949219 44.351562 708.75 43.636719 707.519531 42.980469 C 706.289062 42.324219 705.027344 41.726562 703.738281 41.195312 C 702.449219 40.660156 701.136719 40.191406 699.800781 39.789062 C 698.464844 39.382812 697.109375 39.046875 695.742188 38.773438 C 694.371094 38.5 692.992188 38.296875 691.605469 38.160156 C 690.214844 38.023438 688.824219 37.957031 687.425781 37.957031 C 686.03125 37.957031 684.636719 38.023438 683.25 38.160156 C 681.859375 38.296875 680.480469 38.5 679.113281 38.773438 C 677.742188 39.046875 676.390625 39.382812 675.054688 39.789062 C 673.71875 40.191406 672.40625 40.660156 671.117188 41.195312 C 669.824219 41.726562 668.566406 42.324219 667.332031 42.980469 C 666.101562 43.636719 664.90625 44.351562 663.742188 45.125 C 662.582031 45.902344 661.460938 46.730469 660.382812 47.613281 C 659.300781 48.496094 658.265625 49.433594 657.277344 50.417969 L 415.039062 292.777344 C 414.214844 293.648438 413.558594 294.628906 413.070312 295.726562 L 382.695312 371.578125 C 382.316406 372.539062 382.082031 373.53125 381.988281 374.558594 C 381.898438 375.585938 381.960938 376.605469 382.167969 377.613281 C 382.375 378.625 382.726562 379.582031 383.214844 380.492188 C 383.703125 381.398438 384.3125 382.21875 385.042969 382.949219 C 385.769531 383.675781 386.589844 384.285156 387.496094 384.777344 C 388.40625 385.265625 389.363281 385.613281 390.375 385.824219 C 391.382812 386.03125 392.402344 386.089844 393.429688 386.003906 C 394.457031 385.914062 395.449219 385.675781 396.40625 385.296875 L 472.0625 355.03125 C 473.234375 354.523438 474.289062 353.828125 475.214844 352.945312 L 717.574219 110.714844 C 718.558594 109.726562 719.496094 108.691406 720.378906 107.613281 C 721.261719 106.53125 722.09375 105.410156 722.867188 104.25 C 723.640625 103.089844 724.355469 101.890625 725.011719 100.660156 C 725.671875 99.429688 726.265625 98.167969 726.796875 96.878906 C 727.332031 95.585938 727.800781 94.273438 728.203125 92.9375 C 728.609375 91.601562 728.949219 90.25 729.21875 88.882812 C 729.492188 87.511719 729.695312 86.132812 729.832031 84.742188 C 729.96875 83.355469 730.035156 81.960938 730.035156 80.566406 C 730.035156 79.171875 729.96875 77.777344 729.832031 76.390625 C 729.695312 75 729.492188 73.621094 729.21875 72.25 C 728.949219 70.882812 728.609375 69.53125 728.203125 68.195312 C 727.800781 66.859375 727.332031 65.546875 726.796875 64.253906 C 726.265625 62.964844 725.671875 61.703125 725.011719 60.472656 C 724.355469 59.242188 723.640625 58.042969 722.867188 56.882812 C 722.09375 55.722656 721.261719 54.601562 720.378906 53.519531 C 719.496094 52.441406 718.558594 51.40625 717.574219 50.417969 Z M 468.117188 330.332031 L 437.65625 299.875 L 649.613281 87.921875 L 680.074219 118.378906 Z M 426.59375 318.644531 L 449.347656 341.394531 L 411.429688 356.566406 Z M 702.65625 95.796875 L 694.992188 103.464844 L 664.53125 73.003906 L 672.195312 65.339844 C 672.695312 64.839844 673.214844 64.367188 673.761719 63.917969 C 674.304688 63.46875 674.871094 63.046875 675.457031 62.652344 C 676.046875 62.261719 676.648438 61.894531 677.273438 61.5625 C 677.894531 61.226562 678.53125 60.925781 679.183594 60.65625 C 679.835938 60.382812 680.5 60.144531 681.175781 59.9375 C 681.851562 59.734375 682.535156 59.5625 683.226562 59.421875 C 683.917969 59.285156 684.617188 59.179688 685.320312 59.109375 C 686.023438 59.039062 686.726562 59.003906 687.433594 59.003906 C 688.140625 59.003906 688.84375 59.035156 689.546875 59.105469 C 690.25 59.171875 690.949219 59.277344 691.640625 59.414062 C 692.332031 59.550781 693.019531 59.722656 693.695312 59.925781 C 694.371094 60.128906 695.035156 60.367188 695.6875 60.636719 C 696.339844 60.90625 696.976562 61.207031 697.601562 61.542969 C 698.222656 61.875 698.828125 62.238281 699.414062 62.628906 C 700.003906 63.019531 700.570312 63.441406 701.117188 63.890625 C 701.660156 64.335938 702.183594 64.808594 702.683594 65.308594 C 703.183594 65.808594 703.65625 66.332031 704.105469 66.878906 C 704.554688 67.421875 704.972656 67.992188 705.367188 68.578125 C 705.757812 69.164062 706.121094 69.769531 706.453125 70.394531 C 706.785156 71.015625 707.085938 71.652344 707.355469 72.304688 C 707.628906 72.957031 707.863281 73.625 708.070312 74.300781 C 708.273438 74.976562 708.445312 75.660156 708.582031 76.351562 C 708.71875 77.046875 708.824219 77.742188 708.890625 78.445312 C 708.960938 79.148438 708.996094 79.851562 708.992188 80.558594 C 708.992188 81.265625 708.957031 81.96875 708.886719 82.671875 C 708.816406 83.375 708.714844 84.074219 708.574219 84.765625 C 708.4375 85.457031 708.265625 86.144531 708.058594 86.816406 C 707.851562 87.492188 707.613281 88.15625 707.34375 88.808594 C 707.070312 89.460938 706.769531 90.097656 706.4375 90.722656 C 706.101562 91.34375 705.738281 91.949219 705.34375 92.535156 C 704.953125 93.121094 704.53125 93.6875 704.082031 94.234375 C 703.632812 94.777344 703.15625 95.300781 702.65625 95.796875 Z M 702.65625 95.796875 " fill-opacity="1" fill-rule="nonzero"/><path fill="#003225" d="M 460.660156 292.417969 L 642.15625 110.921875 L 657.074219 125.835938 L 475.578125 307.332031 Z M 460.660156 292.417969 " fill-opacity="1" fill-rule="nonzero"/><path fill="#003225" d="M 381.945312 90.675781 L 213.160156 90.675781 C 212.46875 90.675781 211.78125 90.746094 211.101562 90.878906 C 210.421875 91.015625 209.765625 91.214844 209.125 91.480469 C 208.484375 91.746094 207.875 92.070312 207.300781 92.453125 C 206.722656 92.839844 206.191406 93.277344 205.699219 93.765625 C 205.210938 94.257812 204.773438 94.789062 204.390625 95.363281 C 204.003906 95.941406 203.679688 96.550781 203.414062 97.1875 C 203.148438 97.828125 202.949219 98.488281 202.8125 99.167969 C 202.679688 99.847656 202.613281 100.535156 202.613281 101.226562 L 202.613281 185.617188 C 202.613281 186.3125 202.679688 186.996094 202.8125 187.675781 C 202.949219 188.355469 203.148438 189.015625 203.414062 189.65625 C 203.679688 190.296875 204.003906 190.902344 204.390625 191.480469 C 204.773438 192.054688 205.210938 192.589844 205.699219 193.078125 C 206.191406 193.566406 206.722656 194.003906 207.300781 194.390625 C 207.875 194.773438 208.484375 195.101562 209.125 195.363281 C 209.765625 195.628906 210.421875 195.828125 211.101562 195.964844 C 211.78125 196.101562 212.46875 196.167969 213.160156 196.167969 L 381.945312 196.167969 C 382.636719 196.167969 383.324219 196.101562 384.003906 195.964844 C 384.683594 195.828125 385.34375 195.628906 385.980469 195.363281 C 386.621094 195.101562 387.230469 194.773438 387.804688 194.390625 C 388.382812 194.003906 388.914062 193.566406 389.40625 193.078125 C 389.894531 192.589844 390.332031 192.054688 390.714844 191.480469 C 391.101562 190.902344 391.425781 190.296875 391.691406 189.65625 C 391.957031 189.015625 392.15625 188.355469 392.292969 187.675781 C 392.425781 186.996094 392.492188 186.3125 392.492188 185.617188 L 392.492188 101.226562 C 392.492188 100.535156 392.425781 99.847656 392.292969 99.167969 C 392.15625 98.488281 391.957031 97.828125 391.691406 97.1875 C 391.425781 96.550781 391.101562 95.941406 390.714844 95.363281 C 390.332031 94.789062 389.894531 94.257812 389.40625 93.765625 C 388.914062 93.277344 388.382812 92.839844 387.804688 92.453125 C 387.230469 92.070312 386.621094 91.746094 385.980469 91.480469 C 385.34375 91.214844 384.683594 91.015625 384.003906 90.878906 C 383.324219 90.746094 382.636719 90.675781 381.945312 90.675781 Z M 371.394531 175.070312 L 223.710938 175.070312 L 223.710938 111.777344 L 371.394531 111.777344 Z M 371.394531 175.070312 " fill-opacity="1" fill-rule="nonzero"/></svg>