<svg xmlns="http://www.w3.org/2000/svg" xmlns:xlink="http://www.w3.org/1999/xlink" width="1024" zoomAndPan="magnify" viewBox="0 0 768 767.999994" height="1024" preserveAspectRatio="xMidYMid meet" version="1.0"><defs><clipPath id="3fa08f3399"><path d="M 24.179688 24.179688 L 744 24.179688 L 744 744 L 24.179688 744 Z M 24.179688 24.179688 " clip-rule="nonzero"/></clipPath></defs><g clip-path="url(#3fa08f3399)"><path fill="#ffffff" d="M 743.816406 44.164062 L 743.816406 517.800781 C 743.816406 528.824219 734.847656 537.792969 723.828125 537.792969 L 552.511719 537.792969 C 546.988281 537.792969 542.511719 533.320312 542.511719 527.796875 C 542.511719 522.273438 546.988281 517.800781 552.511719 517.800781 L 723.828125 517.800781 L 723.828125 44.164062 L 44.171875 44.164062 L 44.171875 517.800781 L 215.480469 517.800781 C 220.992188 517.800781 225.476562 522.269531 225.476562 527.796875 C 225.476562 533.324219 220.992188 537.792969 215.480469 537.792969 L 44.171875 537.792969 C 33.144531 537.792969 24.175781 528.824219 24.175781 517.800781 L 24.175781 44.164062 C 24.175781 33.144531 33.144531 24.179688 44.171875 24.179688 L 723.828125 24.179688 C 734.847656 24.179688 743.8125 33.144531 743.8125 44.164062 Z M 583.484375 500.664062 L 637.230469 500.664062 C 642.335938 500.664062 646.609375 496.828125 647.167969 491.757812 L 647.949219 484.574219 C 650.390625 462.300781 668.328125 444.367188 690.585938 441.9375 L 697.777344 441.140625 C 702.851562 440.59375 706.691406 436.3125 706.691406 431.214844 L 706.691406 130.765625 C 706.691406 125.671875 702.851562 121.386719 697.777344 120.832031 L 690.585938 120.042969 C 668.324219 117.601562 650.390625 99.667969 647.949219 77.40625 L 647.167969 70.214844 C 646.609375 65.140625 642.335938 61.300781 637.230469 61.300781 L 130.753906 61.300781 C 125.65625 61.300781 121.367188 65.140625 120.816406 70.214844 L 120.03125 77.40625 C 117.589844 99.667969 99.667969 117.601562 77.390625 120.042969 L 70.214844 120.832031 C 65.148438 121.386719 61.304688 125.671875 61.304688 130.765625 L 61.304688 431.214844 C 61.304688 436.3125 65.148438 440.597656 70.214844 441.140625 L 77.390625 441.941406 C 99.667969 444.367188 117.601562 462.300781 120.03125 484.558594 L 120.816406 491.757812 C 121.367188 496.828125 125.65625 500.667969 130.753906 500.667969 L 184.5 500.667969 C 190.023438 500.667969 194.492188 496.199219 194.492188 490.671875 C 194.492188 485.144531 190.023438 480.679688 184.5 480.679688 L 139.695312 480.679688 C 135.605469 450.535156 111.433594 426.359375 81.292969 422.277344 L 81.292969 139.707031 C 111.433594 135.605469 135.605469 111.433594 139.695312 81.292969 L 628.289062 81.292969 C 632.386719 111.433594 656.558594 135.605469 686.703125 139.707031 L 686.703125 422.277344 C 656.558594 426.359375 632.386719 450.535156 628.289062 480.675781 L 583.484375 480.675781 C 577.964844 480.675781 573.484375 485.144531 573.484375 490.671875 C 573.484375 496.195312 577.964844 500.664062 583.484375 500.664062 Z M 218 362.621094 C 218 357.09375 213.53125 352.625 208 352.625 L 124.839844 352.625 C 119.316406 352.625 114.851562 357.09375 114.851562 362.621094 C 114.851562 368.148438 119.316406 372.617188 124.839844 372.617188 L 208 372.617188 C 213.53125 372.617188 218 368.132812 218 362.621094 Z M 114.851562 199.347656 C 114.851562 204.871094 119.320312 209.339844 124.84375 209.339844 L 643.152344 209.339844 C 648.667969 209.339844 653.148438 204.871094 653.148438 199.347656 C 653.148438 193.824219 648.667969 189.351562 643.152344 189.351562 L 124.839844 189.351562 C 119.316406 189.351562 114.851562 193.835938 114.851562 199.347656 Z M 560 372.617188 L 643.152344 372.617188 C 648.667969 372.617188 653.148438 368.132812 653.148438 362.621094 C 653.148438 357.109375 648.667969 352.625 643.152344 352.625 L 560 352.625 C 554.46875 352.625 550.003906 357.09375 550.003906 362.621094 C 550.003906 368.148438 554.46875 372.617188 560 372.617188 Z M 552.371094 154.925781 C 557.894531 154.925781 562.363281 150.457031 562.363281 144.929688 C 562.363281 139.402344 557.894531 134.9375 552.371094 134.9375 L 215.609375 134.9375 C 210.101562 134.9375 205.617188 139.402344 205.617188 144.929688 C 205.617188 150.457031 210.101562 154.925781 215.609375 154.925781 Z M 653.148438 253.773438 C 653.148438 248.25 648.667969 243.78125 643.152344 243.78125 L 124.839844 243.78125 C 119.316406 243.78125 114.851562 248.25 114.851562 253.773438 C 114.851562 259.300781 119.316406 263.773438 124.839844 263.773438 L 643.152344 263.773438 C 648.667969 263.773438 653.148438 259.300781 653.148438 253.773438 Z M 540.71875 318.183594 L 643.152344 318.183594 C 648.671875 318.183594 653.152344 313.71875 653.152344 308.191406 C 653.152344 302.664062 648.671875 298.199219 643.152344 298.199219 L 540.71875 298.199219 C 535.195312 298.199219 530.722656 302.679688 530.722656 308.191406 C 530.722656 313.703125 535.195312 318.183594 540.71875 318.183594 Z M 124.84375 298.199219 C 119.320312 298.199219 114.851562 302.679688 114.851562 308.191406 C 114.851562 313.703125 119.320312 318.183594 124.84375 318.183594 L 227.277344 318.183594 C 232.808594 318.183594 237.273438 313.71875 237.273438 308.191406 C 237.273438 302.664062 232.808594 298.199219 227.277344 298.199219 Z M 466.457031 624.21875 C 456.191406 622.480469 446.804688 626.363281 440.773438 634.867188 C 435.679688 642.027344 429.980469 648.042969 423.609375 652.792969 L 455.992188 743.5 L 493.449219 698.398438 L 551.820312 703.894531 L 511.394531 618.265625 C 497.964844 625.308594 482.882812 627.003906 466.457031 624.21875 Z M 327.242188 634.867188 C 321.195312 626.363281 311.816406 622.480469 301.539062 624.21875 C 285.339844 626.960938 270.46875 625.367188 257.171875 618.5625 L 216.742188 704.191406 L 275.09375 698.714844 L 312.558594 743.8125 L 344.929688 653.179688 C 338.332031 648.371094 332.464844 642.222656 327.246094 634.863281 Z M 384 360.390625 C 328.253906 360.390625 282.917969 405.730469 282.917969 461.476562 C 282.917969 482.410156 289.316406 501.886719 300.246094 518.027344 C 305.632812 505.011719 314.046875 493.3125 324.890625 483.960938 C 332.410156 477.484375 340.875 472.332031 349.949219 468.652344 C 340.96875 459.839844 335.390625 447.554688 335.390625 433.988281 C 335.390625 407.1875 357.195312 385.375 384 385.375 C 410.800781 385.375 432.617188 407.1875 432.617188 433.988281 C 432.617188 447.554688 427.03125 459.835938 418.035156 468.667969 C 427.105469 472.347656 435.59375 477.484375 443.109375 483.960938 C 453.953125 493.3125 462.363281 505.011719 467.738281 518.027344 C 478.679688 501.886719 485.089844 482.410156 485.089844 461.476562 C 485.089844 405.730469 439.730469 360.390625 384 360.390625 Z M 411.769531 433.988281 C 411.769531 418.683594 399.308594 406.21875 384 406.21875 C 368.691406 406.21875 356.226562 418.683594 356.226562 433.988281 C 356.226562 449.296875 368.675781 461.757812 384 461.757812 C 399.320312 461.757812 411.769531 449.296875 411.769531 433.988281 Z M 384 482.859375 C 351.285156 482.859375 323.550781 505.058594 316.148438 536.34375 C 334.09375 552.632812 357.910156 562.5625 384 562.5625 C 410.085938 562.5625 433.898438 552.632812 451.851562 536.34375 C 444.433594 505.058594 416.710938 482.859375 384 482.859375 Z M 423.769531 622.792969 C 413.824219 636.800781 401.628906 644.617188 384 644.617188 C 366.371094 644.617188 354.175781 636.800781 344.226562 622.792969 C 333.539062 607.738281 316.28125 600.574219 298.058594 603.671875 C 281.128906 606.53125 266.972656 603.449219 254.507812 590.984375 C 242.042969 578.523438 238.945312 564.363281 241.820312 547.421875 C 244.90625 529.210938 237.753906 511.953125 222.683594 501.246094 C 208.6875 491.296875 200.855469 479.105469 200.855469 461.472656 C 200.855469 443.84375 208.6875 431.652344 222.683594 421.703125 C 237.753906 411.011719 244.90625 393.757812 241.820312 375.535156 C 238.945312 358.605469 242.046875 344.441406 254.507812 331.980469 C 266.96875 319.519531 281.128906 316.421875 298.058594 319.292969 C 316.28125 322.378906 333.539062 315.226562 344.226562 300.160156 C 354.175781 286.164062 366.371094 278.332031 384 278.332031 C 401.628906 278.332031 413.824219 286.164062 423.769531 300.160156 C 434.472656 315.226562 451.730469 322.378906 469.941406 319.292969 C 486.890625 316.421875 501.035156 319.519531 513.511719 331.980469 C 525.972656 344.441406 529.050781 358.605469 526.191406 375.535156 C 523.101562 393.757812 530.25 411.011719 545.3125 421.703125 C 559.324219 431.652344 567.140625 443.84375 567.140625 461.472656 C 567.140625 479.105469 559.324219 491.296875 545.3125 501.246094 C 530.25 511.953125 523.101562 529.207031 526.191406 547.421875 C 529.050781 564.363281 525.972656 578.523438 513.511719 590.984375 C 501.050781 603.449219 486.878906 606.546875 469.941406 603.671875 C 451.730469 600.574219 434.472656 607.734375 423.769531 622.792969 Z M 505.925781 461.476562 C 505.925781 394.25 451.226562 339.546875 384 339.546875 C 316.773438 339.546875 262.070312 394.25 262.070312 461.476562 C 262.070312 528.703125 316.757812 583.40625 384 583.40625 C 451.242188 583.40625 505.925781 528.703125 505.925781 461.476562 Z M 505.925781 461.476562 " fill-opacity="1" fill-rule="evenodd"/></g></svg>