<svg xmlns="http://www.w3.org/2000/svg" xmlns:xlink="http://www.w3.org/1999/xlink" width="1024" zoomAndPan="magnify" viewBox="0 0 768 767.999994" height="1024" preserveAspectRatio="xMidYMid meet" version="1.0"><defs><clipPath id="4b3663329c"><path d="M 0 66.644531 L 768 66.644531 L 768 701.144531 L 0 701.144531 Z M 0 66.644531 " clip-rule="nonzero"/></clipPath></defs><g clip-path="url(#4b3663329c)"><path fill="#ffffff" d="M 394.65625 199.457031 C 394.65625 205.296875 389.925781 210.027344 384.089844 210.027344 C 378.253906 210.027344 373.519531 205.296875 373.519531 199.457031 L 373.519531 77.21875 C 373.519531 71.382812 378.253906 66.652344 384.089844 66.652344 C 389.925781 66.652344 394.65625 71.382812 394.65625 77.21875 Z M 116.003906 243.511719 L 0.394531 437.332031 C -3.832031 444.425781 -1.503906 453.863281 5.675781 458.144531 L 84.882812 505.367188 C 91.46875 509.378906 100.285156 507.117188 105.5625 499.054688 L 220.738281 305.957031 C 224.96875 298.867188 222.640625 289.425781 215.464844 285.148438 L 136.816406 238.234375 C 129.722656 234.007812 120.285156 236.34375 116.003906 243.511719 Z M 356.628906 642.285156 L 326.699219 678.816406 C 315.480469 692.816406 336.605469 710.050781 348.015625 696.304688 L 377.957031 659.773438 C 380.371094 656.832031 381.359375 653.171875 381.011719 649.660156 C 379.808594 637.511719 364.429688 632.808594 356.628906 642.285156 Z M 315.796875 595.667969 C 322.878906 587.09375 335.335938 585.863281 344.085938 593.003906 C 352.5 600.019531 353.675781 612.554688 346.730469 621.035156 L 310.457031 665.296875 C 304.140625 673.140625 299.902344 680.273438 289.789062 681.273438 C 272.101562 683.027344 261.238281 662.542969 272.179688 648.898438 Z M 283.40625 538.746094 C 300.035156 518.625 330.859375 543.945312 314.222656 564.253906 L 255.175781 636.339844 C 250.746094 641.75 247.273438 645.8125 239.152344 646.621094 C 221.425781 648.378906 210.464844 627.75 221.703125 614.042969 Z M 257.347656 537.203125 L 207.070312 598.5625 C 190.40625 618.902344 159.453125 593.550781 176.136719 573.195312 L 226.414062 511.835938 C 237.625 498.152344 260.019531 504.816406 261.773438 522.539062 C 262.28125 527.632812 260.847656 532.933594 257.347656 537.203125 Z M 550.269531 301.175781 L 663.039062 491.566406 C 667.320312 498.746094 676.757812 501.074219 683.847656 496.84375 L 762.5 449.929688 C 769.683594 445.644531 772.003906 436.207031 767.777344 429.125 L 652.167969 235.304688 C 647.886719 228.121094 638.449219 225.792969 631.359375 230.023438 L 552.710938 276.9375 C 543.90625 282.191406 543.996094 293.96875 547.695312 298.191406 C 548.714844 298.996094 549.59375 299.996094 550.269531 301.175781 Z M 409.628906 364.175781 C 407.390625 362.417969 404.664062 361.707031 402.039062 361.976562 L 362.464844 363.96875 C 359.8125 364.09375 357.433594 365.191406 355.652344 366.898438 L 317.65625 399.496094 C 292.394531 420.390625 264.269531 407.714844 268.726562 399.859375 C 272.8125 394.625 292.503906 369.324219 324.535156 327.140625 L 414.628906 297.730469 C 423.316406 294.714844 478.632812 315.832031 493.324219 319.976562 C 507.75 323.660156 522.085938 323.78125 535.953125 319.636719 L 632.597656 481.660156 L 595.1875 510.363281 Z M 353.9375 396.800781 C 359.136719 392.339844 363.625 388.339844 367.390625 384.828125 L 399.664062 383.199219 L 588.011719 531.574219 C 591.308594 535.421875 592.910156 540.226562 592.832031 545 C 592.542969 562.765625 571.101562 570.753906 559.378906 559.707031 L 466.179688 488.730469 C 455.195312 480.386719 442.476562 497.152344 453.464844 505.496094 L 543.863281 574.207031 C 546.191406 578.261719 547.117188 582.835938 546.6875 587.273438 L 540.34375 600.609375 C 532.976562 607.976562 521.445312 609.140625 512.953125 603.523438 L 443.339844 555.605469 C 431.910156 547.726562 419.960938 565.082031 431.371094 572.949219 L 498.238281 618.980469 C 499.480469 622.542969 499.769531 626.304688 499.160156 629.921875 C 496.445312 646.042969 478.308594 651.789062 468.546875 646.34375 L 434.109375 622.820312 C 422.640625 614.992188 410.742188 632.414062 422.214844 640.246094 L 454.582031 662.359375 C 455.355469 665.15625 455.457031 668.085938 454.910156 670.890625 C 452.371094 684.335938 437.042969 688.667969 429.269531 684.230469 L 399.949219 663.363281 C 407.78125 642.40625 394.191406 619.121094 371.558594 616.417969 C 377.453125 586.46875 359.089844 570.683594 336.617188 567.613281 C 351.097656 533.191406 315.867188 498.660156 281.636719 514.203125 C 273.214844 481.445312 231.109375 472.765625 210.058594 498.457031 L 179.855469 535.320312 L 130.574219 498.292969 L 232.808594 327.496094 C 243.785156 328.726562 255.550781 326.417969 266.367188 321.921875 L 307.941406 301.445312 C 317.195312 297.175781 327.921875 296.289062 336.585938 301.019531 L 314.914062 308.082031 C 312.949219 308.75 311.140625 309.980469 309.796875 311.757812 C 274.84375 357.8125 251.398438 387.746094 251.335938 387.839844 C 246.832031 394.160156 246.152344 403.328125 248.558594 410.042969 C 250.601562 415.75 256.890625 423.476562 263.414062 426.320312 C 302.863281 443.507812 326.964844 419.945312 353.9375 396.800781 Z M 453.011719 236.9375 C 448.886719 241.066406 442.195312 241.066406 438.066406 236.9375 C 433.945312 232.8125 433.945312 226.121094 438.066406 221.996094 L 516.683594 143.382812 C 520.808594 139.257812 527.5 139.257812 531.628906 143.382812 C 535.753906 147.507812 535.753906 154.199219 531.628906 158.328125 Z M 330.105469 221.996094 C 334.234375 226.121094 334.234375 232.8125 330.105469 236.9375 C 325.984375 241.066406 319.289062 241.066406 315.164062 236.9375 L 236.550781 158.328125 C 232.421875 154.199219 232.421875 147.507812 236.550781 143.382812 C 240.671875 139.257812 247.367188 139.257812 251.492188 143.382812 Z M 330.105469 221.996094 " fill-opacity="1" fill-rule="evenodd"/></g></svg>