<svg xmlns="http://www.w3.org/2000/svg" xmlns:xlink="http://www.w3.org/1999/xlink" width="1024" zoomAndPan="magnify" viewBox="0 0 768 767.999994" height="1024" preserveAspectRatio="xMidYMid meet" version="1.0"><path fill="#ffde59" d="M 753.597656 344.746094 L 622.195312 145.183594 C 619.597656 141.242188 614.222656 140.296875 610.433594 143.113281 L 580.820312 165.148438 C 577.328125 167.746094 576.46875 172.621094 578.867188 176.257812 L 710.894531 376.496094 C 713.539062 380.503906 719.039062 381.398438 722.816406 378.441406 L 751.804688 355.726562 C 755.167969 353.089844 755.949219 348.316406 753.597656 344.746094 Z M 753.597656 344.746094 " fill-opacity="1" fill-rule="nonzero"/><path fill="#ffde59" d="M 474.5625 207.117188 C 473.859375 206.882812 437.304688 192.480469 404.351562 203.90625 C 370.613281 215.492188 348.855469 221.363281 333.042969 225.667969 C 313.550781 230.910156 303.769531 233.492188 291.714844 241.632812 C 281.226562 248.601562 274.179688 259.792969 265.179688 273.882812 C 257.820312 285.546875 249.445312 298.695312 237.078125 313.019531 C 238.800781 314.429688 241.460938 316.308594 245.140625 318.1875 C 266.507812 329.378906 293.59375 326.71875 314.257812 311.613281 C 322.632812 305.429688 331.164062 297.757812 339.617188 288.753906 C 341.964844 285.625 354.566406 270.441406 373.273438 276.464844 C 380.164062 278.738281 395.113281 279.128906 414.289062 277.484375 C 421.648438 276.859375 429.164062 278.738281 435.425781 282.804688 L 615.296875 401 C 619.367188 403.660156 623.046875 406.714844 626.335938 410 C 652.554688 402.800781 679.089844 379.632812 689.109375 370.160156 L 582.972656 209.152344 C 566.925781 212.988281 517.378906 222.457031 474.5625 207.117188 Z M 474.5625 207.117188 " fill-opacity="1" fill-rule="nonzero"/><path fill="#ffde59" d="M 327.328125 540.40625 C 319.96875 540.40625 312.691406 543.695312 307.757812 549.878906 L 281.617188 583.925781 C 272.847656 595.433594 275.746094 612.183594 288.269531 620.011719 C 299.226562 626.820312 313.785156 623.375 321.613281 613.203125 L 346.269531 581.1875 C 354.488281 570.464844 353.550781 554.652344 343.0625 546.042969 C 338.441406 542.207031 332.886719 540.40625 327.328125 540.40625 Z M 327.328125 540.40625 " fill-opacity="1" fill-rule="nonzero"/><path fill="#ffde59" d="M 296.253906 540.796875 L 308.152344 525.378906 C 311.988281 520.367188 314.492188 514.261719 314.414062 508 C 314.414062 499.390625 310.5 491.5625 303.847656 486.476562 C 299.070312 482.796875 293.277344 480.839844 287.332031 480.839844 C 286.15625 480.839844 284.980469 480.917969 283.730469 481.074219 C 276.605469 482.015625 270.1875 485.691406 265.804688 491.40625 L 216.960938 554.808594 C 212.578125 560.523438 210.699219 567.644531 211.640625 574.847656 C 212.578125 582.046875 216.257812 588.386719 221.972656 592.851562 C 228.625 597.9375 237.234375 599.738281 245.53125 597.546875 C 251.636719 595.980469 256.882812 591.988281 260.71875 586.980469 L 269.796875 575.160156 C 269.875 575.082031 269.953125 574.925781 270.03125 574.847656 L 296.019531 541.03125 C 296.097656 540.953125 296.175781 540.875 296.253906 540.796875 Z M 296.253906 540.796875 " fill-opacity="1" fill-rule="nonzero"/><path fill="#ffde59" d="M 254.140625 482.40625 L 261.109375 473.402344 C 270.1875 461.585938 269.09375 444.363281 257.585938 434.894531 C 252.578125 430.746094 246.472656 428.710938 240.367188 428.710938 C 232.226562 428.710938 224.164062 432.308594 218.839844 439.277344 L 159.429688 516.53125 C 150.898438 527.648438 151.601562 545.257812 162.171875 554.496094 C 169.761719 561.226562 180.328125 563.183594 190.191406 559.347656 C 194.890625 557.546875 198.878906 554.183594 202.011719 550.191406 L 205.378906 545.886719 L 205.378906 545.808594 L 254.140625 482.484375 Z M 254.140625 482.40625 " fill-opacity="1" fill-rule="nonzero"/><path fill="#ffde59" d="M 192.539062 449.296875 C 196.375 444.285156 198.878906 438.179688 198.878906 431.917969 C 198.800781 423.308594 194.890625 415.480469 188.234375 410.394531 C 183.460938 406.714844 177.667969 404.757812 171.71875 404.757812 C 170.703125 404.757812 169.605469 404.835938 168.511719 404.914062 C 160.839844 405.855469 154.109375 410.238281 149.410156 416.34375 C 141.191406 426.988281 123.503906 449.921875 113.015625 463.621094 C 104.480469 474.734375 105.265625 492.269531 115.753906 501.503906 C 123.425781 508.234375 133.914062 510.191406 143.777344 506.4375 C 148.472656 504.636719 152.464844 501.347656 155.59375 497.355469 C 163.5 487.023438 184.242188 460.097656 192.539062 449.296875 Z M 192.539062 449.296875 " fill-opacity="1" fill-rule="nonzero"/><path fill="#ffde59" d="M 607.234375 413.210938 L 427.363281 295.09375 C 423.839844 292.824219 419.613281 291.730469 415.542969 292.121094 C 400.4375 293.375 380.007812 294.15625 368.734375 290.476562 C 358.636719 287.191406 351.359375 297.523438 351.28125 297.601562 C 351.125 297.914062 350.890625 298.226562 350.652344 298.460938 C 341.496094 308.246094 332.179688 316.621094 322.945312 323.429688 C 297.820312 341.902344 264.628906 344.957031 238.332031 331.257812 C 233.242188 328.597656 228.9375 325.621094 225.570312 322.492188 C 220.484375 317.71875 220.171875 309.96875 224.789062 304.722656 C 237.078125 290.710938 245.453125 277.5625 252.8125 265.976562 C 261.65625 252.046875 269.40625 239.992188 280.910156 231.300781 C 242.714844 225.667969 203.890625 208.445312 189.332031 201.480469 L 77.867188 370.472656 C 84.679688 381.277344 104.796875 412.117188 122.25 427.535156 L 137.515625 407.652344 C 151.367188 389.730469 177.121094 384.640625 195.671875 397.554688 C 204.828125 403.976562 210.855469 413.523438 212.8125 424.40625 C 227.527344 411.488281 249.757812 410.316406 265.882812 422.683594 C 274.726562 429.492188 280.363281 439.355469 281.851562 450.46875 C 282.554688 455.949219 282.164062 461.429688 280.753906 466.671875 C 281.144531 466.59375 281.539062 466.515625 281.851562 466.515625 C 292.964844 465.027344 303.925781 468.003906 312.769531 474.8125 C 321.613281 481.621094 327.328125 491.484375 328.738281 502.523438 C 329.832031 510.585938 328.503906 518.644531 325.136719 525.769531 C 337.816406 525.066406 350.890625 530.308594 359.65625 542.441406 C 369.910156 556.453125 368.96875 575.707031 358.402344 589.484375 L 358.011719 590.03125 L 399.183594 616.175781 C 405.132812 619.933594 420.472656 628.230469 434.640625 624.863281 C 441.84375 623.140625 447.480469 618.679688 452.019531 611.167969 C 455.855469 604.824219 454.523438 596.921875 451.863281 591.050781 C 450.21875 587.449219 447.558594 584.398438 444.191406 582.28125 L 377.34375 539.78125 C 373.980469 537.667969 372.960938 533.128906 375.074219 529.683594 C 377.265625 526.238281 381.808594 525.222656 385.25 527.414062 L 459.375 574.535156 C 465.324219 578.292969 480.667969 586.667969 494.835938 583.222656 C 502.035156 581.5 507.75 577.039062 512.210938 569.523438 C 519.726562 557.078125 514.324219 544.476562 511.664062 539.625 C 508.0625 533.128906 502.582031 528.742188 494.367188 523.34375 L 420.003906 474.65625 C 416.5625 472.464844 415.621094 467.925781 417.890625 464.480469 C 420.082031 461.113281 424.621094 460.175781 427.988281 462.367188 L 502.425781 511.054688 L 502.503906 511.054688 L 524.65625 525.613281 C 536.164062 533.988281 548.21875 537.511719 558.003906 535.554688 C 565.828125 533.988281 572.324219 528.898438 577.414062 520.523438 C 582.578125 511.914062 582.265625 502.289062 576.554688 491.957031 C 572.796875 485.144531 566.925781 478.882812 559.488281 474.03125 C 559.253906 473.875 559.175781 473.71875 559.019531 473.558594 L 449.828125 402.175781 C 446.460938 399.984375 445.523438 395.363281 447.714844 392 C 449.984375 388.632812 454.523438 387.695312 457.890625 389.886719 L 572.402344 464.792969 C 583.910156 473.246094 595.964844 476.769531 605.828125 474.734375 C 613.65625 473.167969 620.152344 468.160156 625.160156 459.707031 C 630.328125 451.097656 630.09375 441.546875 624.378906 431.136719 C 620.621094 424.328125 614.671875 418.144531 607.234375 413.210938 Z M 607.234375 413.210938 " fill-opacity="1" fill-rule="nonzero"/><path fill="#ffde59" d="M 186.921875 164.867188 L 159.144531 142.652344 C 155.382812 139.644531 149.855469 140.503906 147.183594 144.511719 L 13.679688 344.804688 C 11.296875 348.378906 12.074219 353.183594 15.457031 355.828125 L 44.398438 378.453125 C 48.175781 381.410156 53.671875 380.507812 56.3125 376.503906 L 188.652344 175.800781 C 190.988281 172.257812 190.238281 167.515625 186.921875 164.867188 Z M 186.921875 164.867188 " fill-opacity="1" fill-rule="nonzero"/></svg>