<svg xmlns="http://www.w3.org/2000/svg" xmlns:xlink="http://www.w3.org/1999/xlink" width="1024" zoomAndPan="magnify" viewBox="0 0 768 767.999994" height="1024" preserveAspectRatio="xMidYMid meet" version="1.0"><defs><clipPath id="f9cefe5529"><path d="M 15 15.046875 L 753 15.046875 L 753 684 L 15 684 Z M 15 15.046875 " clip-rule="nonzero"/></clipPath></defs><path fill="#003225" d="M 553.871094 699.136719 C 553.871094 685.300781 538.496094 673.003906 512.363281 663.78125 C 498.527344 696.0625 435.5 706.824219 381.695312 706.824219 C 327.890625 706.824219 264.859375 694.523438 251.023438 663.78125 C 224.890625 673.003906 211.054688 685.300781 211.054688 699.136719 C 211.054688 728.34375 287.917969 752.941406 381.695312 752.941406 C 477.003906 752.941406 553.871094 728.34375 553.871094 699.136719 Z M 553.871094 699.136719 " fill-opacity="1" fill-rule="nonzero"/><g clip-path="url(#f9cefe5529)"><path fill="#003225" d="M 121.894531 508.515625 C 200.292969 508.515625 235.652344 447.023438 227.964844 431.648438 L 134.191406 221.042969 C 191.070312 245.640625 292.53125 219.503906 357.097656 173.386719 C 357.097656 173.386719 358.632812 173.386719 358.632812 173.386719 L 358.632812 614.585938 C 309.441406 617.660156 271.011719 631.496094 271.011719 648.40625 C 271.011719 668.390625 320.203125 683.765625 381.695312 683.765625 C 443.183594 683.765625 492.378906 668.390625 492.378906 648.40625 C 492.378906 631.496094 455.484375 617.660156 404.753906 614.585938 L 404.753906 173.386719 C 404.753906 173.386719 404.753906 173.386719 406.289062 173.386719 C 470.855469 219.503906 572.316406 245.640625 629.195312 221.042969 L 538.496094 430.113281 C 532.347656 445.484375 566.167969 506.976562 646.105469 506.976562 C 724.507812 506.976562 758.328125 445.484375 752.179688 430.113281 L 652.253906 205.667969 C 652.253906 202.59375 647.644531 199.519531 643.03125 201.058594 C 560.019531 241.027344 512.363281 150.328125 406.289062 122.65625 L 406.289062 101.136719 C 420.125 93.449219 429.351562 78.074219 429.351562 61.164062 C 429.351562 35.03125 407.828125 15.046875 383.230469 15.046875 C 358.632812 15.046875 337.113281 36.570312 337.113281 61.164062 C 337.113281 78.074219 346.335938 93.449219 360.171875 101.136719 L 360.171875 122.65625 C 321.738281 131.878906 271.011719 161.089844 238.726562 184.148438 C 187.996094 219.503906 148.027344 211.820312 124.96875 201.058594 C 120.355469 199.519531 117.28125 202.59375 115.746094 205.667969 L 15.820312 431.648438 C 9.671875 447.023438 43.492188 508.515625 121.894531 508.515625 Z M 730.65625 423.964844 L 652.253906 423.964844 L 652.253906 245.640625 Z M 636.882812 423.964844 L 558.480469 423.964844 L 636.882812 245.640625 Z M 207.980469 423.964844 L 129.578125 423.964844 L 128.042969 245.640625 Z M 112.667969 245.640625 L 114.207031 423.964844 L 35.804688 423.964844 Z M 112.667969 245.640625 " fill-opacity="1" fill-rule="nonzero"/></g></svg>