<svg xmlns="http://www.w3.org/2000/svg" xmlns:xlink="http://www.w3.org/1999/xlink" width="1024" zoomAndPan="magnify" viewBox="0 0 768 767.999994" height="1024" preserveAspectRatio="xMidYMid meet" version="1.0"><defs><clipPath id="dba321313e"><path d="M 10.183594 498 L 84 498 L 84 720 L 10.183594 720 Z M 10.183594 498 " clip-rule="nonzero"/></clipPath><clipPath id="888ee12ab3"><path d="M 107 479 L 757.933594 479 L 757.933594 767.101562 L 107 767.101562 Z M 107 479 " clip-rule="nonzero"/></clipPath><clipPath id="b78ca06602"><path d="M 241 0.601562 L 626 0.601562 L 626 420 L 241 420 Z M 241 0.601562 " clip-rule="nonzero"/></clipPath></defs><g clip-path="url(#dba321313e)"><path fill="#ffffff" d="M 10.183594 498.4375 L 83.765625 498.4375 L 83.765625 719.820312 L 10.183594 719.820312 Z M 10.183594 498.4375 " fill-opacity="1" fill-rule="nonzero"/></g><g clip-path="url(#888ee12ab3)"><path fill="#ffffff" d="M 749.1875 486.148438 C 739.769531 477.6875 726.042969 476.890625 715.828125 484.074219 L 544.085938 605.539062 C 533.710938 615.273438 519.824219 621.179688 504.660156 621.179688 L 307.699219 621.179688 C 300.996094 621.179688 295.570312 615.753906 295.570312 609.046875 C 295.570312 602.34375 300.996094 596.917969 307.699219 596.917969 L 500.671875 596.917969 C 509.449219 596.917969 517.75 594.203125 524.933594 589.257812 L 528.445312 586.863281 C 534.351562 580.796875 537.859375 572.65625 537.859375 563.558594 C 537.859375 545.203125 522.859375 530.199219 504.503906 530.199219 L 348.878906 530.199219 C 337.707031 530.199219 327.015625 527.007812 317.597656 520.941406 L 309.296875 515.515625 C 270.191406 490.296875 221.351562 486.148438 178.574219 504.503906 L 107.867188 535.148438 L 107.867188 680.714844 L 125.105469 680.714844 C 126.542969 680.714844 128.136719 681.035156 129.574219 681.511719 C 131.332031 682.308594 311.691406 752.859375 382.398438 764.511719 C 451.988281 776.003906 519.027344 748.390625 593.246094 677.683594 C 646.398438 627.085938 714.230469 560.046875 749.984375 524.613281 C 755.253906 519.347656 757.964844 512.484375 757.804688 505.140625 C 757.644531 497.800781 754.613281 491.097656 749.1875 486.148438 Z M 749.1875 486.148438 " fill-opacity="1" fill-rule="nonzero"/></g><g clip-path="url(#b78ca06602)"><path fill="#ffffff" d="M 275.617188 274.820312 C 308.5 350.636719 378.726562 395.328125 433.632812 419.910156 C 488.539062 395.328125 558.769531 350.636719 591.648438 274.820312 C 612.878906 225.820312 619.902344 160.0625 622.136719 138.355469 C 624.53125 115.847656 625.648438 93.183594 625.488281 70.519531 C 596.121094 68.921875 567.230469 63.65625 539.296875 54.878906 C 501.148438 43.066406 465.714844 24.871094 433.632812 0.929688 C 401.550781 24.871094 366.117188 43.066406 328.132812 55.035156 C 300.199219 63.816406 271.308594 69.082031 241.941406 70.679688 C 241.78125 93.183594 242.898438 116.007812 245.292969 138.355469 C 247.527344 160.0625 254.390625 225.820312 275.617188 274.820312 Z M 322.863281 184.480469 C 327.8125 180.011719 335.472656 180.492188 339.941406 185.4375 L 396.925781 248.804688 L 527.328125 103.878906 C 531.796875 98.929688 539.457031 98.449219 544.40625 102.921875 C 549.351562 107.390625 549.832031 115.050781 545.363281 120 L 406.023438 274.820312 C 403.789062 277.375 400.433594 278.8125 397.082031 278.8125 C 393.730469 278.8125 390.378906 277.375 388.144531 274.820312 L 322.066406 201.402344 C 317.597656 196.613281 317.917969 188.949219 322.863281 184.480469 Z M 322.863281 184.480469 " fill-opacity="1" fill-rule="nonzero"/></g></svg>