<svg xmlns="http://www.w3.org/2000/svg" xmlns:xlink="http://www.w3.org/1999/xlink" width="1024" zoomAndPan="magnify" viewBox="0 0 768 767.999994" height="1024" preserveAspectRatio="xMidYMid meet" version="1.0"><defs><clipPath id="0c0239d0a0"><path d="M 179 9.738281 L 254 9.738281 L 254 175 L 179 175 Z M 179 9.738281 " clip-rule="nonzero"/></clipPath><clipPath id="f361be9a39"><path d="M 24 105 L 747 105 L 747 758.238281 L 24 758.238281 Z M 24 105 " clip-rule="nonzero"/></clipPath><clipPath id="54883801f5"><path d="M 517 9.738281 L 592 9.738281 L 592 175 L 517 175 Z M 517 9.738281 " clip-rule="nonzero"/></clipPath></defs><path fill="#ffffff" d="M 249.242188 391.464844 L 197.210938 391.464844 C 185.65625 391.464844 176.289062 400.832031 176.289062 412.382812 L 176.289062 464.417969 C 176.289062 475.972656 185.65625 485.335938 197.210938 485.335938 L 249.242188 485.335938 C 260.796875 485.335938 270.164062 475.972656 270.164062 464.417969 L 270.164062 412.382812 C 270.164062 400.832031 260.796875 391.464844 249.242188 391.464844 Z M 249.242188 391.464844 " fill-opacity="1" fill-rule="nonzero"/><path fill="#ffffff" d="M 249.242188 541.648438 L 197.210938 541.648438 C 185.65625 541.648438 176.289062 551.015625 176.289062 562.570312 L 176.289062 614.601562 C 176.289062 626.15625 185.65625 635.519531 197.210938 635.519531 L 249.242188 635.519531 C 260.796875 635.519531 270.164062 626.15625 270.164062 614.601562 L 270.164062 562.570312 C 270.164062 550.996094 260.796875 541.648438 249.242188 541.648438 Z M 249.242188 541.648438 " fill-opacity="1" fill-rule="nonzero"/><path fill="#ffffff" d="M 411.347656 391.464844 L 359.3125 391.464844 C 347.761719 391.464844 338.394531 400.832031 338.394531 412.382812 L 338.394531 464.417969 C 338.394531 475.972656 347.761719 485.335938 359.3125 485.335938 L 411.347656 485.335938 C 422.902344 485.335938 432.265625 475.972656 432.265625 464.417969 L 432.265625 412.382812 C 432.265625 400.832031 422.902344 391.464844 411.347656 391.464844 Z M 411.347656 391.464844 " fill-opacity="1" fill-rule="nonzero"/><path fill="#ffffff" d="M 411.347656 541.648438 L 359.3125 541.648438 C 347.761719 541.648438 338.394531 551.015625 338.394531 562.570312 L 338.394531 614.601562 C 338.394531 626.15625 347.761719 635.519531 359.3125 635.519531 L 411.347656 635.519531 C 422.902344 635.519531 432.265625 626.15625 432.265625 614.601562 L 432.265625 562.570312 C 432.265625 550.996094 422.902344 541.648438 411.347656 541.648438 Z M 411.347656 541.648438 " fill-opacity="1" fill-rule="nonzero"/><path fill="#ffffff" d="M 573.449219 391.464844 L 521.417969 391.464844 C 509.863281 391.464844 500.496094 400.832031 500.496094 412.382812 L 500.496094 464.417969 C 500.496094 475.972656 509.863281 485.335938 521.417969 485.335938 L 573.449219 485.335938 C 585.003906 485.335938 594.371094 475.972656 594.371094 464.417969 L 594.371094 412.382812 C 594.371094 400.832031 585.003906 391.464844 573.449219 391.464844 Z M 573.449219 391.464844 " fill-opacity="1" fill-rule="nonzero"/><path fill="#ffffff" d="M 573.449219 541.648438 L 521.417969 541.648438 C 509.863281 541.648438 500.496094 551.015625 500.496094 562.570312 L 500.496094 614.601562 C 500.496094 626.15625 509.863281 635.519531 521.417969 635.519531 L 573.449219 635.519531 C 585.003906 635.519531 594.371094 626.15625 594.371094 614.601562 L 594.371094 562.570312 C 594.371094 550.996094 585.003906 541.648438 573.449219 541.648438 Z M 573.449219 541.648438 " fill-opacity="1" fill-rule="nonzero"/><g clip-path="url(#0c0239d0a0)"><path fill="#ffffff" d="M 216.289062 174.007812 C 236.769531 174.007812 253.351562 157.40625 253.351562 136.945312 L 253.351562 46.125 C 253.351562 25.648438 236.75 9.066406 216.289062 9.066406 C 195.828125 9.066406 179.226562 25.667969 179.226562 46.125 L 179.226562 136.945312 C 179.226562 157.40625 195.808594 174.007812 216.289062 174.007812 Z M 216.289062 174.007812 " fill-opacity="1" fill-rule="nonzero"/></g><g clip-path="url(#f361be9a39)"><path fill="#ffffff" d="M 636.863281 105.164062 L 612.257812 105.164062 L 612.257812 136.945312 C 612.257812 168.863281 586.308594 194.8125 554.390625 194.8125 C 522.472656 194.8125 496.523438 168.847656 496.523438 136.945312 L 496.523438 105.164062 L 274.15625 105.164062 L 274.15625 136.945312 C 274.15625 168.863281 248.207031 194.8125 216.289062 194.8125 C 184.371094 194.8125 158.421875 168.847656 158.421875 136.945312 L 158.421875 105.164062 L 133.796875 105.164062 C 73.320312 105.164062 24.128906 154.355469 24.128906 214.851562 L 24.128906 648.496094 C 24.128906 708.972656 73.320312 758.183594 133.796875 758.183594 L 636.84375 758.183594 C 697.320312 758.183594 746.53125 708.992188 746.53125 648.496094 L 746.53125 214.832031 C 746.550781 154.355469 697.339844 105.164062 636.863281 105.164062 Z M 683.195312 648.496094 C 683.195312 674.078125 662.445312 694.828125 636.863281 694.828125 L 133.816406 694.828125 C 108.234375 694.828125 87.484375 674.078125 87.484375 648.496094 L 87.484375 353.882812 C 87.484375 341.890625 97.214844 332.160156 109.210938 332.160156 L 661.488281 332.160156 C 673.484375 332.160156 683.214844 341.890625 683.214844 353.882812 L 683.214844 648.496094 Z M 683.195312 648.496094 " fill-opacity="1" fill-rule="nonzero"/></g><g clip-path="url(#54883801f5)"><path fill="#ffffff" d="M 554.371094 174.007812 C 574.851562 174.007812 591.433594 157.40625 591.433594 136.945312 L 591.433594 46.125 C 591.433594 25.648438 574.832031 9.066406 554.371094 9.066406 C 533.914062 9.066406 517.308594 25.667969 517.308594 46.125 L 517.308594 136.945312 C 517.308594 157.40625 533.914062 174.007812 554.371094 174.007812 Z M 554.371094 174.007812 " fill-opacity="1" fill-rule="nonzero"/></g></svg>