<svg xmlns="http://www.w3.org/2000/svg" xmlns:xlink="http://www.w3.org/1999/xlink" width="1024" zoomAndPan="magnify" viewBox="0 0 768 767.999994" height="1024" preserveAspectRatio="xMidYMid meet" version="1.0"><defs><clipPath id="589c28fe6e"><path d="M 67 22.023438 L 701 22.023438 L 701 745.773438 L 67 745.773438 Z M 67 22.023438 " clip-rule="nonzero"/></clipPath></defs><g clip-path="url(#589c28fe6e)"><path fill="#ffde59" d="M 84.222656 329.84375 C 74.847656 329.84375 67.238281 322.234375 67.238281 312.859375 C 67.238281 303.484375 74.847656 295.90625 84.222656 295.90625 L 200.679688 295.90625 C 210.058594 295.90625 217.632812 303.515625 217.632812 312.859375 C 217.632812 322.234375 210.023438 329.84375 200.679688 329.84375 Z M 84.222656 204.386719 C 74.847656 204.386719 67.238281 196.777344 67.238281 187.398438 C 67.238281 178.023438 74.847656 170.414062 84.222656 170.414062 L 286.496094 170.414062 C 295.871094 170.414062 303.480469 178.023438 303.480469 187.398438 C 303.480469 196.777344 295.871094 204.386719 286.496094 204.386719 Z M 84.222656 78.925781 C 74.847656 78.925781 67.238281 71.316406 67.238281 61.941406 C 67.238281 52.5625 74.847656 44.953125 84.222656 44.953125 L 372.34375 44.953125 C 381.71875 44.953125 389.328125 52.5625 389.328125 61.941406 C 389.328125 71.316406 381.71875 78.925781 372.34375 78.925781 Z M 222.523438 423.777344 L 491.652344 30.378906 C 494.609375 25.386719 500.042969 22.054688 506.261719 22.054688 C 515.636719 22.054688 523.214844 29.667969 523.214844 39.042969 L 523.214844 317.851562 L 683.9375 317.886719 C 687.230469 317.886719 690.5625 318.839844 693.484375 320.84375 C 701.195312 326.140625 703.199219 336.640625 697.933594 344.386719 L 428.804688 737.785156 C 425.847656 742.777344 420.414062 746.109375 414.195312 746.109375 C 404.820312 746.109375 397.210938 738.496094 397.210938 729.121094 L 397.210938 450.3125 L 236.523438 450.277344 C 233.226562 450.277344 229.898438 449.324219 226.976562 447.320312 C 219.265625 442.023438 217.257812 431.523438 222.523438 423.777344 Z M 222.523438 423.777344 " fill-opacity="1" fill-rule="evenodd"/></g></svg>