<svg xmlns="http://www.w3.org/2000/svg" xmlns:xlink="http://www.w3.org/1999/xlink" width="1024" zoomAndPan="magnify" viewBox="0 0 768 767.999994" height="1024" preserveAspectRatio="xMidYMid meet" version="1.0"><defs><clipPath id="b29c6b6e54"><path d="M 35.859375 35.859375 L 731.859375 35.859375 L 731.859375 731.859375 L 35.859375 731.859375 Z M 35.859375 35.859375 " clip-rule="nonzero"/></clipPath></defs><g clip-path="url(#b29c6b6e54)"><path fill="#003225" d="M 293.3125 721.238281 L 293.3125 664.847656 C 293.3125 658.832031 288.4375 653.957031 282.421875 653.957031 L 236.917969 653.957031 L 236.917969 320.800781 L 246.269531 320.800781 C 252.28125 320.800781 257.15625 315.925781 257.15625 309.910156 L 257.15625 273.078125 L 480.1875 273.078125 L 480.1875 303.570312 L 476.238281 303.570312 C 470.222656 303.570312 465.347656 308.441406 465.347656 314.457031 C 465.347656 320.472656 470.222656 325.347656 476.238281 325.347656 L 480.1875 325.347656 L 480.1875 355.800781 L 352.578125 355.800781 C 346.566406 355.800781 341.691406 360.675781 341.691406 366.691406 L 341.691406 423.082031 C 341.691406 429.097656 346.5625 433.972656 352.578125 433.972656 L 629.539062 433.972656 C 635.550781 433.972656 640.429688 429.097656 640.429688 423.082031 L 640.429688 366.691406 C 640.429688 360.675781 635.554688 355.800781 629.539062 355.800781 L 501.96875 355.800781 L 501.96875 325.347656 L 505.917969 325.347656 C 511.933594 325.347656 516.808594 320.472656 516.808594 314.457031 C 516.808594 308.441406 511.933594 303.570312 505.917969 303.570312 L 501.96875 303.570312 L 501.96875 273.078125 L 693.023438 273.078125 C 699.039062 273.078125 703.914062 268.207031 703.914062 262.191406 L 703.914062 165.324219 C 703.914062 159.308594 699.039062 154.433594 693.023438 154.433594 L 648.089844 154.433594 L 222.390625 77.773438 C 220.832031 54.402344 201.335938 35.859375 177.578125 35.859375 C 152.824219 35.859375 132.6875 56.015625 132.6875 80.785156 C 132.6875 85.855469 133.542969 90.722656 135.101562 95.273438 L 41.6875 155.632812 C 41.589844 155.699219 41.5 155.773438 41.402344 155.839844 C 38.09375 157.707031 35.859375 161.25 35.859375 165.320312 L 35.859375 262.1875 C 35.859375 268.199219 40.734375 273.078125 46.75 273.078125 L 98.039062 273.078125 L 98.039062 309.90625 C 98.039062 315.921875 102.910156 320.796875 108.925781 320.796875 L 118.277344 320.796875 L 118.277344 653.953125 L 72.773438 653.953125 C 66.757812 653.953125 61.882812 658.828125 61.882812 664.84375 L 61.882812 721.238281 C 61.882812 727.25 66.757812 732.128906 72.773438 732.128906 L 282.429688 732.128906 C 288.441406 732.128906 293.316406 727.253906 293.316406 721.238281 Z M 618.648438 412.191406 L 363.464844 412.191406 L 363.464844 377.578125 L 618.648438 377.578125 Z M 235.378906 299.019531 L 119.8125 299.019531 L 119.8125 273.578125 L 235.378906 273.578125 Z M 140.050781 327.890625 L 202.554688 360.601562 L 140.050781 393.328125 Z M 215.140625 480.007812 L 215.140625 545.441406 L 152.640625 512.738281 Z M 140.050781 494.746094 L 140.050781 429.3125 L 202.550781 462.015625 Z M 215.140625 444.023438 L 152.640625 411.320312 L 215.140625 378.59375 Z M 140.050781 530.730469 L 202.550781 563.433594 L 140.050781 596.164062 Z M 215.140625 581.425781 L 215.140625 646.863281 L 152.636719 614.152344 Z M 215.140625 342.609375 L 173.464844 320.800781 L 215.140625 320.800781 Z M 166.6875 124.332031 L 166.6875 154.429688 L 83.679688 154.429688 L 146.941406 113.550781 C 152.425781 118.679688 159.179688 122.453125 166.6875 124.332031 Z M 647.125 176.210938 C 647.140625 176.210938 647.15625 176.210938 647.171875 176.210938 L 669.769531 176.210938 L 612.226562 245.1875 L 554.703125 176.210938 L 647.078125 176.210938 C 647.09375 176.210938 647.109375 176.210938 647.121094 176.210938 Z M 473.9375 251.296875 L 531.449219 182.328125 L 588.96875 251.296875 Z M 450.679688 245.1875 L 393.132812 176.210938 L 508.195312 176.210938 L 450.675781 245.1875 Z M 427.414062 251.296875 L 312.355469 251.296875 L 369.878906 182.328125 Z M 289.089844 245.1875 L 231.5625 176.210938 L 346.621094 176.210938 Z M 185.042969 176.210938 L 127.539062 245.1875 L 69.988281 176.210938 Z M 208.304688 182.320312 L 265.832031 251.300781 L 150.796875 251.300781 Z M 635.496094 251.296875 L 682.132812 195.390625 L 682.132812 251.296875 Z M 369.957031 154.429688 C 369.957031 154.429688 369.945312 154.429688 369.9375 154.429688 L 208.371094 154.429688 C 208.371094 154.429688 208.351562 154.429688 208.339844 154.429688 L 188.464844 154.429688 L 188.464844 124.335938 C 201.890625 120.984375 212.933594 111.578125 218.53125 99.210938 L 525.199219 154.433594 L 369.960938 154.433594 Z M 177.578125 57.640625 C 190.339844 57.640625 200.726562 68.023438 200.726562 80.789062 C 200.726562 93.554688 190.339844 103.898438 177.578125 103.898438 C 164.8125 103.898438 154.46875 93.53125 154.46875 80.789062 C 154.46875 68.046875 164.835938 57.640625 177.578125 57.640625 Z M 57.640625 195.402344 L 104.277344 251.296875 L 57.640625 251.296875 Z M 140.050781 632.148438 L 181.722656 653.957031 L 140.050781 653.957031 Z M 271.535156 710.351562 L 83.65625 710.351562 L 83.65625 675.738281 L 271.535156 675.738281 Z M 640.425781 721.238281 L 640.425781 462.015625 C 640.425781 456 635.550781 451.125 629.535156 451.125 L 352.578125 451.125 C 346.5625 451.125 341.6875 456 341.6875 462.015625 L 341.6875 721.238281 C 341.6875 727.253906 346.5625 732.128906 352.578125 732.128906 L 629.535156 732.128906 C 635.550781 732.128906 640.425781 727.257812 640.425781 721.238281 Z M 538.933594 710.351562 L 443.183594 710.351562 L 443.183594 627.902344 L 538.933594 627.902344 Z M 618.648438 710.351562 L 560.710938 710.351562 L 560.710938 617.011719 C 560.710938 610.996094 555.835938 606.121094 549.820312 606.121094 L 432.292969 606.121094 C 426.28125 606.121094 421.402344 610.996094 421.402344 617.011719 L 421.402344 710.351562 L 363.464844 710.351562 L 363.464844 472.902344 L 618.648438 472.902344 Z M 402.960938 577.941406 L 466.945312 577.941406 C 472.960938 577.941406 477.835938 573.070312 477.835938 567.054688 L 477.835938 503.105469 C 477.835938 497.089844 472.960938 492.214844 466.945312 492.214844 L 402.960938 492.214844 C 396.945312 492.214844 392.070312 497.085938 392.070312 503.105469 L 392.070312 567.054688 C 392.070312 573.066406 396.941406 577.941406 402.960938 577.941406 Z M 413.847656 513.992188 L 456.058594 513.992188 L 456.058594 556.164062 L 413.847656 556.164062 Z M 515.167969 577.941406 L 579.15625 577.941406 C 585.167969 577.941406 590.042969 573.070312 590.042969 567.054688 L 590.042969 503.105469 C 590.042969 497.089844 585.171875 492.214844 579.15625 492.214844 L 515.167969 492.214844 C 509.152344 492.214844 504.277344 497.085938 504.277344 503.105469 L 504.277344 567.054688 C 504.277344 573.066406 509.152344 577.941406 515.167969 577.941406 Z M 526.058594 513.992188 L 568.265625 513.992188 L 568.265625 556.164062 L 526.058594 556.164062 Z M 728.9375 469.539062 C 733.191406 473.789062 733.191406 480.6875 728.9375 484.941406 L 703.074219 510.804688 C 700.949219 512.929688 698.164062 513.992188 695.375 513.992188 C 692.589844 513.992188 689.804688 512.929688 687.675781 510.804688 L 661.8125 484.941406 C 657.558594 480.6875 657.558594 473.792969 661.8125 469.539062 C 666.066406 465.285156 672.960938 465.285156 677.210938 469.539062 L 684.488281 476.816406 L 684.488281 404.773438 C 684.488281 398.757812 689.363281 393.882812 695.378906 393.882812 C 701.394531 393.882812 706.269531 398.757812 706.269531 404.773438 L 706.269531 476.816406 L 713.542969 469.539062 C 717.796875 465.285156 724.691406 465.285156 728.941406 469.539062 Z M 300.214844 404.773438 L 300.214844 476.816406 L 307.488281 469.542969 C 311.738281 465.285156 318.632812 465.289062 322.886719 469.542969 C 327.140625 473.792969 327.140625 480.6875 322.886719 484.941406 L 297.023438 510.804688 C 294.980469 512.847656 292.210938 513.992188 289.324219 513.992188 C 286.4375 513.992188 283.667969 512.847656 281.625 510.804688 L 255.761719 484.941406 C 251.507812 480.6875 251.507812 473.792969 255.761719 469.539062 C 260.011719 465.285156 266.90625 465.285156 271.160156 469.539062 L 278.4375 476.816406 L 278.4375 404.773438 C 278.4375 398.757812 283.308594 393.882812 289.324219 393.882812 C 295.339844 393.882812 300.214844 398.757812 300.214844 404.773438 Z M 300.214844 404.773438 " fill-opacity="1" fill-rule="nonzero"/></g></svg>