<svg xmlns="http://www.w3.org/2000/svg" xmlns:xlink="http://www.w3.org/1999/xlink" width="1024" zoomAndPan="magnify" viewBox="0 0 768 767.999994" height="1024" preserveAspectRatio="xMidYMid meet" version="1.0"><defs><clipPath id="753c55f010"><path d="M 13.28125 55 L 755 55 L 755 712.738281 L 13.28125 712.738281 Z M 13.28125 55 " clip-rule="nonzero"/></clipPath></defs><g clip-path="url(#753c55f010)"><path fill="#ffffff" d="M 210.175781 577.984375 C 179.582031 577.984375 154.722656 553.113281 154.722656 522.53125 C 154.722656 491.953125 179.597656 467.09375 210.175781 467.09375 C 240.757812 467.09375 265.570312 491.964844 265.570312 522.53125 C 265.570312 553.097656 240.695312 577.984375 210.175781 577.984375 Z M 284.027344 522.53125 C 284.027344 481.785156 250.925781 448.617188 210.160156 448.617188 C 169.398438 448.617188 136.234375 481.769531 136.234375 522.53125 C 136.234375 563.292969 169.398438 596.445312 210.160156 596.445312 C 250.925781 596.445312 284.027344 563.292969 284.027344 522.53125 Z M 628.53125 464.507812 C 628.53125 469.617188 624.394531 473.738281 619.304688 473.738281 L 343.1875 473.738281 C 338.097656 473.738281 333.960938 469.601562 333.960938 464.507812 C 333.960938 459.417969 338.097656 455.28125 343.1875 455.28125 L 619.304688 455.28125 C 624.394531 455.28125 628.53125 459.417969 628.53125 464.507812 Z M 650.269531 419.898438 C 650.269531 425.007812 646.128906 429.128906 641.039062 429.128906 L 310.855469 429.128906 C 305.703125 429.128906 301.625 424.992188 301.625 419.898438 C 301.625 414.808594 305.703125 410.671875 310.855469 410.671875 L 641.039062 410.671875 C 646.128906 410.671875 650.269531 414.808594 650.269531 419.898438 Z M 126.941406 366.0625 L 641.039062 366.0625 C 646.128906 366.0625 650.269531 370.199219 650.269531 375.289062 C 650.269531 380.382812 646.128906 384.519531 641.039062 384.519531 L 126.941406 384.519531 C 121.851562 384.519531 117.714844 380.382812 117.714844 375.289062 C 117.714844 370.199219 121.851562 366.0625 126.941406 366.0625 Z M 337.234375 243.15625 C 333.589844 239.554688 333.589844 233.710938 337.234375 230.109375 C 340.820312 226.511719 346.648438 226.511719 350.296875 230.109375 L 373.847656 253.707031 L 417.746094 209.820312 C 421.332031 206.222656 427.160156 206.222656 430.808594 209.820312 C 434.390625 213.421875 434.390625 219.28125 430.808594 222.867188 L 380.367188 273.289062 C 378.675781 275.011719 376.292969 275.996094 373.832031 275.996094 C 371.371094 275.996094 369.0625 275.027344 367.292969 273.289062 L 337.203125 243.171875 Z M 306.640625 170.613281 L 306.640625 265.167969 C 306.640625 280.6875 313.730469 292.78125 327.683594 301.117188 L 384.027344 334.742188 L 440.3125 301.117188 C 454.25 292.78125 461.355469 280.6875 461.355469 265.167969 L 461.355469 170.613281 C 432.082031 169.703125 406.148438 162.335938 384.042969 148.628906 C 361.941406 162.335938 335.929688 169.703125 306.671875 170.613281 Z M 318.269531 316.960938 L 379.261719 353.417969 C 380.769531 354.292969 382.398438 354.722656 384.027344 354.722656 C 385.660156 354.722656 387.289062 354.292969 388.734375 353.417969 L 449.789062 316.960938 C 469.449219 305.222656 479.816406 287.320312 479.816406 265.167969 L 479.816406 161.445312 C 479.816406 158.96875 478.816406 156.597656 477.046875 154.875 C 475.292969 153.136719 472.910156 152.199219 470.449219 152.230469 C 438.789062 152.707031 411.472656 145.246094 389.226562 130.003906 C 386.089844 127.847656 381.9375 127.847656 378.800781 130.003906 C 356.496094 145.246094 329.175781 152.707031 297.578125 152.230469 C 295.132812 152.214844 292.6875 153.152344 290.917969 154.875 C 289.164062 156.613281 288.148438 158.984375 288.148438 161.445312 L 288.148438 265.167969 C 288.148438 287.320312 298.578125 305.222656 318.238281 316.960938 Z M 736.257812 540.621094 L 736.257812 99.390625 C 736.257812 85.148438 724.640625 73.546875 710.445312 73.546875 L 57.613281 73.546875 C 43.355469 73.546875 31.742188 85.148438 31.742188 99.390625 L 31.742188 540.621094 C 31.742188 554.867188 43.355469 566.464844 57.613281 566.464844 L 93.917969 566.464844 C 93.039062 564.742188 92.285156 562.957031 91.65625 561.050781 C 90.023438 556.15625 89.515625 551.25 89.964844 546.449219 L 61.011719 546.449219 C 55.921875 546.449219 51.785156 542.3125 51.785156 537.222656 L 51.785156 102.789062 C 51.785156 97.699219 55.921875 93.5625 61.011719 93.5625 L 707.058594 93.5625 C 712.152344 93.5625 716.289062 97.699219 716.289062 102.789062 L 716.289062 537.207031 C 716.289062 542.3125 712.152344 546.4375 707.058594 546.4375 L 330.328125 546.4375 C 330.835938 551.234375 330.265625 556.140625 328.699219 561.035156 C 328.066406 562.941406 327.253906 564.726562 326.375 566.449219 L 710.460938 566.449219 C 724.65625 566.449219 736.273438 554.851562 736.273438 540.605469 Z M 297.917969 645.515625 C 295.289062 644.5 292.335938 644.714844 289.933594 646.113281 C 287.488281 647.527344 285.796875 649.960938 285.414062 652.726562 L 281.890625 676.15625 L 254.878906 629.425781 C 265.046875 631.578125 274.921875 629.484375 283.398438 623.347656 C 288.289062 619.765625 292.058594 615.316406 294.582031 610.195312 L 319.960938 654.160156 Z M 223.542969 622.425781 C 232.28125 612.59375 245.15625 608.410156 258.03125 611.210938 L 258.601562 611.335938 C 263.753906 612.457031 268.277344 611.503906 272.539062 608.410156 C 276.8125 605.320312 279.136719 601.273438 279.628906 596.027344 L 279.691406 595.445312 C 281.011719 582.367188 288.917969 571.417969 300.980469 566.125 L 301.546875 565.894531 C 306.316406 563.773438 309.453125 560.3125 311.101562 555.3125 C 312.730469 550.3125 312.238281 545.667969 309.59375 541.128906 L 309.285156 540.621094 C 302.625 529.285156 302.625 515.730469 309.285156 504.378906 L 309.59375 503.886719 C 312.238281 499.351562 312.730469 494.703125 311.101562 489.707031 C 309.46875 484.691406 306.332031 481.230469 301.546875 479.121094 L 300.980469 478.90625 C 288.917969 473.628906 281.011719 462.664062 279.691406 449.585938 L 279.628906 449.003906 C 279.121094 443.789062 276.796875 439.726562 272.539062 436.636719 C 268.261719 433.542969 263.738281 432.574219 258.601562 433.699219 L 258.03125 433.820312 C 245.15625 436.621094 232.28125 432.4375 223.542969 422.621094 L 223.175781 422.207031 C 219.652344 418.269531 215.390625 416.363281 210.175781 416.363281 C 204.960938 416.363281 200.625 418.285156 197.117188 422.207031 L 196.746094 422.636719 C 188.011719 432.453125 175.136719 436.652344 162.261719 433.835938 L 161.691406 433.714844 C 156.601562 432.589844 152.015625 433.542969 147.753906 436.652344 C 143.476562 439.742188 141.15625 443.789062 140.664062 449.035156 L 140.601562 449.585938 C 139.277344 462.695312 131.371094 473.644531 119.3125 478.921875 L 118.804688 479.167969 C 113.976562 481.277344 110.820312 484.738281 109.191406 489.75 C 107.558594 494.75 108.050781 499.394531 110.699219 503.933594 L 111.007812 504.410156 C 117.667969 515.761719 117.667969 529.316406 111.007812 540.652344 L 110.699219 541.160156 C 108.050781 545.699219 107.558594 550.34375 109.191406 555.34375 C 110.820312 560.339844 113.960938 563.800781 118.804688 565.925781 L 119.3125 566.15625 C 131.371094 571.433594 139.277344 582.382812 140.601562 595.476562 L 140.664062 596.027344 C 141.171875 601.273438 143.492188 605.320312 147.753906 608.425781 C 152.03125 611.519531 156.613281 612.472656 161.769531 611.347656 L 162.335938 611.226562 C 164.90625 610.65625 167.550781 610.378906 170.183594 610.378906 C 180.226562 610.378906 189.839844 614.625 196.746094 622.425781 L 197.117188 622.855469 C 200.640625 626.777344 204.902344 628.699219 210.175781 628.699219 C 215.453125 628.699219 219.667969 626.792969 223.175781 622.855469 L 223.542969 622.441406 Z M 138.449219 676.15625 L 134.863281 652.726562 C 134.496094 649.960938 132.789062 647.527344 130.34375 646.113281 C 127.957031 644.714844 125.003906 644.5 122.359375 645.515625 L 100.316406 654.160156 L 125.695312 610.195312 C 128.203125 615.316406 131.972656 619.765625 136.878906 623.347656 C 145.355469 629.484375 155.214844 631.578125 165.398438 629.425781 Z M 70.226562 462.585938 C 80.148438 463.800781 89.640625 466.953125 98.300781 471.921875 C 95.410156 475.398438 93.148438 479.429688 91.640625 484.027344 C 88.378906 494.042969 89.441406 504.148438 94.777344 513.253906 L 95.023438 513.734375 C 97.730469 518.316406 98.222656 523.269531 96.59375 527.992188 L 70.210938 527.992188 L 70.210938 462.585938 Z M 70.226562 177.425781 L 70.226562 112.035156 L 135.617188 112.035156 C 131.480469 146.109375 104.34375 173.242188 70.226562 177.425781 Z M 697.816406 462.585938 L 697.816406 527.976562 L 632.363281 527.976562 C 636.578125 493.875 663.636719 466.769531 697.816406 462.585938 Z M 613.84375 112.019531 L 154.199219 112.019531 C 149.800781 156.261719 114.496094 191.625 70.226562 195.976562 L 70.226562 444.003906 C 86.242188 445.574219 101.4375 451.171875 114.699219 460.449219 C 119.035156 457.601562 121.667969 453.203125 122.234375 447.757812 L 122.296875 447.203125 C 123.296875 436.710938 128.386719 427.882812 136.925781 421.699219 C 145.402344 415.5 155.324219 413.425781 165.628906 415.667969 L 166.261719 415.792969 C 172.597656 417.191406 178.566406 415.253906 182.964844 410.347656 L 183.351562 409.917969 C 190.316406 402.054688 199.625 397.886719 210.175781 397.886719 C 220.730469 397.886719 229.957031 402.039062 236.925781 409.917969 L 237.371094 410.347656 C 241.710938 415.253906 247.679688 417.191406 254.078125 415.792969 L 254.648438 415.667969 C 264.953125 413.425781 274.875 415.5 283.414062 421.699219 C 291.886719 427.882812 296.980469 436.699219 298.042969 447.1875 L 298.042969 447.773438 C 298.734375 454.296875 302.378906 459.355469 308.410156 462 L 308.917969 462.21875 C 318.59375 466.460938 325.4375 473.984375 328.699219 484 C 331.898438 494.011719 330.835938 504.117188 325.5 513.210938 L 325.253906 513.703125 C 322.546875 518.285156 322.054688 523.222656 323.746094 527.945312 L 613.859375 527.945312 C 618.195312 483.675781 653.484375 448.34375 697.832031 443.988281 L 697.832031 195.945312 C 653.421875 191.59375 618.195312 156.292969 613.859375 111.988281 Z M 697.816406 177.425781 C 663.589844 173.242188 636.578125 146.136719 632.363281 112.019531 L 697.816406 112.019531 Z M 710.445312 55.089844 L 57.613281 55.089844 C 33.1875 55.089844 13.265625 74.964844 13.265625 99.390625 L 13.265625 540.621094 C 13.265625 565.046875 33.171875 584.921875 57.613281 584.921875 L 115.144531 584.921875 C 116.082031 585.585938 116.960938 586.308594 117.714844 587.121094 L 71.164062 667.757812 C 69.210938 671.15625 69.597656 675.417969 72.164062 678.386719 C 74.734375 681.355469 78.886719 682.402344 82.535156 680.96875 L 118.328125 666.925781 L 124.113281 704.96875 C 124.679688 708.84375 127.695312 711.933594 131.527344 712.660156 C 132.09375 712.765625 132.648438 712.828125 133.21875 712.828125 C 136.480469 712.828125 139.554688 711.089844 141.203125 708.210938 L 183.410156 635.175781 C 190.378906 643.007812 199.609375 647.144531 210.160156 647.144531 C 220.714844 647.144531 229.882812 643.007812 236.851562 635.175781 L 279.058594 708.210938 C 280.691406 711.089844 283.765625 712.828125 287.042969 712.828125 C 287.613281 712.828125 288.164062 712.765625 288.734375 712.660156 C 292.625 711.933594 295.582031 708.84375 296.148438 704.96875 L 301.933594 666.925781 L 337.726562 680.96875 C 341.433594 682.417969 345.574219 681.355469 348.097656 678.386719 C 350.664062 675.417969 351.050781 671.15625 349.09375 667.757812 L 302.546875 587.121094 C 303.300781 586.308594 304.179688 585.585938 305.117188 584.921875 L 710.429688 584.921875 C 734.855469 584.921875 754.714844 565.046875 754.714844 540.621094 L 754.714844 99.390625 C 754.714844 74.964844 734.871094 55.089844 710.429688 55.089844 Z M 710.445312 55.089844 " fill-opacity="1" fill-rule="evenodd"/></g></svg>