<svg xmlns="http://www.w3.org/2000/svg" xmlns:xlink="http://www.w3.org/1999/xlink" width="1024" zoomAndPan="magnify" viewBox="0 0 768 767.999994" height="1024" preserveAspectRatio="xMidYMid meet" version="1.0"><defs><clipPath id="8155faf795"><path d="M 14.019531 14.019531 L 754 14.019531 L 754 754 L 14.019531 754 Z M 14.019531 14.019531 " clip-rule="nonzero"/></clipPath></defs><g clip-path="url(#8155faf795)"><path fill="#ffffff" d="M 230.757812 16.5625 C 191.394531 18.414062 164.511719 24.722656 141.007812 33.929688 C 116.671875 43.414062 96.0625 56.105469 75.5625 76.710938 C 55.023438 97.320312 42.402344 117.960938 33.023438 142.332031 C 23.921875 165.90625 17.75 192.789062 16.007812 232.1875 C 14.261719 271.625 13.878906 284.210938 14.054688 384.703125 C 14.226562 485.15625 14.679688 497.777344 16.5625 537.25 C 18.449219 576.617188 24.722656 603.464844 33.929688 627 C 43.414062 651.339844 56.105469 671.910156 76.710938 692.449219 C 97.320312 712.984375 117.960938 725.574219 142.332031 734.988281 C 165.871094 744.085938 192.789062 750.292969 232.152344 752.003906 C 271.625 753.746094 284.210938 754.128906 384.667969 753.921875 C 485.15625 753.746094 497.746094 753.292969 537.214844 751.410156 C 576.582031 749.527344 603.429688 743.214844 626.964844 734.046875 C 651.304688 724.527344 671.910156 711.871094 692.414062 691.261719 C 712.914062 670.65625 725.539062 650.011719 734.953125 625.640625 C 744.054688 602.105469 750.257812 575.1875 751.96875 535.855469 C 753.675781 496.382812 754.09375 483.761719 753.921875 383.308594 C 753.746094 282.851562 753.257812 270.265625 751.410156 230.792969 C 749.527344 191.394531 743.25 164.542969 734.046875 141.007812 C 724.527344 116.671875 711.871094 96.097656 691.261719 75.5625 C 670.65625 55.058594 650.011719 42.402344 625.640625 33.023438 C 602.105469 23.921875 575.1875 17.714844 535.820312 16.007812 C 496.351562 14.261719 483.726562 13.878906 383.273438 14.054688 C 282.816406 14.226562 270.230469 14.679688 230.757812 16.5625 M 235.082031 685.371094 C 199.027344 683.800781 179.433594 677.804688 166.359375 672.78125 C 149.0625 666.085938 136.753906 658.066406 123.75 645.203125 C 110.777344 632.265625 102.757812 619.957031 95.992188 602.730469 C 90.9375 589.691406 84.835938 570.128906 83.128906 534.042969 C 81.28125 495.058594 80.859375 483.34375 80.6875 384.5625 C 80.511719 285.816406 80.859375 274.101562 82.570312 235.082031 C 84.105469 199.027344 90.136719 179.433594 95.15625 166.394531 C 101.851562 149.097656 109.835938 136.789062 122.738281 123.785156 C 135.675781 110.8125 147.980469 102.792969 165.242188 96.027344 C 178.28125 90.9375 197.84375 84.871094 233.898438 83.164062 C 272.914062 81.316406 284.59375 80.929688 383.378906 80.722656 C 482.160156 80.511719 493.875 80.859375 532.890625 82.605469 C 568.945312 84.171875 588.542969 90.136719 601.582031 95.191406 C 618.875 101.886719 631.21875 109.835938 644.191406 122.773438 C 657.160156 135.707031 665.214844 147.980469 671.945312 165.277344 C 677.035156 178.28125 683.101562 197.878906 684.8125 233.898438 C 686.660156 272.914062 687.078125 284.628906 687.253906 383.378906 C 687.425781 482.160156 687.078125 493.875 685.371094 532.855469 C 683.800781 568.910156 677.804688 588.539062 672.78125 601.582031 C 666.085938 618.839844 658.101562 631.183594 645.167969 644.15625 C 632.230469 657.089844 619.957031 665.144531 602.664062 671.910156 C 589.65625 677 570.0625 683.070312 534.042969 684.777344 C 495.023438 686.625 483.34375 687.042969 384.527344 687.21875 C 285.78125 687.390625 274.066406 687.042969 235.046875 685.335938 M 536.691406 186.234375 C 536.726562 210.746094 556.671875 230.585938 581.148438 230.515625 C 605.660156 230.480469 625.5 210.570312 625.464844 186.058594 C 625.429688 161.546875 605.488281 141.707031 580.972656 141.742188 C 556.460938 141.777344 536.621094 161.71875 536.65625 186.199219 M 194.007812 384.351562 C 194.21875 489.269531 279.433594 574.140625 384.320312 573.929688 C 489.238281 573.722656 574.140625 488.539062 573.929688 383.621094 C 573.722656 278.738281 488.503906 193.832031 383.585938 194.007812 C 278.703125 194.21875 193.800781 279.433594 194.007812 384.351562 M 260.640625 384.214844 C 260.535156 316.117188 315.628906 260.78125 383.726562 260.675781 C 451.824219 260.535156 507.160156 315.628906 507.296875 383.761719 C 507.4375 451.859375 452.3125 507.195312 384.214844 507.296875 C 316.117188 507.4375 260.78125 452.3125 260.675781 384.214844 " fill-opacity="1" fill-rule="nonzero"/></g></svg>