<svg xmlns="http://www.w3.org/2000/svg" xmlns:xlink="http://www.w3.org/1999/xlink" width="1024" zoomAndPan="magnify" viewBox="0 0 768 767.999994" height="1024" preserveAspectRatio="xMidYMid meet" version="1.0"><defs><clipPath id="09406c86d0"><path d="M 28.425781 28.425781 L 739.425781 28.425781 L 739.425781 739.425781 L 28.425781 739.425781 Z M 28.425781 28.425781 " clip-rule="nonzero"/></clipPath></defs><g clip-path="url(#09406c86d0)"><path fill="#ffffff" d="M 233.054688 534.765625 C 345.65625 647.367188 470.058594 704.75 558.375 733.480469 C 622.445312 754.3125 691.242188 718.761719 713.144531 655.046875 L 737.210938 584.898438 C 744.21875 564.492188 734.296875 542.164062 714.492188 533.664062 L 584.507812 477.953125 C 566.199219 470.09375 544.9375 474.183594 530.855469 488.296875 L 462.628906 556.527344 C 462.628906 556.527344 394.898438 529.113281 316.820312 451.039062 C 238.742188 372.960938 211.332031 305.195312 211.332031 305.195312 L 279.558594 236.964844 C 293.601562 222.886719 297.691406 201.660156 289.871094 183.351562 L 234.15625 53.328125 C 225.660156 33.523438 203.296875 23.605469 182.921875 30.609375 L 112.773438 54.679688 C 49.027344 76.582031 13.472656 145.34375 34.34375 209.445312 C 63.070312 297.761719 120.453125 422.132812 233.054688 534.765625 Z M 233.054688 534.765625 " fill-opacity="1" fill-rule="nonzero"/></g></svg>