<svg xmlns="http://www.w3.org/2000/svg" xmlns:xlink="http://www.w3.org/1999/xlink" width="1024" zoomAndPan="magnify" viewBox="0 0 768 767.999994" height="1024" preserveAspectRatio="xMidYMid meet" version="1.0"><defs><clipPath id="01cf1f1203"><path d="M 12.246094 11.316406 L 755.496094 11.316406 L 755.496094 756.816406 L 12.246094 756.816406 Z M 12.246094 11.316406 " clip-rule="nonzero"/></clipPath></defs><g clip-path="url(#01cf1f1203)"><path fill="#ffffff" d="M 351.507812 12.746094 C 555.984375 -5.144531 736.289062 146.566406 754.230469 351.601562 C 772.167969 556.632812 620.949219 737.351562 416.46875 755.238281 C 211.992188 773.128906 31.6875 621.417969 13.75 416.382812 C -4.191406 211.351562 147.03125 30.636719 351.507812 12.746094 Z M 314.414062 72.8125 C 143.058594 111.117188 35.296875 281.519531 73.71875 453.421875 C 112.144531 625.320312 282.203125 733.621094 453.558594 695.320312 C 624.914062 657.019531 732.675781 486.617188 694.253906 314.71875 C 655.832031 142.816406 485.769531 34.515625 314.414062 72.8125 Z M 314.414062 72.8125 " fill-opacity="1" fill-rule="nonzero"/></g><path fill="#ffffff" d="M 380.917969 85.605469 L 383.371094 85.632812 C 388.589844 85.699219 392.765625 89.980469 392.703125 95.199219 L 392.285156 129.382812 C 392.222656 134.601562 387.941406 138.777344 382.722656 138.714844 L 380.269531 138.683594 C 375.054688 138.621094 370.875 134.339844 370.9375 129.121094 L 371.355469 94.9375 C 371.421875 89.71875 375.703125 85.542969 380.917969 85.605469 Z M 380.917969 85.605469 " fill-opacity="1" fill-rule="nonzero"/><path fill="#ffffff" d="M 232.027344 132.242188 L 236.546875 129.40625 C 240.328125 127.035156 245.3125 128.175781 247.683594 131.953125 L 262.554688 155.660156 C 264.921875 159.441406 263.78125 164.425781 260.003906 166.796875 L 255.484375 169.632812 C 251.703125 172.003906 246.71875 170.863281 244.347656 167.082031 L 229.476562 143.378906 C 227.105469 139.597656 228.246094 134.613281 232.027344 132.242188 Z M 232.027344 132.242188 " fill-opacity="1" fill-rule="nonzero"/><path fill="#ffffff" d="M 530.78125 129.820312 L 532.605469 130.988281 C 537.160156 133.914062 538.484375 139.984375 535.558594 144.542969 L 522.078125 165.542969 C 519.152344 170.101562 513.082031 171.425781 508.523438 168.5 L 506.703125 167.328125 C 502.144531 164.402344 500.820312 158.332031 503.746094 153.773438 L 517.226562 132.773438 C 520.15625 128.214844 526.222656 126.894531 530.78125 129.820312 Z M 530.78125 129.820312 " fill-opacity="1" fill-rule="nonzero"/><path fill="#ffffff" d="M 373.3125 176.492188 C 373.316406 171.871094 377.03125 168.125 381.613281 168.121094 C 382.140625 168.121094 382.671875 168.171875 383.191406 168.273438 L 388.097656 169.210938 C 392.574219 170.046875 395.816406 173.925781 395.816406 178.441406 L 396.894531 351.828125 C 396.894531 353.769531 397.367188 355.675781 398.269531 357.382812 C 402.40625 365.265625 406.996094 371.277344 412.042969 375.410156 C 414.078125 377.066406 416.511719 378.183594 419.113281 378.65625 L 544.609375 402.242188 C 550.964844 403.414062 555.265625 409.398438 554.347656 415.796875 L 554.347656 416.015625 C 553.050781 421.75 547.414062 425.398438 541.652344 424.234375 L 418.609375 399.425781 C 416.054688 398.871094 413.375 399.308594 411.105469 400.652344 C 410.722656 400.847656 407.742188 402.816406 402.164062 406.566406 C 373.023438 426.183594 343.378906 393.152344 366.605469 366.25 C 370.933594 361.222656 373.308594 354.800781 373.3125 348.144531 Z M 373.3125 176.492188 " fill-opacity="1" fill-rule="nonzero"/><path fill="#ffffff" d="M 641.890625 234.773438 C 642.089844 235.121094 642.25 235.484375 642.378906 235.871094 C 642.503906 236.253906 642.597656 236.652344 642.65625 237.070312 C 642.714844 237.488281 642.738281 237.917969 642.726562 238.363281 C 642.714844 238.808594 642.667969 239.265625 642.585938 239.734375 C 642.503906 240.207031 642.386719 240.683594 642.234375 241.175781 C 642.085938 241.664062 641.898438 242.160156 641.679688 242.664062 C 641.460938 243.167969 641.210938 243.679688 640.925781 244.195312 C 640.640625 244.707031 640.324219 245.226562 639.976562 245.746094 C 639.628906 246.265625 639.253906 246.785156 638.84375 247.304688 C 638.4375 247.824219 638.003906 248.34375 637.539062 248.859375 C 637.078125 249.375 636.589844 249.882812 636.074219 250.390625 C 635.5625 250.894531 635.023438 251.394531 634.464844 251.882812 C 633.90625 252.375 633.324219 252.855469 632.722656 253.328125 C 632.125 253.800781 631.503906 254.257812 630.867188 254.707031 C 630.234375 255.15625 629.582031 255.589844 628.917969 256.007812 C 628.253906 256.425781 627.578125 256.832031 626.890625 257.21875 C 626.203125 257.605469 625.507812 257.972656 624.804688 258.324219 C 624.101562 258.675781 623.390625 259.007812 622.679688 259.320312 C 621.96875 259.632812 621.253906 259.921875 620.539062 260.191406 C 619.824219 260.464844 619.113281 260.710938 618.402344 260.933594 C 617.691406 261.160156 616.988281 261.359375 616.289062 261.539062 C 615.589844 261.714844 614.902344 261.871094 614.222656 261.996094 C 613.539062 262.125 612.871094 262.230469 612.21875 262.308594 C 611.5625 262.386719 610.921875 262.441406 610.296875 262.46875 C 609.671875 262.496094 609.066406 262.5 608.476562 262.476562 C 607.890625 262.453125 607.324219 262.40625 606.78125 262.332031 C 606.234375 262.257812 605.714844 262.15625 605.21875 262.035156 C 604.71875 261.910156 604.25 261.761719 603.804688 261.585938 C 603.363281 261.414062 602.945312 261.21875 602.558594 260.996094 C 602.171875 260.777344 601.816406 260.535156 601.488281 260.269531 C 601.164062 260.003906 600.867188 259.714844 600.605469 259.40625 C 600.34375 259.097656 600.113281 258.769531 599.917969 258.421875 C 599.722656 258.074219 599.558594 257.710938 599.433594 257.324219 C 599.304688 256.941406 599.210938 256.539062 599.152344 256.125 C 599.09375 255.707031 599.074219 255.277344 599.085938 254.832031 C 599.097656 254.386719 599.144531 253.929688 599.226562 253.457031 C 599.308594 252.988281 599.425781 252.511719 599.574219 252.019531 C 599.726562 251.53125 599.910156 251.035156 600.128906 250.53125 C 600.347656 250.027344 600.601562 249.515625 600.886719 249 C 601.171875 248.488281 601.484375 247.96875 601.832031 247.449219 C 602.179688 246.929688 602.558594 246.410156 602.964844 245.890625 C 603.371094 245.371094 603.808594 244.851562 604.269531 244.335938 C 604.730469 243.820312 605.21875 243.3125 605.734375 242.804688 C 606.246094 242.300781 606.785156 241.800781 607.34375 241.3125 C 607.90625 240.820312 608.484375 240.339844 609.085938 239.867188 C 609.6875 239.394531 610.304688 238.9375 610.941406 238.488281 C 611.578125 238.039062 612.226562 237.605469 612.894531 237.1875 C 613.558594 236.769531 614.234375 236.363281 614.921875 235.976562 C 615.609375 235.589844 616.304688 235.21875 617.007812 234.871094 C 617.710938 234.519531 618.417969 234.1875 619.128906 233.875 C 619.84375 233.5625 620.554688 233.269531 621.269531 233 C 621.984375 232.730469 622.699219 232.484375 623.40625 232.261719 C 624.117188 232.035156 624.820312 231.835938 625.519531 231.65625 C 626.21875 231.480469 626.910156 231.324219 627.589844 231.195312 C 628.269531 231.066406 628.9375 230.964844 629.59375 230.886719 C 630.25 230.808594 630.890625 230.753906 631.515625 230.726562 C 632.136719 230.699219 632.746094 230.695312 633.332031 230.71875 C 633.917969 230.742188 634.484375 230.789062 635.03125 230.863281 C 635.574219 230.9375 636.097656 231.039062 636.59375 231.160156 C 637.089844 231.285156 637.5625 231.433594 638.003906 231.609375 C 638.449219 231.78125 638.863281 231.976562 639.25 232.199219 C 639.636719 232.417969 639.996094 232.660156 640.320312 232.925781 C 640.648438 233.191406 640.941406 233.480469 641.203125 233.789062 C 641.46875 234.097656 641.695312 234.425781 641.890625 234.773438 Z M 641.890625 234.773438 " fill-opacity="1" fill-rule="nonzero"/><path fill="#ffffff" d="M 141.964844 233.359375 L 162.203125 245.613281 C 166.9375 248.484375 168.453125 254.648438 165.582031 259.382812 L 164.910156 260.492188 C 162.042969 265.230469 155.878906 266.742188 151.144531 263.871094 L 130.90625 251.617188 C 126.171875 248.75 124.65625 242.585938 127.527344 237.851562 L 128.199219 236.742188 C 131.066406 232.003906 137.230469 230.492188 141.964844 233.359375 Z M 141.964844 233.359375 " fill-opacity="1" fill-rule="nonzero"/><path fill="#ffffff" d="M 639.21875 371.105469 L 672.820312 370.34375 C 676.84375 370.253906 680.179688 373.441406 680.265625 377.460938 L 680.40625 383.515625 C 680.496094 387.539062 677.308594 390.875 673.285156 390.964844 L 639.6875 391.726562 C 635.664062 391.816406 632.328125 388.628906 632.238281 384.609375 L 632.101562 378.554688 C 632.011719 374.53125 635.199219 371.199219 639.21875 371.105469 Z M 639.21875 371.105469 " fill-opacity="1" fill-rule="nonzero"/><path fill="#ffffff" d="M 94.792969 372.988281 L 127.820312 373.507812 C 132.28125 373.578125 135.84375 377.25 135.769531 381.710938 L 135.691406 386.757812 C 135.621094 391.21875 131.949219 394.78125 127.488281 394.707031 L 94.464844 394.191406 C 90.003906 394.121094 86.441406 390.449219 86.515625 385.988281 L 86.59375 380.9375 C 86.660156 376.476562 90.332031 372.917969 94.792969 372.988281 Z M 94.792969 372.988281 " fill-opacity="1" fill-rule="nonzero"/><path fill="#ffffff" d="M 617.636719 501.503906 L 637.222656 512.582031 C 642.355469 515.488281 644.160156 522 641.253906 527.128906 L 640.757812 528.007812 C 637.855469 533.140625 631.34375 534.945312 626.214844 532.042969 L 606.628906 520.960938 C 601.496094 518.058594 599.695312 511.542969 602.597656 506.414062 L 603.09375 505.535156 C 605.992188 500.40625 612.507812 498.601562 617.636719 501.503906 Z M 617.636719 501.503906 " fill-opacity="1" fill-rule="nonzero"/><path fill="#ffffff" d="M 129.675781 514.398438 L 150.347656 502.316406 C 154.957031 499.621094 160.875 501.175781 163.566406 505.785156 L 165.167969 508.523438 C 167.863281 513.136719 166.308594 519.054688 161.699219 521.742188 L 141.027344 533.828125 C 136.414062 536.519531 130.496094 534.96875 127.808594 530.355469 L 126.203125 527.617188 C 123.511719 523.011719 125.066406 517.09375 129.675781 514.398438 Z M 129.675781 514.398438 " fill-opacity="1" fill-rule="nonzero"/><path fill="#ffffff" d="M 257.433594 599.886719 L 258.894531 600.816406 C 263.332031 603.632812 264.648438 609.515625 261.828125 613.957031 L 247.300781 636.855469 C 244.480469 641.292969 238.601562 642.609375 234.160156 639.789062 L 232.699219 638.863281 C 228.257812 636.046875 226.945312 630.164062 229.761719 625.722656 L 244.292969 602.824219 C 247.113281 598.386719 252.992188 597.070312 257.433594 599.886719 Z M 257.433594 599.886719 " fill-opacity="1" fill-rule="nonzero"/><path fill="#ffffff" d="M 508.765625 603.257812 L 512.304688 601.027344 C 516.179688 598.585938 521.300781 599.75 523.742188 603.625 L 538.195312 626.570312 C 540.636719 630.449219 539.472656 635.566406 535.597656 638.007812 L 532.054688 640.238281 C 528.179688 642.679688 523.058594 641.515625 520.617188 637.640625 L 506.167969 614.695312 C 503.722656 610.816406 504.882812 605.699219 508.765625 603.257812 Z M 508.765625 603.257812 " fill-opacity="1" fill-rule="nonzero"/><path fill="#ffffff" d="M 378.996094 632.691406 L 387.078125 632.660156 C 390.582031 632.648438 393.433594 635.480469 393.445312 638.984375 L 393.570312 675.625 C 393.582031 679.128906 390.75 681.980469 387.246094 681.992188 L 379.171875 682.023438 C 375.664062 682.035156 372.8125 679.203125 372.804688 675.699219 L 372.675781 639.058594 C 372.660156 635.558594 375.488281 632.707031 378.996094 632.691406 Z M 378.996094 632.691406 " fill-opacity="1" fill-rule="nonzero"/></svg>