<svg xmlns="http://www.w3.org/2000/svg" xmlns:xlink="http://www.w3.org/1999/xlink" width="1024" zoomAndPan="magnify" viewBox="0 0 768 767.999994" height="1024" preserveAspectRatio="xMidYMid meet" version="1.0"><defs><clipPath id="fad4785713"><path d="M 28.070312 14.203125 L 734 14.203125 L 734 748 L 28.070312 748 Z M 28.070312 14.203125 " clip-rule="nonzero"/></clipPath></defs><g clip-path="url(#fad4785713)"><path fill="#003225" d="M 328.207031 14.203125 C 248.636719 14.203125 172.320312 45.8125 116.054688 102.082031 C 59.785156 158.347656 28.175781 234.660156 28.175781 314.234375 C 28.175781 393.808594 59.785156 470.121094 116.054688 526.390625 C 172.320312 582.65625 248.636719 614.265625 328.207031 614.265625 C 378.164062 614 427.261719 601.265625 471.046875 577.214844 L 618.355469 726.976562 C 644.363281 753.417969 686.589844 753.769531 713.035156 727.757812 C 739.476562 701.75 739.824219 659.519531 713.816406 633.078125 L 571.597656 488.488281 C 608.1875 437.730469 627.988281 376.804688 628.242188 314.234375 C 628.242188 234.660156 596.628906 158.347656 540.363281 102.082031 C 484.09375 45.8125 407.78125 14.203125 328.207031 14.203125 Z M 331.636719 101.441406 C 384.808594 101.441406 435.796875 123.554688 473.394531 162.914062 C 510.988281 202.273438 532.113281 255.65625 532.113281 311.316406 C 531.980469 371.640625 507.058594 428.988281 463.707031 468.730469 C 462.738281 469.582031 461.78125 470.457031 460.851562 471.371094 C 460.328125 471.886719 459.832031 472.417969 459.328125 472.949219 C 423.417969 504.085938 378.265625 521.140625 331.636719 521.1875 C 278.46875 521.1875 227.476562 499.078125 189.878906 459.71875 C 152.28125 420.359375 131.160156 366.976562 131.160156 311.316406 C 131.160156 255.65625 152.28125 202.273438 189.878906 162.914062 C 227.476562 123.554688 278.46875 101.441406 331.636719 101.441406 Z M 331.636719 101.441406 " fill-opacity="1" fill-rule="evenodd"/></g></svg>