<svg xmlns="http://www.w3.org/2000/svg" xmlns:xlink="http://www.w3.org/1999/xlink" width="1024" zoomAndPan="magnify" viewBox="0 0 768 767.999994" height="1024" preserveAspectRatio="xMidYMid meet" version="1.0"><defs><clipPath id="d1a077494d"><path d="M 77.644531 15.648438 L 690 15.648438 L 690 752.148438 L 77.644531 752.148438 Z M 77.644531 15.648438 " clip-rule="nonzero"/></clipPath></defs><g clip-path="url(#d1a077494d)"><path fill="#ffffff" d="M 450.527344 615.269531 C 447.609375 615.269531 445.449219 613.105469 445.449219 610.191406 L 445.449219 595.710938 C 445.449219 592.792969 447.609375 590.632812 450.527344 590.632812 L 543.347656 590.632812 C 546.261719 590.632812 548.425781 592.792969 548.425781 595.710938 L 548.425781 610.191406 C 548.425781 613.105469 546.261719 615.269531 543.347656 615.269531 L 512.925781 615.269531 L 512.925781 687.074219 C 512.925781 689.988281 510.714844 692.152344 507.796875 692.152344 L 486.074219 692.152344 C 483.160156 692.152344 480.996094 689.988281 480.996094 687.074219 L 480.996094 615.269531 Z M 331.609375 595.710938 C 330.007812 593.546875 331.609375 590.632812 335.230469 590.632812 L 359.867188 590.632812 C 364.195312 590.632812 367.109375 593.546875 368.566406 595.710938 L 384.507812 619.644531 L 385.964844 619.644531 L 401.953125 595.710938 C 403.363281 593.546875 406.277344 590.632812 410.652344 590.632812 L 435.289062 590.632812 C 438.910156 590.632812 440.511719 593.546875 438.910156 595.710938 L 406.984375 639.957031 L 441.828125 687.074219 C 443.425781 689.28125 441.828125 692.152344 438.207031 692.152344 L 412.816406 692.152344 C 408.300781 692.152344 405.574219 689.28125 404.117188 687.074219 L 385.964844 661.679688 L 384.507812 661.679688 L 366.402344 687.074219 C 364.945312 689.28125 362.21875 692.152344 357.703125 692.152344 L 332.3125 692.152344 C 328.691406 692.152344 327.09375 689.28125 328.691406 687.074219 L 363.488281 639.957031 Z M 227.125 615.269531 C 224.257812 615.269531 222.046875 613.105469 222.046875 610.191406 L 222.046875 595.710938 C 222.046875 592.792969 224.257812 590.632812 227.125 590.632812 L 319.992188 590.632812 C 322.863281 590.632812 325.070312 592.792969 325.070312 595.710938 L 325.070312 610.191406 C 325.070312 613.105469 322.863281 615.269531 319.992188 615.269531 L 289.523438 615.269531 L 289.523438 687.074219 C 289.523438 689.988281 287.359375 692.152344 284.445312 692.152344 L 262.675781 692.152344 C 259.804688 692.152344 257.597656 689.988281 257.597656 687.074219 L 257.597656 615.269531 Z M 222.566406 179.753906 C 233.144531 179.753906 241.75 171.148438 241.75 160.617188 L 241.75 53.925781 L 651.683594 53.925781 L 651.683594 549.535156 L 115.917969 549.535156 L 115.917969 179.753906 Z M 203.472656 80.960938 L 203.472656 141.480469 L 142.957031 141.480469 Z M 670.824219 15.648438 L 222.566406 15.648438 C 222.46875 15.648438 222.375 15.648438 222.28125 15.648438 C 221.859375 15.648438 221.4375 15.695312 221.011719 15.742188 C 220.824219 15.742188 220.683594 15.742188 220.496094 15.789062 C 219.976562 15.835938 219.414062 15.929688 218.851562 16.023438 C 218.804688 16.023438 218.804688 16.023438 218.753906 16.023438 C 218.238281 16.167969 217.722656 16.261719 217.203125 16.449219 C 217.0625 16.496094 216.921875 16.542969 216.734375 16.589844 C 216.359375 16.730469 215.933594 16.871094 215.558594 17.011719 C 215.417969 17.058594 215.277344 17.105469 215.089844 17.199219 C 214.617188 17.390625 214.101562 17.625 213.582031 17.90625 C 213.535156 17.90625 213.535156 17.953125 213.488281 17.953125 C 213.019531 18.1875 212.597656 18.46875 212.125 18.753906 C 211.984375 18.847656 211.890625 18.941406 211.75 19.035156 C 211.375 19.269531 211.042969 19.550781 210.714844 19.785156 C 210.574219 19.882812 210.480469 19.976562 210.339844 20.117188 C 209.867188 20.492188 209.492188 20.867188 209.070312 21.246094 L 83.238281 147.074219 C 82.863281 147.496094 82.488281 147.921875 82.109375 148.34375 C 81.96875 148.484375 81.875 148.578125 81.78125 148.71875 C 81.546875 149.050781 81.265625 149.378906 81.027344 149.753906 C 80.933594 149.894531 80.839844 149.988281 80.746094 150.132812 C 80.464844 150.601562 80.183594 151.070312 79.902344 151.542969 C 79.902344 151.542969 79.902344 151.589844 79.902344 151.589844 C 79.617188 152.105469 79.382812 152.625 79.148438 153.140625 C 79.101562 153.28125 79.054688 153.421875 79.007812 153.5625 C 78.867188 153.941406 78.679688 154.363281 78.582031 154.738281 C 78.488281 154.925781 78.488281 155.070312 78.394531 155.210938 C 78.253906 155.726562 78.113281 156.242188 78.019531 156.808594 C 78.019531 156.808594 78.019531 156.855469 78.019531 156.855469 C 77.925781 157.417969 77.832031 157.984375 77.785156 158.5 C 77.738281 158.6875 77.738281 158.832031 77.738281 159.019531 C 77.691406 159.441406 77.691406 159.863281 77.644531 160.289062 C 77.644531 160.382812 77.644531 160.523438 77.644531 160.617188 L 77.644531 733.199219 C 77.644531 743.78125 86.203125 752.339844 96.78125 752.339844 L 670.824219 752.339844 C 681.402344 752.339844 689.960938 743.78125 689.960938 733.199219 L 689.960938 34.785156 C 689.960938 24.207031 681.402344 15.648438 670.824219 15.648438 " fill-opacity="1" fill-rule="nonzero"/></g><path fill="#ffffff" d="M 601.652344 211.304688 L 165.949219 211.304688 L 165.949219 239.988281 L 601.652344 239.988281 L 601.652344 211.304688 " fill-opacity="1" fill-rule="nonzero"/><path fill="#ffffff" d="M 601.652344 263.925781 L 165.949219 263.925781 L 165.949219 292.605469 L 601.652344 292.605469 L 601.652344 263.925781 " fill-opacity="1" fill-rule="nonzero"/><path fill="#ffffff" d="M 601.652344 316.542969 L 165.949219 316.542969 L 165.949219 345.269531 L 601.652344 345.269531 L 601.652344 316.542969 " fill-opacity="1" fill-rule="nonzero"/><path fill="#ffffff" d="M 601.652344 369.160156 L 165.949219 369.160156 L 165.949219 397.890625 L 601.652344 397.890625 L 601.652344 369.160156 " fill-opacity="1" fill-rule="nonzero"/><path fill="#ffffff" d="M 601.652344 421.777344 L 165.949219 421.777344 L 165.949219 450.507812 L 601.652344 450.507812 L 601.652344 421.777344 " fill-opacity="1" fill-rule="nonzero"/><path fill="#ffffff" d="M 324.179688 474.394531 L 165.949219 474.394531 L 165.949219 503.125 L 324.179688 503.125 L 324.179688 474.394531 " fill-opacity="1" fill-rule="nonzero"/></svg>