<svg xmlns="http://www.w3.org/2000/svg" xmlns:xlink="http://www.w3.org/1999/xlink" width="1024" zoomAndPan="magnify" viewBox="0 0 768 767.999994" height="1024" preserveAspectRatio="xMidYMid meet" version="1.0"><defs><clipPath id="b7ef3b653d"><path d="M 0 37.929688 L 512 37.929688 L 512 730.179688 L 0 730.179688 Z M 0 37.929688 " clip-rule="nonzero"/></clipPath><clipPath id="a96d11baf8"><path d="M 541 307 L 768 307 L 768 730.179688 L 541 730.179688 Z M 541 307 " clip-rule="nonzero"/></clipPath><clipPath id="3ddddabe14"><path d="M 343 630 L 394 630 L 394 730.179688 L 343 730.179688 Z M 343 630 " clip-rule="nonzero"/></clipPath></defs><g clip-path="url(#b7ef3b653d)"><path fill="#003225" d="M 263.105469 53.941406 C 248.007812 62.652344 223.039062 77.167969 207.59375 86.109375 L 179.722656 102.367188 L 179.605469 178.664062 L 179.605469 255.078125 L 218.625 255.078125 C 263.335938 255.078125 269.144531 255.777344 280.292969 263.09375 C 291.671875 270.40625 298.757812 280.511719 301.425781 293.167969 C 302.355469 297.464844 302.703125 327.425781 302.703125 390.71875 L 302.703125 482.113281 L 287.609375 482.460938 L 272.511719 482.808594 L 272.277344 390.136719 L 271.929688 297.464844 L 269.257812 293.632812 C 263.453125 285.621094 269.957031 286.085938 159.863281 285.96875 C 49.425781 285.851562 56.394531 285.390625 50.46875 293.632812 L 47.800781 297.464844 L 47.453125 499.183594 L 47.21875 701.015625 L -8.523438 701.015625 L -8.523438 730.050781 L 313.15625 730.050781 L 313.15625 599.984375 L 423.480469 599.984375 L 423.480469 730.050781 L 511.738281 730.050781 L 511.738281 116.304688 L 492.808594 109.453125 C 417.554688 82.394531 291.902344 37.917969 290.742188 37.917969 C 290.625 37.917969 278.199219 45.117188 263.105469 53.941406 Z M 418.835938 153.464844 C 446.589844 156.949219 470.511719 160.085938 472.019531 160.433594 C 474.460938 161.015625 474.578125 161.476562 474.578125 176.109375 C 474.578125 187.375 474.226562 191.207031 473.066406 191.207031 C 472.371094 191.207031 453.90625 188.886719 432.1875 186.097656 C 410.472656 183.3125 385.503906 180.058594 376.796875 178.898438 L 360.769531 176.921875 L 360.769531 145.800781 L 364.601562 146.496094 C 366.574219 146.847656 391.078125 149.980469 418.835938 153.464844 Z M 415.929688 218.5 C 443.453125 221.980469 467.839844 225.117188 470.28125 225.582031 L 474.578125 226.277344 L 474.578125 241.257812 C 474.578125 252.40625 474.226562 256.238281 473.183594 256.238281 C 470.976562 256.238281 366.460938 243.464844 363.441406 242.769531 C 360.886719 242.304688 360.769531 241.839844 360.769531 227.207031 C 360.769531 212.34375 360.769531 212.109375 363.441406 212.109375 C 364.832031 212.109375 388.523438 215.015625 415.929688 218.5 Z M 435.441406 286.433594 C 455.761719 288.988281 472.835938 291.078125 473.414062 291.078125 C 474.113281 291.078125 474.578125 297.351562 474.578125 306.523438 L 474.578125 321.96875 L 452.859375 319.296875 C 411.867188 314.304688 362.742188 308.5 361.8125 308.5 C 361.234375 308.5 360.769531 301.53125 360.769531 293.054688 L 360.769531 277.492188 L 379.699219 279.699219 C 390.035156 280.859375 415.117188 283.996094 435.441406 286.433594 Z M 148.25 360.757812 L 148.25 390.949219 L 89.953125 390.949219 L 90.652344 388.28125 C 91 386.886719 91.347656 373.300781 91.347656 358.085938 L 91.347656 330.5625 L 148.25 330.5625 Z M 230.703125 360.757812 L 230.703125 390.949219 L 172.640625 390.949219 L 172.640625 330.5625 L 230.703125 330.5625 Z M 419.648438 349.722656 C 448.910156 353.207031 473.183594 356.113281 473.648438 356.113281 C 474.226562 356.113281 474.578125 362.847656 474.578125 371.207031 C 474.578125 386.074219 474.578125 386.304688 471.90625 386.304688 C 470.511719 386.304688 458.316406 385.027344 444.964844 383.402344 C 419.53125 380.265625 361.8125 373.53125 361.117188 373.53125 C 361 373.53125 360.769531 366.679688 360.769531 358.433594 L 360.769531 343.335938 L 363.671875 343.335938 C 365.296875 343.335938 390.5 346.242188 419.648438 349.722656 Z M 418.253906 414.757812 C 443.222656 417.660156 465.984375 420.332031 469.117188 420.679688 L 474.578125 421.492188 L 474.578125 452.035156 L 460.988281 450.410156 C 453.441406 449.480469 428.007812 446.578125 404.316406 443.90625 L 361.351562 439.027344 L 361 423.582031 L 360.652344 408.136719 L 366.808594 408.949219 C 370.175781 409.300781 393.402344 411.96875 418.253906 414.757812 Z M 148.25 459.46875 L 148.25 489.660156 L 119.566406 489.429688 C 103.65625 489.195312 90.882812 488.730469 91.117188 488.152344 C 91.230469 487.6875 91.347656 474.214844 91.347656 458.304688 L 91.347656 429.273438 L 148.25 429.273438 Z M 230.703125 459.46875 L 230.703125 489.660156 L 172.523438 489.660156 L 172.753906 459.46875 L 172.871094 429.273438 L 230.703125 429.273438 Z M 406.058594 478.746094 C 426.148438 480.949219 449.839844 483.621094 458.667969 484.667969 L 474.578125 486.523438 L 474.578125 517.300781 L 470.28125 516.835938 C 419.996094 511.027344 374.703125 505.917969 368.664062 505.222656 L 360.769531 504.527344 L 360.769531 473.636719 L 365.183594 474.097656 C 367.503906 474.449219 385.96875 476.421875 406.058594 478.746094 Z M 230.472656 527.984375 C 230.585938 527.984375 230.703125 541.222656 230.703125 557.480469 L 230.703125 586.976562 L 224.085938 587.441406 C 220.367188 587.675781 207.363281 587.558594 195.167969 587.324219 L 172.988281 586.976562 L 173.21875 578.035156 C 173.335938 573.15625 173.453125 559.917969 173.566406 548.65625 L 173.800781 527.984375 L 192.730469 527.636719 C 207.128906 527.285156 225.128906 527.519531 230.472656 527.984375 Z M 148.25 558.175781 L 148.25 588.371094 L 91.347656 588.371094 L 91.347656 527.984375 L 148.25 527.984375 Z M 148.25 655.726562 L 148.25 685.921875 L 91.347656 685.921875 L 91.347656 625.53125 L 148.25 625.53125 Z M 230.703125 655.726562 L 230.703125 685.921875 L 172.640625 685.921875 L 172.640625 659.328125 C 172.640625 644.695312 172.988281 631.105469 173.335938 629.132812 L 174.148438 625.53125 L 230.703125 625.53125 Z M 230.703125 655.726562 " fill-opacity="1" fill-rule="nonzero"/></g><g clip-path="url(#a96d11baf8)"><path fill="#003225" d="M 559.699219 313.375 C 552.847656 316.511719 545.996094 319.53125 544.601562 320.113281 L 541.929688 321.273438 L 541.929688 730.050781 L 776.511719 730.050781 L 776.511719 701.015625 L 720.769531 701.015625 L 720.769531 348.5625 L 693.714844 341.132812 C 678.964844 337.066406 645.519531 327.890625 619.507812 320.691406 L 572.242188 307.800781 Z M 646.449219 395.363281 L 681.867188 405.582031 L 682.214844 440.769531 C 682.449219 468.757812 682.214844 475.839844 681.054688 475.492188 C 680.242188 475.144531 663.984375 470.5 645.054688 465.15625 L 610.449219 455.402344 L 610.449219 420.214844 C 610.449219 400.9375 610.5625 385.144531 610.796875 385.144531 C 610.914062 385.144531 626.9375 389.789062 646.449219 395.363281 Z M 645.054688 513.003906 C 663.402344 518.230469 679.3125 522.757812 680.472656 522.988281 C 682.332031 523.570312 682.449219 526.242188 682.449219 558.992188 L 682.449219 594.292969 L 679.894531 593.480469 C 678.382812 593.015625 662.359375 588.371094 644.125 583.144531 L 611.027344 573.621094 L 610.679688 538.550781 C 610.5625 519.390625 610.679688 503.597656 611.027344 503.597656 C 611.378906 503.597656 626.589844 507.894531 645.054688 513.003906 Z M 645.054688 513.003906 " fill-opacity="1" fill-rule="nonzero"/></g><g clip-path="url(#3ddddabe14)"><path fill="#003225" d="M 343.351562 680.113281 L 343.351562 730.050781 L 393.285156 730.050781 L 393.285156 630.175781 L 343.351562 630.175781 Z M 343.351562 680.113281 " fill-opacity="1" fill-rule="nonzero"/></g></svg>