<svg xmlns="http://www.w3.org/2000/svg" xmlns:xlink="http://www.w3.org/1999/xlink" width="1024" zoomAndPan="magnify" viewBox="0 0 768 767.999994" height="1024" preserveAspectRatio="xMidYMid meet" version="1.0"><defs><clipPath id="0ca434b2a8"><path d="M 193 577 L 575 577 L 575 752.550781 L 193 752.550781 Z M 193 577 " clip-rule="nonzero"/></clipPath><clipPath id="8d4ff546ff"><path d="M 149 15.300781 L 618 15.300781 L 618 652 L 149 652 Z M 149 15.300781 " clip-rule="nonzero"/></clipPath></defs><g clip-path="url(#0ca434b2a8)"><path fill="#ffffff" d="M 267.171875 618.644531 C 269.734375 617.332031 272.398438 616.078125 275.109375 614.890625 C 284.925781 610.589844 289.398438 599.144531 285.105469 589.328125 C 280.804688 579.511719 269.34375 575.0625 259.542969 579.339844 C 256.136719 580.832031 252.832031 582.394531 249.539062 584.066406 C 213.121094 602.730469 193.046875 627.640625 193.046875 654.210938 C 193.046875 680.917969 213.121094 705.859375 249.570312 724.441406 C 285.34375 742.65625 332.9375 752.691406 383.589844 752.691406 C 434.253906 752.691406 481.84375 742.65625 517.597656 724.441406 C 554.039062 705.851562 574.113281 680.910156 574.113281 654.210938 C 574.113281 627.648438 554.050781 602.738281 517.597656 584.050781 C 513.851562 582.140625 509.960938 580.324219 505.972656 578.601562 C 496.113281 574.375 484.710938 578.90625 480.472656 588.738281 C 476.238281 598.585938 480.777344 610.007812 490.617188 614.234375 C 493.835938 615.628906 496.949219 617.085938 499.925781 618.59375 C 526.042969 631.980469 535.3125 646.140625 535.3125 654.203125 C 535.3125 662.335938 526.050781 676.5625 499.972656 689.859375 C 469.578125 705.359375 428.242188 713.882812 383.589844 713.882812 C 338.945312 713.882812 297.609375 705.359375 267.203125 689.859375 C 241.109375 676.570312 231.867188 662.347656 231.867188 654.203125 C 231.859375 646.148438 241.117188 631.988281 267.171875 618.644531 Z M 267.171875 618.644531 " fill-opacity="1" fill-rule="nonzero"/></g><g clip-path="url(#8d4ff546ff)"><path fill="#ffffff" d="M 386.152344 15.367188 C 385.628906 15.328125 385.105469 15.300781 384.570312 15.300781 L 382.613281 15.300781 C 382.082031 15.300781 381.558594 15.328125 381.046875 15.367188 C 253.183594 17.253906 149.417969 122.4375 149.417969 250.152344 C 147.402344 377.222656 244.632812 493.507812 315.625 578.40625 C 336.445312 603.304688 354.429688 624.820312 366.597656 642.632812 C 370.199219 647.925781 376.207031 651.097656 382.621094 651.097656 L 384.578125 651.097656 C 390.996094 651.097656 397 647.925781 400.613281 642.632812 C 412.765625 624.8125 430.757812 603.304688 451.574219 578.398438 C 522.5625 493.5 619.78125 377.203125 617.777344 250.464844 C 617.765625 122.445312 513.992188 17.269531 386.152344 15.367188 Z M 421.792969 553.507812 C 407.539062 570.566406 394.566406 586.074219 383.589844 600.242188 C 372.609375 586.074219 359.648438 570.566406 345.390625 553.515625 C 278.304688 473.277344 186.433594 363.390625 188.222656 250.464844 C 188.222656 143.183594 275.496094 55.121094 382.785156 54.15625 C 383.054688 54.15625 383.316406 54.144531 383.589844 54.128906 C 383.859375 54.144531 384.121094 54.15625 384.398438 54.15625 C 491.671875 55.121094 578.957031 143.183594 578.957031 250.765625 C 580.742188 363.390625 488.878906 473.269531 421.792969 553.507812 Z M 421.792969 553.507812 " fill-opacity="1" fill-rule="nonzero"/></g><path fill="#ffffff" d="M 383.589844 164.730469 C 336.167969 165.246094 297.832031 203.425781 297.832031 250.496094 C 297.832031 297.566406 336.125 335.738281 383.589844 336.253906 C 431.058594 335.738281 469.347656 297.566406 469.347656 250.496094 C 469.347656 203.425781 431.011719 165.246094 383.589844 164.730469 Z M 383.589844 164.730469 " fill-opacity="1" fill-rule="nonzero"/></svg>