<svg xmlns="http://www.w3.org/2000/svg" xmlns:xlink="http://www.w3.org/1999/xlink" width="1024" zoomAndPan="magnify" viewBox="0 0 768 767.999994" height="1024" preserveAspectRatio="xMidYMid meet" version="1.0"><defs><clipPath id="11a4063ed7"><path d="M 56.25 21.34375 L 711.75 21.34375 L 711.75 746.59375 L 56.25 746.59375 Z M 56.25 21.34375 " clip-rule="nonzero"/></clipPath></defs><g clip-path="url(#11a4063ed7)"><path fill="#003225" d="M 637.855469 390.757812 L 625.699219 390.757812 C 646.046875 375.9375 656.769531 347.660156 656.769531 320.554688 C 656.769531 285.425781 628.191406 256.84375 593.0625 256.84375 C 557.933594 256.84375 529.308594 285.425781 529.308594 320.554688 C 529.308594 347.660156 540.042969 375.9375 560.402344 390.757812 L 548.226562 390.757812 C 543.042969 390.757812 537.929688 391.261719 532.933594 392.265625 C 514.4375 367.59375 483.851562 351.421875 449.292969 351.421875 L 424.9375 351.421875 C 434.980469 344.882812 443.847656 335.820312 451.105469 324.410156 C 464.015625 304.113281 471.421875 277.441406 471.421875 251.226562 C 471.421875 202.988281 432.179688 163.746094 383.941406 163.746094 C 335.707031 163.746094 296.460938 202.988281 296.460938 251.226562 C 296.460938 276.421875 303.804688 303.378906 316.101562 323.328125 C 323.503906 335.332031 332.425781 344.722656 342.605469 351.417969 L 318.550781 351.417969 C 284.003906 351.417969 253.429688 367.59375 234.941406 392.269531 C 229.925781 391.265625 224.800781 390.753906 219.617188 390.753906 L 207.460938 390.753906 C 227.808594 375.933594 238.53125 347.660156 238.53125 320.550781 C 238.53125 285.421875 209.953125 256.84375 174.824219 256.84375 C 139.695312 256.84375 111.113281 285.421875 111.113281 320.550781 C 111.113281 347.660156 121.839844 375.933594 142.183594 390.753906 L 129.988281 390.753906 C 89.308594 390.753906 56.210938 421.859375 56.210938 460.089844 L 56.210938 538.511719 C 56.210938 545.105469 61.558594 550.449219 68.148438 550.449219 C 74.742188 550.449219 80.085938 545.105469 80.085938 538.511719 L 80.085938 460.089844 C 80.085938 435.023438 102.472656 414.628906 129.988281 414.628906 L 219.617188 414.628906 C 220.570312 414.628906 221.511719 414.691406 222.460938 414.738281 C 218.570312 424.855469 216.4375 435.75 216.4375 447.105469 L 216.4375 538.511719 C 216.4375 545.101562 221.78125 550.445312 228.371094 550.445312 C 234.964844 550.445312 240.308594 545.101562 240.308594 538.511719 L 240.308594 447.105469 C 240.308594 434.777344 243.714844 423.167969 249.699219 413.023438 C 250.046875 412.550781 250.355469 412.050781 250.632812 411.523438 C 264.132812 389.902344 289.507812 375.292969 318.550781 375.292969 L 449.292969 375.292969 C 478.375 375.292969 503.785156 389.925781 517.28125 411.574219 C 517.550781 412.074219 517.84375 412.554688 518.171875 413.003906 C 524.167969 423.15625 527.578125 434.769531 527.578125 447.105469 L 527.578125 538.511719 C 527.578125 545.101562 532.921875 550.445312 539.515625 550.445312 C 546.109375 550.445312 551.453125 545.101562 551.453125 538.511719 L 551.453125 447.105469 C 551.453125 435.746094 549.320312 424.851562 545.425781 414.738281 C 546.355469 414.691406 547.289062 414.628906 548.226562 414.628906 L 637.855469 414.628906 C 665.371094 414.628906 687.757812 435.023438 687.757812 460.089844 L 687.757812 538.511719 C 687.757812 545.105469 693.105469 550.449219 699.695312 550.449219 C 706.289062 550.449219 711.632812 545.105469 711.632812 538.511719 L 711.632812 460.089844 C 711.632812 421.859375 678.539062 390.753906 637.855469 390.753906 Z M 593.0625 280.714844 C 615.027344 280.714844 632.898438 298.585938 632.898438 320.550781 C 632.898438 344.152344 620.539062 377.390625 593.0625 377.390625 C 565.585938 377.390625 553.183594 344.152344 553.183594 320.550781 C 553.183594 298.585938 571.074219 280.714844 593.0625 280.714844 Z M 320.335938 251.226562 C 320.335938 216.152344 348.867188 187.617188 383.941406 187.617188 C 419.011719 187.617188 447.546875 216.152344 447.546875 251.226562 C 447.546875 285.417969 430.277344 339.660156 383.941406 339.660156 C 364.214844 339.660156 348.226562 329.953125 336.425781 310.804688 C 326.351562 294.457031 320.332031 272.1875 320.332031 251.226562 Z M 174.820312 280.714844 C 196.789062 280.714844 214.65625 298.585938 214.65625 320.550781 C 214.65625 344.152344 202.296875 377.390625 174.820312 377.390625 C 147.347656 377.390625 134.988281 344.152344 134.988281 320.550781 C 134.988281 298.585938 152.859375 280.714844 174.820312 280.714844 Z M 133.445312 165.320312 L 128.832031 197.148438 C 128.195312 201.535156 130.042969 205.910156 133.621094 208.515625 C 137.203125 211.121094 141.933594 211.53125 145.910156 209.574219 L 174.820312 195.371094 L 203.6875 209.570312 C 205.355469 210.394531 207.160156 210.796875 208.953125 210.796875 C 211.429688 210.796875 213.894531 210.027344 215.972656 208.519531 C 219.554688 205.917969 221.402344 201.546875 220.773438 197.164062 L 216.191406 165.324219 L 238.628906 142.207031 C 241.710938 139.03125 242.785156 134.40625 241.414062 130.199219 C 240.042969 125.988281 236.453125 122.882812 232.089844 122.132812 L 200.367188 116.660156 L 185.382812 88.195312 C 183.320312 84.273438 179.257812 81.820312 174.828125 81.820312 L 174.820312 81.820312 C 170.394531 81.820312 166.332031 84.269531 164.265625 88.183594 L 149.238281 116.660156 L 117.507812 122.132812 C 113.144531 122.882812 109.554688 125.992188 108.183594 130.203125 C 106.816406 134.414062 107.890625 139.039062 110.980469 142.214844 L 133.445312 165.324219 Z M 159.085938 139.183594 C 162.738281 138.554688 165.890625 136.265625 167.617188 132.992188 L 174.8125 119.355469 L 181.984375 132.980469 C 183.710938 136.261719 186.863281 138.554688 190.519531 139.183594 L 205.746094 141.8125 L 194.980469 152.902344 C 192.402344 155.558594 191.203125 159.253906 191.730469 162.914062 L 193.921875 178.160156 L 180.09375 171.359375 C 176.773438 169.726562 172.878906 169.722656 169.558594 171.355469 L 155.707031 178.160156 L 157.917969 162.929688 C 158.449219 159.261719 157.246094 155.554688 154.660156 152.894531 L 143.882812 141.804688 Z M 342.566406 104.886719 L 337.953125 136.707031 C 337.320312 141.089844 339.164062 145.464844 342.746094 148.070312 C 344.824219 149.585938 347.289062 150.355469 349.769531 150.355469 C 351.5625 150.355469 353.363281 149.953125 355.03125 149.132812 L 383.941406 134.925781 L 412.8125 149.128906 C 416.785156 151.085938 421.511719 150.679688 425.09375 148.074219 C 428.679688 145.472656 430.523438 141.101562 429.894531 136.71875 L 425.316406 104.886719 L 447.746094 81.8125 C 450.835938 78.636719 451.910156 74.011719 450.539062 69.800781 C 449.171875 65.589844 445.582031 62.480469 441.21875 61.726562 L 409.492188 56.257812 L 394.511719 27.792969 C 392.445312 23.871094 388.382812 21.417969 383.953125 21.414062 L 383.945312 21.414062 C 379.519531 21.414062 375.457031 23.867188 373.390625 27.78125 L 358.363281 56.257812 L 326.636719 61.726562 C 322.269531 62.480469 318.679688 65.589844 317.3125 69.804688 C 315.941406 74.019531 317.019531 78.644531 320.109375 81.816406 L 342.570312 104.886719 Z M 368.207031 78.785156 C 371.859375 78.152344 375.007812 75.863281 376.738281 72.589844 L 383.933594 58.953125 L 391.105469 72.582031 C 392.832031 75.863281 395.984375 78.152344 399.636719 78.785156 L 414.84375 81.40625 L 404.105469 92.453125 C 401.523438 95.105469 400.320312 98.808594 400.847656 102.472656 L 403.039062 117.71875 L 389.210938 110.914062 C 387.550781 110.097656 385.746094 109.6875 383.941406 109.6875 C 382.136719 109.6875 380.335938 110.09375 378.679688 110.910156 L 364.828125 117.71875 L 367.035156 102.484375 C 367.566406 98.816406 366.363281 95.105469 363.773438 92.445312 L 353.019531 81.402344 Z M 551.6875 160.886719 L 547.074219 192.75 C 546.4375 197.136719 548.285156 201.511719 551.863281 204.117188 C 553.945312 205.628906 556.40625 206.398438 558.890625 206.398438 C 560.683594 206.398438 562.484375 205.996094 564.152344 205.175781 L 593.0625 190.972656 L 621.929688 205.171875 C 625.90625 207.128906 630.632812 206.722656 634.214844 204.121094 C 637.796875 201.519531 639.644531 197.148438 639.011719 192.765625 L 634.433594 160.886719 L 656.863281 137.816406 C 659.949219 134.640625 661.027344 130.015625 659.65625 125.804688 C 658.285156 121.589844 654.699219 118.484375 650.332031 117.730469 L 618.613281 112.257812 L 603.628906 83.792969 C 601.5625 79.875 597.5 77.417969 593.070312 77.417969 L 593.066406 77.417969 C 588.636719 77.417969 584.574219 79.871094 582.507812 83.785156 L 567.480469 112.257812 L 535.75 117.730469 C 531.386719 118.484375 527.796875 121.59375 526.425781 125.808594 C 525.058594 130.023438 526.136719 134.648438 529.226562 137.824219 L 551.6875 160.890625 Z M 577.328125 134.785156 C 580.980469 134.15625 584.128906 131.867188 585.859375 128.59375 L 593.054688 114.957031 L 600.226562 128.582031 C 601.953125 131.863281 605.105469 134.15625 608.757812 134.785156 L 623.964844 137.410156 L 613.226562 148.453125 C 610.644531 151.109375 609.441406 154.808594 609.96875 158.472656 L 612.164062 173.765625 L 598.332031 166.960938 C 595.011719 165.328125 591.121094 165.328125 587.800781 166.957031 L 573.945312 173.765625 L 576.15625 158.488281 C 576.6875 154.816406 575.484375 151.105469 572.894531 148.449219 L 562.140625 137.40625 Z M 383.945312 532.667969 C 344.152344 532.667969 311.773438 565.042969 311.773438 604.835938 C 311.773438 644.632812 344.148438 677.003906 383.945312 677.003906 C 423.738281 677.003906 456.113281 644.632812 456.113281 604.835938 C 456.113281 565.042969 423.738281 532.667969 383.945312 532.667969 Z M 383.945312 653.132812 C 357.3125 653.132812 335.648438 631.464844 335.648438 604.835938 C 335.648438 578.207031 357.3125 556.539062 383.945312 556.539062 C 410.574219 556.539062 432.238281 578.207031 432.238281 604.835938 C 432.238281 631.464844 410.574219 653.132812 383.945312 653.132812 Z M 518.753906 577.289062 L 496.945312 567.234375 L 490.445312 551.5 L 498.734375 528.972656 C 500.34375 524.605469 499.265625 519.703125 495.972656 516.410156 L 479.929688 500.367188 L 479.929688 462.417969 C 479.929688 455.828125 474.585938 450.480469 467.992188 450.480469 C 461.398438 450.480469 456.054688 455.828125 456.054688 462.417969 L 456.054688 491.425781 L 437.289062 498.332031 L 421.503906 491.792969 L 411.449219 470.019531 C 409.5 465.792969 405.265625 463.085938 400.613281 463.085938 L 367.238281 463.085938 C 362.585938 463.085938 358.355469 465.792969 356.402344 470.019531 L 346.34375 491.796875 L 330.601562 498.328125 L 311.796875 491.410156 L 311.796875 462.417969 C 311.796875 455.824219 306.449219 450.480469 299.859375 450.480469 C 293.265625 450.480469 287.921875 455.824219 287.921875 462.417969 L 287.921875 500.40625 L 271.917969 516.410156 C 268.628906 519.699219 267.550781 524.605469 269.15625 528.972656 L 277.441406 551.488281 L 270.910156 567.230469 L 249.132812 577.289062 C 244.902344 579.242188 242.199219 583.472656 242.199219 588.125 L 242.199219 621.542969 C 242.199219 626.199219 244.902344 630.425781 249.132812 632.378906 L 270.910156 642.4375 L 277.441406 658.179688 L 269.15625 680.695312 C 267.550781 685.066406 268.628906 689.96875 271.917969 693.257812 L 295.519531 716.863281 C 298.8125 720.152344 303.714844 721.230469 308.082031 719.625 L 330.601562 711.339844 L 346.34375 717.871094 L 356.402344 739.648438 C 358.355469 743.875 362.585938 746.582031 367.238281 746.582031 L 400.613281 746.582031 C 405.269531 746.582031 409.5 743.875 411.449219 739.648438 L 421.503906 717.875 L 437.289062 711.335938 L 459.808594 719.621094 C 464.179688 721.230469 469.082031 720.148438 472.371094 716.859375 L 495.972656 693.257812 C 499.265625 689.964844 500.34375 685.0625 498.734375 680.695312 L 490.445312 658.167969 L 496.945312 642.433594 L 518.753906 632.378906 C 522.984375 630.429688 525.695312 626.199219 525.695312 621.539062 L 525.695312 588.125 C 525.695312 583.464844 522.984375 579.234375 518.753906 577.285156 Z M 501.820312 613.902344 L 482.703125 622.714844 C 479.972656 623.972656 477.816406 626.21875 476.667969 628.996094 L 466.601562 653.359375 C 465.457031 656.128906 465.394531 659.230469 466.429688 662.039062 L 473.695312 681.777344 L 460.886719 694.585938 L 441.148438 687.320312 C 438.332031 686.285156 435.230469 686.347656 432.457031 687.496094 L 408.054688 697.605469 C 405.28125 698.753906 403.042969 700.90625 401.785156 703.628906 L 392.972656 722.710938 L 374.875 722.710938 L 366.0625 703.628906 C 364.804688 700.90625 362.570312 698.757812 359.800781 697.609375 L 335.4375 687.5 C 332.664062 686.347656 329.558594 686.285156 326.742188 687.320312 L 307.003906 694.585938 L 294.195312 681.777344 L 301.457031 662.039062 C 302.496094 659.222656 302.433594 656.117188 301.28125 653.34375 L 291.171875 628.980469 C 290.023438 626.210938 287.871094 623.976562 285.152344 622.71875 L 266.070312 613.90625 L 266.070312 595.761719 L 285.152344 586.953125 C 287.871094 585.695312 290.023438 583.457031 291.171875 580.6875 L 301.28125 556.324219 C 302.429688 553.550781 302.492188 550.445312 301.457031 547.628906 L 294.195312 527.890625 L 307.003906 515.085938 L 326.742188 522.347656 C 329.558594 523.382812 332.664062 523.320312 335.4375 522.167969 L 359.800781 512.0625 C 362.570312 510.910156 364.804688 508.761719 366.0625 506.039062 L 374.875 486.957031 L 392.972656 486.957031 L 401.785156 506.039062 C 403.042969 508.765625 405.28125 510.917969 408.054688 512.0625 L 432.457031 522.171875 C 435.234375 523.320312 438.335938 523.382812 441.148438 522.347656 L 460.886719 515.085938 L 473.695312 527.890625 L 466.429688 547.628906 C 465.398438 550.441406 465.457031 553.539062 466.601562 556.308594 L 476.667969 580.671875 C 477.816406 583.453125 479.972656 585.695312 482.703125 586.953125 L 501.820312 595.765625 Z M 411.988281 581.628906 C 416.863281 586.066406 417.21875 593.617188 412.78125 598.492188 L 386.597656 627.253906 C 384.429688 629.636719 381.390625 631.039062 378.171875 631.148438 C 378.035156 631.152344 377.902344 631.152344 377.769531 631.152344 C 374.691406 631.152344 371.730469 629.964844 369.5 627.824219 L 355.628906 614.503906 C 350.871094 609.933594 350.71875 602.378906 355.285156 597.625 C 359.855469 592.871094 367.410156 592.714844 372.164062 597.28125 L 377.195312 602.113281 L 395.125 582.417969 C 399.5625 577.542969 407.113281 577.1875 411.988281 581.625 Z M 411.988281 581.628906 " fill-opacity="1" fill-rule="nonzero"/></g></svg>