<svg xmlns="http://www.w3.org/2000/svg" xmlns:xlink="http://www.w3.org/1999/xlink" width="1024" zoomAndPan="magnify" viewBox="0 0 768 767.999994" height="1024" preserveAspectRatio="xMidYMid meet" version="1.0"><defs><clipPath id="5ab75680d1"><path d="M 156 63.699219 L 646 63.699219 L 646 152 L 156 152 Z M 156 63.699219 " clip-rule="nonzero"/></clipPath><clipPath id="23df5237f3"><path d="M 250 633 L 746 633 L 746 704.199219 L 250 704.199219 Z M 250 633 " clip-rule="nonzero"/></clipPath><clipPath id="e0baf9b079"><path d="M 15 685 L 768 685 L 768 704.199219 L 15 704.199219 Z M 15 685 " clip-rule="nonzero"/></clipPath><clipPath id="e5b2d42a7a"><path d="M 89 627 L 166 627 L 166 704.199219 L 89 704.199219 Z M 89 627 " clip-rule="nonzero"/></clipPath><clipPath id="cc55299aaa"><path d="M 203 627 L 281 627 L 281 704.199219 L 203 704.199219 Z M 203 627 " clip-rule="nonzero"/></clipPath></defs><path fill="#003225" d="M 159.976562 318.867188 C 124.894531 318.867188 96.421875 291.335938 95.320312 256.097656 C 95.320312 254.679688 95.320312 253.265625 95.320312 251.847656 C 95.632812 240.523438 99.253906 229.195312 105.542969 219.285156 L 158.558594 136.535156 C 161.390625 132.132812 167.214844 130.871094 171.617188 133.703125 C 176.023438 136.535156 177.28125 142.355469 174.449219 146.761719 L 121.433594 229.511719 C 116.871094 236.589844 114.355469 244.457031 114.195312 252.636719 C 114.195312 253.578125 114.195312 254.523438 114.195312 255.46875 C 114.984375 277.335938 132.289062 299.988281 159.976562 299.988281 C 169.101562 299.988281 177.910156 297.3125 185.617188 292.121094 C 193.171875 286.929688 198.992188 279.851562 202.453125 271.355469 L 256.726562 137.953125 C 258.613281 133.074219 264.277344 130.871094 268.996094 132.761719 C 273.875 134.648438 276.074219 140.3125 274.1875 145.03125 L 219.914062 278.59375 C 215.039062 290.550781 206.855469 300.617188 196.160156 307.855469 C 185.460938 315.089844 172.875 318.867188 159.976562 318.867188 Z M 159.976562 318.867188 " fill-opacity="1" fill-rule="nonzero"/><path fill="#003225" d="M 280.324219 318.867188 C 259.714844 318.867188 240.679688 309.425781 228.25 293.066406 C 215.667969 276.707031 211.578125 255.9375 216.925781 235.960938 L 217.082031 235.644531 C 218.5 230.613281 223.691406 227.78125 228.722656 229.195312 C 233.757812 230.609375 236.589844 235.804688 235.171875 240.835938 L 235.171875 240.996094 C 231.398438 254.996094 234.386719 269.941406 243.195312 281.582031 C 252.164062 293.222656 265.691406 299.988281 280.324219 299.988281 C 291.492188 299.988281 302.503906 295.898438 311 288.503906 C 319.496094 281.109375 325 271.042969 326.730469 259.871094 L 331.136719 229.824219 C 331.136719 229.667969 331.136719 229.667969 331.136719 229.511719 L 344.195312 140.152344 C 344.980469 134.960938 349.699219 131.5 354.890625 132.132812 C 360.082031 132.917969 363.703125 137.636719 362.914062 142.828125 L 350.015625 231.871094 C 350.015625 232.027344 350.015625 232.027344 350.015625 232.183594 L 345.609375 262.546875 C 343.40625 278.121094 335.542969 292.4375 323.585938 302.820312 C 311.472656 313.203125 296.210938 318.867188 280.324219 318.867188 Z M 280.324219 318.867188 " fill-opacity="1" fill-rule="nonzero"/><path fill="#003225" d="M 642.625 318.867188 C 629.722656 318.867188 617.296875 315.089844 606.597656 307.855469 C 595.902344 300.617188 587.5625 290.550781 582.84375 278.59375 L 528.570312 145.1875 C 526.679688 140.3125 528.882812 134.804688 533.761719 132.917969 C 538.636719 131.03125 544.144531 133.230469 546.03125 138.109375 L 600.304688 271.511719 C 603.765625 280.007812 609.585938 287.089844 617.140625 292.28125 C 624.691406 297.3125 633.5 300.144531 642.78125 300.144531 C 670.625 300.144531 687.929688 277.492188 688.558594 255.625 C 688.558594 254.679688 688.558594 253.738281 688.558594 252.792969 C 688.246094 244.457031 685.886719 236.746094 681.324219 229.511719 L 628.308594 146.761719 C 625.476562 142.355469 626.734375 136.535156 631.140625 133.703125 C 635.542969 130.871094 641.367188 132.132812 644.195312 136.535156 L 697.210938 219.285156 C 703.503906 229.195312 707.125 240.523438 707.4375 252.007812 C 707.4375 253.265625 707.4375 254.839844 707.4375 256.253906 C 706.179688 291.335938 677.707031 318.867188 642.625 318.867188 Z M 642.625 318.867188 " fill-opacity="1" fill-rule="nonzero"/><path fill="#003225" d="M 522.277344 318.867188 C 506.546875 318.867188 491.285156 313.203125 479.328125 302.820312 C 467.375 292.4375 459.507812 278.277344 457.304688 262.546875 L 452.898438 232.183594 C 452.898438 232.027344 452.898438 232.027344 452.898438 231.871094 L 440 142.828125 C 439.214844 137.636719 442.832031 132.917969 448.023438 132.132812 C 453.214844 131.34375 457.933594 134.960938 458.722656 140.152344 L 471.777344 229.511719 C 471.777344 229.667969 471.777344 229.667969 471.777344 229.824219 L 476.183594 259.871094 C 477.757812 271.042969 483.417969 281.109375 491.914062 288.503906 C 500.410156 295.898438 511.265625 299.988281 522.589844 299.988281 C 537.222656 299.988281 550.75 293.378906 559.71875 281.582031 C 568.683594 269.941406 571.515625 255.152344 567.742188 240.996094 C 566.324219 235.960938 569.3125 230.769531 574.191406 229.351562 C 579.226562 227.9375 584.417969 230.769531 585.832031 235.804688 L 585.832031 235.960938 C 591.179688 255.9375 587.089844 276.707031 574.507812 293.066406 C 561.921875 309.585938 542.886719 318.867188 522.277344 318.867188 Z M 522.277344 318.867188 " fill-opacity="1" fill-rule="nonzero"/><path fill="#003225" d="M 405.234375 323.113281 L 397.523438 323.113281 C 360.871094 323.113281 331.136719 293.378906 331.136719 256.726562 L 331.136719 231.082031 C 331.136719 225.890625 335.382812 221.644531 340.574219 221.644531 C 345.765625 221.644531 350.015625 225.890625 350.015625 231.082031 L 350.015625 256.570312 C 350.015625 282.839844 371.410156 304.078125 397.523438 304.078125 L 405.234375 304.078125 C 431.503906 304.078125 452.742188 282.683594 452.742188 256.570312 L 452.742188 230.925781 C 452.742188 225.734375 456.992188 221.488281 462.183594 221.488281 C 467.375 221.488281 471.621094 225.734375 471.621094 230.925781 L 471.621094 256.570312 C 471.621094 293.222656 441.886719 323.113281 405.234375 323.113281 Z M 405.234375 323.113281 " fill-opacity="1" fill-rule="nonzero"/><path fill="#003225" d="M 104.757812 454.628906 C 99.566406 454.628906 95.320312 450.382812 95.320312 445.191406 L 95.320312 252.320312 C 95.320312 247.128906 99.566406 242.882812 104.757812 242.882812 C 109.949219 242.882812 114.195312 247.128906 114.195312 252.320312 L 114.195312 445.191406 C 114.195312 450.382812 109.949219 454.628906 104.757812 454.628906 Z M 104.757812 454.628906 " fill-opacity="1" fill-rule="nonzero"/><path fill="#003225" d="M 697.84375 652.691406 C 692.652344 652.691406 688.402344 648.445312 688.402344 643.253906 L 688.402344 252.320312 C 688.402344 247.128906 692.652344 242.882812 697.84375 242.882812 C 703.035156 242.882812 707.28125 247.128906 707.28125 252.320312 L 707.28125 643.253906 C 707.28125 648.445312 703.035156 652.691406 697.84375 652.691406 Z M 697.84375 652.691406 " fill-opacity="1" fill-rule="nonzero"/><g clip-path="url(#5ab75680d1)"><path fill="#003225" d="M 636.175781 151.007812 L 166.425781 151.007812 C 161.234375 151.007812 156.988281 146.761719 156.988281 141.570312 L 156.988281 73.136719 C 156.988281 67.945312 161.234375 63.699219 166.425781 63.699219 L 636.175781 63.699219 C 641.367188 63.699219 645.613281 67.945312 645.613281 73.136719 L 645.613281 141.726562 C 645.613281 146.917969 641.367188 151.007812 636.175781 151.007812 Z M 175.867188 132.132812 L 626.734375 132.132812 L 626.734375 82.578125 L 175.867188 82.578125 Z M 175.867188 132.132812 " fill-opacity="1" fill-rule="nonzero"/></g><g clip-path="url(#23df5237f3)"><path fill="#003225" d="M 735.914062 704.292969 C 730.722656 704.292969 726.472656 700.042969 726.472656 694.851562 L 726.472656 652.691406 L 259.871094 652.691406 C 254.679688 652.691406 250.433594 648.445312 250.433594 643.253906 C 250.433594 638.0625 254.679688 633.8125 259.871094 633.8125 L 735.753906 633.8125 C 740.945312 633.8125 745.195312 638.0625 745.195312 643.253906 L 745.195312 694.851562 C 745.351562 700.203125 741.105469 704.292969 735.914062 704.292969 Z M 735.914062 704.292969 " fill-opacity="1" fill-rule="nonzero"/></g><g clip-path="url(#e0baf9b079)"><path fill="#003225" d="M 777.289062 704.292969 L 25.3125 704.292969 C 20.121094 704.292969 15.875 700.042969 15.875 694.851562 C 15.875 689.660156 20.121094 685.414062 25.3125 685.414062 L 777.289062 685.414062 C 782.480469 685.414062 786.726562 689.660156 786.726562 694.851562 C 786.726562 700.042969 782.480469 704.292969 777.289062 704.292969 Z M 777.289062 704.292969 " fill-opacity="1" fill-rule="nonzero"/></g><path fill="#003225" d="M 465.644531 652.691406 C 460.453125 652.691406 456.203125 648.445312 456.203125 643.253906 L 456.203125 494.746094 L 346.554688 494.746094 L 346.554688 643.253906 C 346.554688 648.445312 342.304688 652.691406 337.113281 652.691406 C 331.921875 652.691406 327.675781 648.445312 327.675781 643.253906 L 327.675781 485.308594 C 327.675781 480.117188 331.921875 475.867188 337.113281 475.867188 L 465.644531 475.867188 C 470.835938 475.867188 475.082031 480.117188 475.082031 485.308594 L 475.082031 643.253906 C 475.082031 648.445312 470.835938 652.691406 465.644531 652.691406 Z M 465.644531 652.691406 " fill-opacity="1" fill-rule="nonzero"/><path fill="#003225" d="M 662.601562 401.300781 L 139.996094 401.300781 C 134.804688 401.300781 130.558594 397.050781 130.558594 391.859375 L 130.558594 356.9375 C 130.558594 351.746094 134.804688 347.496094 139.996094 347.496094 C 145.1875 347.496094 149.4375 351.746094 149.4375 356.9375 L 149.4375 382.421875 L 653.164062 382.421875 L 653.164062 356.9375 C 653.164062 351.746094 657.410156 347.496094 662.601562 347.496094 C 667.792969 347.496094 672.042969 351.746094 672.042969 356.9375 L 672.042969 391.859375 C 672.042969 397.050781 667.792969 401.300781 662.601562 401.300781 Z M 662.601562 401.300781 " fill-opacity="1" fill-rule="nonzero"/><path fill="#003225" d="M 662.601562 596.84375 L 522.277344 596.84375 C 517.085938 596.84375 512.835938 592.597656 512.835938 587.40625 L 512.835938 469.734375 C 512.835938 464.542969 517.085938 460.292969 522.277344 460.292969 L 662.601562 460.292969 C 667.792969 460.292969 672.042969 464.542969 672.042969 469.734375 L 672.042969 587.40625 C 672.042969 592.597656 667.792969 596.84375 662.601562 596.84375 Z M 531.714844 577.964844 L 653.164062 577.964844 L 653.164062 479.171875 L 531.714844 479.171875 Z M 531.714844 577.964844 " fill-opacity="1" fill-rule="nonzero"/><path fill="#003225" d="M 405.234375 323.113281 C 400.042969 323.113281 395.792969 318.867188 395.792969 313.675781 L 395.792969 203.554688 C 395.792969 198.363281 400.042969 194.113281 405.234375 194.113281 C 410.425781 194.113281 414.671875 198.363281 414.671875 203.554688 L 414.671875 313.675781 C 414.671875 318.867188 410.425781 323.113281 405.234375 323.113281 Z M 405.234375 323.113281 " fill-opacity="1" fill-rule="nonzero"/><path fill="#003225" d="M 278.4375 608.800781 L 98.464844 608.800781 C 94.21875 608.800781 90.441406 605.96875 89.339844 601.878906 L 47.808594 448.023438 C 47.808594 447.867188 47.808594 447.707031 47.652344 447.550781 L 38.683594 413.886719 L -9.296875 413.886719 C -14.488281 413.886719 -18.734375 409.636719 -18.734375 404.445312 C -18.734375 399.253906 -14.488281 395.007812 -9.296875 395.007812 L 45.921875 395.007812 C 50.167969 395.007812 53.945312 397.839844 55.046875 401.929688 L 64.171875 435.59375 L 312.730469 435.59375 C 315.5625 435.59375 318.238281 436.851562 320.125 439.054688 C 321.855469 441.257812 322.640625 444.246094 322.011719 447.078125 L 287.71875 601.25 C 286.617188 605.65625 282.839844 608.800781 278.4375 608.800781 Z M 105.703125 589.921875 L 270.882812 589.921875 L 300.933594 454.628906 L 69.203125 454.628906 Z M 105.703125 589.921875 " fill-opacity="1" fill-rule="nonzero"/><g clip-path="url(#e5b2d42a7a)"><path fill="#003225" d="M 127.570312 704.292969 C 106.332031 704.292969 89.183594 686.988281 89.183594 665.90625 C 89.183594 644.667969 106.488281 627.519531 127.570312 627.519531 C 148.808594 627.519531 165.953125 644.828125 165.953125 665.90625 C 166.113281 687.144531 148.808594 704.292969 127.570312 704.292969 Z M 127.570312 646.398438 C 116.871094 646.398438 108.0625 655.210938 108.0625 665.90625 C 108.0625 676.605469 116.871094 685.414062 127.570312 685.414062 C 138.265625 685.414062 147.078125 676.605469 147.078125 665.90625 C 147.078125 655.210938 138.425781 646.398438 127.570312 646.398438 Z M 127.570312 646.398438 " fill-opacity="1" fill-rule="nonzero"/></g><g clip-path="url(#cc55299aaa)"><path fill="#003225" d="M 241.9375 704.292969 C 220.699219 704.292969 203.554688 686.988281 203.554688 665.90625 C 203.554688 644.667969 220.859375 627.519531 241.9375 627.519531 C 263.019531 627.519531 280.324219 644.828125 280.324219 665.90625 C 280.324219 687.144531 263.175781 704.292969 241.9375 704.292969 Z M 241.9375 646.398438 C 231.242188 646.398438 222.429688 655.210938 222.429688 665.90625 C 222.429688 676.605469 231.242188 685.414062 241.9375 685.414062 C 252.636719 685.414062 261.445312 676.605469 261.445312 665.90625 C 261.445312 655.210938 252.636719 646.398438 241.9375 646.398438 Z M 241.9375 646.398438 " fill-opacity="1" fill-rule="nonzero"/></g><path fill="#003225" d="M 293.851562 539.109375 L 79.585938 539.109375 C 74.394531 539.109375 70.148438 534.863281 70.148438 529.671875 C 70.148438 524.480469 74.394531 520.230469 79.585938 520.230469 L 293.851562 520.230469 C 299.042969 520.230469 303.292969 524.480469 303.292969 529.671875 C 303.292969 534.863281 299.203125 539.109375 293.851562 539.109375 Z M 293.851562 539.109375 " fill-opacity="1" fill-rule="nonzero"/></svg>