<svg xmlns="http://www.w3.org/2000/svg" xmlns:xlink="http://www.w3.org/1999/xlink" width="1024" zoomAndPan="magnify" viewBox="0 0 768 767.999994" height="1024" preserveAspectRatio="xMidYMid meet" version="1.0"><defs><clipPath id="3661391cc8"><path d="M 30.78125 30.78125 L 654 30.78125 L 654 538 L 30.78125 538 Z M 30.78125 30.78125 " clip-rule="nonzero"/></clipPath><clipPath id="f79f972f1b"><path d="M 76 195 L 737.28125 195 L 737.28125 737.28125 L 76 737.28125 Z M 76 195 " clip-rule="nonzero"/></clipPath></defs><path fill="#003225" d="M 494.722656 341.296875 L 489.636719 341.296875 C 489.636719 327.820312 486.992188 314.738281 481.78125 302.414062 C 476.75 290.519531 469.550781 279.839844 460.378906 270.667969 C 451.210938 261.5 440.53125 254.300781 428.636719 249.269531 C 416.3125 244.058594 403.230469 241.414062 389.75 241.414062 C 376.277344 241.414062 363.191406 244.058594 350.867188 249.269531 C 338.972656 254.300781 328.292969 261.5 319.121094 270.667969 C 309.953125 279.839844 302.753906 290.519531 297.722656 302.414062 C 292.511719 314.738281 289.867188 327.820312 289.867188 341.296875 L 284.777344 341.296875 C 268.089844 341.296875 254.558594 354.828125 254.558594 371.519531 L 254.558594 504.898438 C 254.558594 521.589844 268.089844 535.121094 284.777344 535.121094 L 494.722656 535.121094 C 511.414062 535.121094 524.945312 521.589844 524.945312 504.898438 L 524.945312 371.519531 C 524.945312 354.828125 511.414062 341.296875 494.722656 341.296875 Z M 400.738281 439.386719 L 400.738281 460.960938 C 400.738281 467.03125 395.816406 471.949219 389.75 471.949219 C 383.683594 471.949219 378.765625 467.027344 378.765625 460.960938 L 378.765625 439.386719 C 368.710938 435.113281 361.660156 425.144531 361.660156 413.527344 C 361.660156 410.914062 362.015625 408.378906 362.6875 405.980469 C 365.980469 394.128906 376.851562 385.4375 389.75 385.4375 C 402.652344 385.4375 413.519531 394.128906 416.816406 405.980469 C 417.484375 408.378906 417.84375 410.914062 417.84375 413.527344 C 417.84375 425.140625 410.792969 435.109375 400.738281 439.386719 Z M 319.644531 341.296875 C 319.644531 302.640625 351.09375 271.191406 389.75 271.191406 C 428.410156 271.191406 459.859375 302.640625 459.859375 341.296875 Z M 319.644531 341.296875 " fill-opacity="1" fill-rule="nonzero"/><path fill="#003225" d="M 607.28125 206.710938 C 568.324219 206.832031 529.578125 201.464844 492.148438 190.75 C 456.148438 180.445312 421.695312 165.285156 389.746094 145.695312 L 384.28125 142.339844 L 378.890625 145.8125 L 378.273438 146.210938 C 343.703125 168.332031 306.085938 184.703125 266.460938 194.875 C 231.164062 203.925781 194.757812 207.914062 158.246094 206.71875 L 149.035156 206.417969 L 147.804688 215.550781 C 143.96875 243.972656 142.203125 272.238281 142.546875 299.570312 C 143.066406 340.636719 148.292969 379.972656 158.085938 416.492188 C 169.726562 459.921875 187.945312 499.699219 212.222656 534.710938 C 226.019531 554.609375 242.019531 573.289062 259.765625 590.226562 C 278.832031 608.425781 300.417969 625.089844 323.933594 639.761719 C 341.183594 650.527344 359.867188 660.472656 379.464844 669.308594 C 379.898438 669.503906 380.332031 669.699219 380.765625 669.894531 L 384.535156 671.578125 L 388.410156 670.171875 C 408.902344 662.734375 428.386719 653.984375 446.320312 644.152344 C 471.21875 630.507812 493.917969 614.363281 513.777344 596.175781 C 532.164062 579.335938 548.550781 560.347656 562.484375 539.738281 C 586.699219 503.921875 604.1875 462.3125 614.464844 416.070312 C 628.0625 354.890625 629.070312 285.449219 617.375 215.242188 L 615.953125 206.691406 Z M 594.546875 411.640625 C 594.398438 412.3125 594.25 412.976562 594.09375 413.648438 L 534.210938 413.648438 L 534.210938 510.539062 C 534.210938 528.378906 519.75 542.84375 501.90625 542.84375 L 389.03125 542.84375 L 389.03125 648.160156 C 387.800781 648.632812 386.566406 649.101562 385.328125 649.5625 C 367.480469 641.394531 350.46875 632.277344 334.734375 622.457031 C 255.515625 573.019531 202.949219 502.777344 178.453125 413.648438 L 245.171875 413.648438 L 245.171875 367.953125 C 245.300781 365.0625 246.125 354.402344 254.636719 345.113281 C 262.890625 336.097656 273.035156 334.210938 275.964844 333.769531 C 278.289062 333.636719 280.617188 333.507812 282.945312 333.375 C 283.125 324.273438 284.4375 316.640625 285.792969 310.933594 C 286.757812 306.863281 288.417969 300.9375 291.316406 294.085938 C 296.695312 281.367188 304.390625 269.953125 314.191406 260.152344 C 323.996094 250.347656 335.40625 242.652344 348.128906 237.273438 C 361.132812 231.773438 374.929688 228.949219 389.144531 228.878906 L 389.144531 169.070312 C 419.796875 186.753906 452.507812 200.628906 486.535156 210.367188 C 523.011719 220.804688 560.664062 226.414062 598.601562 227.054688 C 602.914062 255.488281 605.066406 283.710938 605.066406 311.183594 C 605.0625 346.265625 601.550781 380.125 594.546875 411.640625 Z M 594.546875 411.640625 " fill-opacity="1" fill-rule="nonzero"/><path fill="#003225" d="M 333.214844 334.421875 L 389.140625 334.421875 L 389.140625 284.125 C 358.265625 284.320312 333.214844 306.808594 333.214844 334.421875 Z M 333.214844 334.421875 " fill-opacity="1" fill-rule="nonzero"/><g clip-path="url(#3661391cc8)"><path fill="#003225" d="M 88.085938 520.230469 C 68.914062 478.753906 58.207031 432.597656 58.207031 383.980469 C 58.207031 204.347656 204.347656 58.207031 383.980469 58.207031 C 424.773438 58.207031 460.417969 67.023438 471.535156 70.152344 C 504.933594 79.5625 533.371094 93.480469 556.972656 108.472656 C 553.988281 114.9375 552.320312 122.136719 552.320312 129.722656 C 552.320312 157.753906 575.042969 180.480469 603.074219 180.480469 C 613.460938 180.480469 623.117188 177.355469 631.164062 172 C 639.007812 166.777344 645.316406 159.433594 649.265625 150.78125 C 652.195312 144.367188 653.828125 137.234375 653.828125 129.71875 C 653.828125 101.691406 631.105469 78.964844 603.074219 78.964844 C 592.890625 78.964844 583.40625 81.96875 575.457031 87.132812 C 558.324219 76.0625 540.199219 66.453125 521.472656 58.535156 C 477.917969 40.109375 431.660156 30.769531 383.980469 30.769531 C 336.304688 30.769531 290.046875 40.113281 246.492188 58.53125 C 225.558594 67.386719 205.371094 78.34375 186.488281 91.101562 C 167.785156 103.734375 150.199219 118.242188 134.222656 134.222656 C 118.242188 150.203125 103.734375 167.785156 91.101562 186.488281 C 78.34375 205.371094 67.386719 225.558594 58.53125 246.492188 C 40.109375 290.046875 30.769531 336.304688 30.769531 383.980469 C 30.769531 431.660156 40.113281 477.917969 58.53125 521.472656 C 60.117188 525.222656 61.773438 528.941406 63.488281 532.636719 C 67.5625 537.335938 74.046875 539 79.523438 536.851562 C 85.832031 534.378906 89.609375 527.324219 88.085938 520.230469 Z M 88.085938 520.230469 " fill-opacity="1" fill-rule="nonzero"/></g><g clip-path="url(#f79f972f1b)"><path fill="#003225" d="M 709.433594 246.492188 C 702.742188 230.675781 694.851562 215.28125 685.886719 200.558594 C 680.992188 194.339844 672.113281 193.273438 666.308594 197.695312 C 661.140625 201.632812 659.4375 209.132812 662.621094 215.351562 C 674.1875 234.371094 688.253906 261.917969 698.019531 297.183594 C 698.019531 297.183594 709.761719 340.046875 709.761719 383.980469 C 709.761719 563.617188 563.621094 709.757812 383.984375 709.757812 C 343.5625 709.757812 310.921875 701.9375 296.382812 697.796875 C 244.917969 683.144531 204.425781 657.355469 174.085938 631.421875 C 176.496094 625.511719 177.828125 619.042969 177.828125 612.269531 C 177.828125 584.238281 155.105469 561.511719 127.074219 561.511719 C 121.960938 561.511719 117.023438 562.273438 112.371094 563.675781 C 112.371094 563.675781 112.367188 563.679688 112.367188 563.679688 C 91.507812 569.984375 76.320312 589.351562 76.320312 612.269531 C 76.320312 640.296875 99.046875 663.023438 127.074219 663.023438 C 137.886719 663.023438 147.90625 659.640625 156.136719 653.882812 C 165.84375 662.085938 175.992188 669.769531 186.488281 676.863281 C 205.375 689.621094 225.558594 700.578125 246.492188 709.433594 C 290.046875 727.855469 336.304688 737.195312 383.984375 737.195312 C 431.660156 737.195312 477.921875 727.851562 521.476562 709.433594 C 542.410156 700.578125 562.597656 689.621094 581.480469 676.863281 C 600.179688 664.230469 617.765625 649.722656 633.746094 633.742188 C 649.726562 617.761719 664.234375 600.175781 676.867188 581.476562 C 689.625 562.59375 700.582031 542.40625 709.433594 521.472656 C 727.859375 477.921875 737.195312 431.660156 737.195312 383.980469 C 737.195312 336.304688 727.855469 290.046875 709.433594 246.492188 Z M 709.433594 246.492188 " fill-opacity="1" fill-rule="nonzero"/></g></svg>