<svg xmlns="http://www.w3.org/2000/svg" xmlns:xlink="http://www.w3.org/1999/xlink" width="1024" zoomAndPan="magnify" viewBox="0 0 768 767.999994" height="1024" preserveAspectRatio="xMidYMid meet" version="1.0"><defs><clipPath id="051e450ac3"><path d="M 228 40.210938 L 535 40.210938 L 535 472 L 228 472 Z M 228 40.210938 " clip-rule="nonzero"/></clipPath><clipPath id="d98f4c8e79"><path d="M 23.542969 213 L 286 213 L 286 670 L 23.542969 670 Z M 23.542969 213 " clip-rule="nonzero"/></clipPath><clipPath id="9c5903b0fd"><path d="M 481 216 L 744.292969 216 L 744.292969 670 L 481 670 Z M 481 216 " clip-rule="nonzero"/></clipPath><clipPath id="3582b4b189"><path d="M 230 344 L 523 344 L 523 727.960938 L 230 727.960938 Z M 230 344 " clip-rule="nonzero"/></clipPath></defs><g clip-path="url(#051e450ac3)"><path fill="#ffffff" d="M 360.613281 42.03125 C 302.328125 54.8125 270.496094 119.621094 295.933594 173.691406 C 304.628906 191.972656 316.257812 204.882812 333.003906 214.339844 L 340.035156 218.304688 L 328.53125 219.964844 C 294.65625 224.824219 271.136719 236.328125 255.671875 255.882812 C 247.746094 265.855469 238.285156 285.796875 233.046875 303.433594 C 226.140625 326.445312 226.015625 324.015625 234.707031 328.105469 C 255.925781 337.949219 275.226562 361.339844 286.09375 390.355469 L 290.183594 401.222656 L 291.078125 396.109375 C 294.527344 376.679688 309.613281 354.691406 328.148438 342.292969 C 342.207031 332.964844 355.375 328.746094 372.375 327.976562 C 401.519531 326.828125 425.933594 337.179688 443.957031 358.527344 C 467.347656 386.394531 471.054688 428.191406 452.648438 458.617188 C 448.816406 465.007812 448.558594 466.03125 450.476562 466.667969 C 451.625 467.050781 455.207031 468.457031 458.273438 469.738281 C 461.339844 471.140625 464.027344 472.039062 464.152344 471.910156 C 464.28125 471.652344 465.175781 466.667969 465.941406 460.660156 C 475.148438 394.703125 495.597656 353.796875 528.707031 334.496094 C 531.902344 332.707031 534.585938 331.046875 534.714844 331.046875 C 534.839844 330.917969 533.691406 324.78125 532.027344 317.367188 C 520.269531 266.109375 499.304688 239.140625 460.957031 226.101562 C 453.800781 223.671875 438.207031 220.476562 424.015625 218.6875 C 422.992188 218.558594 426.0625 215.875 430.792969 212.808594 C 448.6875 201.300781 462.621094 183.535156 469.265625 163.976562 C 474.378906 148.765625 475.273438 127.164062 471.3125 111.570312 C 466.710938 93.289062 459.808594 80.890625 446.386719 67.46875 C 436.925781 58.136719 432.707031 54.8125 423.886719 50.597656 C 408.933594 43.183594 395.765625 40.113281 380.554688 40.242188 C 373.78125 40.242188 364.832031 41.136719 360.613281 42.03125 Z M 360.613281 42.03125 " fill-opacity="1" fill-rule="nonzero"/></g><g clip-path="url(#d98f4c8e79)"><path fill="#ffffff" d="M 136.28125 213.957031 C 109.308594 217.28125 86.046875 237.988281 80.164062 263.808594 C 76.84375 277.996094 79.398438 296.40625 86.171875 309.058594 C 91.285156 318.644531 103.046875 330.535156 112.121094 335.390625 L 120.175781 339.609375 L 113.65625 341.273438 C 95.761719 345.875 82.464844 353.414062 71.21875 365.558594 C 52.425781 385.628906 42.074219 417.457031 33.507812 481.113281 C 25.582031 540.550781 21.75 616.480469 24.5625 657.257812 L 25.457031 669.015625 L 74.925781 669.015625 L 74.925781 662.882812 C 74.925781 654.570312 78.375 624.660156 80.804688 611.496094 C 86.046875 582.480469 92.820312 562.28125 102.535156 546.816406 C 108.542969 536.972656 122.605469 522.910156 130.273438 518.820312 C 133.46875 517.160156 134.875 515.625 134.492188 514.347656 C 134.109375 513.324219 132.574219 508.980469 131.039062 504.761719 C 127.207031 494.535156 126.949219 476 130.402344 465.773438 C 141.523438 432.792969 175.523438 414.386719 208.117188 423.464844 C 244.039062 433.433594 263.59375 472.675781 250.171875 508.085938 C 248.765625 511.535156 248.128906 514.347656 248.511719 514.347656 C 249.023438 514.347656 251.324219 511.152344 253.625 507.1875 C 259.25 497.984375 269.730469 486.863281 278.679688 480.472656 L 285.964844 475.359375 L 285.199219 466.414062 C 284.6875 461.425781 282.898438 449.667969 281.234375 440.207031 C 273.695312 399.304688 263.59375 375.527344 245.699219 357.632812 C 231.640625 343.574219 214.765625 336.542969 190.222656 334.625 L 179.613281 333.730469 L 186.898438 327.210938 C 210.164062 306.503906 215.917969 274.417969 201.214844 246.9375 C 189.328125 224.566406 162.101562 210.761719 136.28125 213.957031 Z M 136.28125 213.957031 " fill-opacity="1" fill-rule="nonzero"/></g><g clip-path="url(#9c5903b0fd)"><path fill="#ffffff" d="M 606.808594 218.558594 C 584.308594 224.566406 565.902344 242.972656 560.023438 265.214844 C 557.722656 273.90625 557.59375 290.652344 559.894531 298.960938 C 563.472656 312.636719 572.550781 325.804688 583.925781 334.113281 L 588.785156 337.691406 L 577.535156 338.585938 C 553.757812 340.503906 537.910156 347.023438 523.335938 360.699219 C 509.914062 373.355469 500.96875 389.335938 493.554688 413.621094 C 489.335938 427.683594 484.605469 452.097656 482.5625 469.863281 L 481.027344 483.542969 L 487.800781 490.957031 C 495.472656 499.265625 503.90625 511.917969 508.382812 521.378906 C 510.042969 524.957031 511.578125 528.023438 511.703125 528.28125 C 511.960938 528.535156 514.390625 527.769531 517.203125 526.492188 C 521.035156 524.703125 522.1875 523.550781 521.546875 522.144531 C 512.601562 500.796875 513.367188 480.984375 523.71875 462.449219 C 528.449219 454.140625 540.335938 442.765625 549.285156 438.292969 C 572.933594 426.148438 600.925781 429.726562 620.355469 447.109375 C 639.785156 464.625 646.304688 493.769531 636.078125 517.414062 L 633.777344 523.039062 L 640.9375 527.511719 C 655.507812 536.460938 667.523438 551.417969 675.320312 569.695312 C 684.015625 590.277344 691.171875 624.660156 693.089844 655.851562 L 693.984375 669.015625 L 743.070312 669.015625 L 743.964844 642.429688 C 746.519531 566.246094 735.273438 455.804688 720.316406 409.53125 C 708.300781 372.714844 688.871094 352.648438 658.066406 344.980469 L 648.863281 342.804688 L 656.148438 338.332031 C 682.351562 322.738281 694.496094 294.613281 687.335938 266.367188 C 684.015625 252.945312 678.644531 243.996094 668.035156 234.027344 C 651.929688 218.816406 628.027344 212.808594 606.808594 218.558594 Z M 606.808594 218.558594 " fill-opacity="1" fill-rule="nonzero"/></g><g clip-path="url(#3582b4b189)"><path fill="#ffffff" d="M 362.53125 346.382812 C 335.6875 352.136719 314.46875 372.84375 308.207031 399.433594 C 302.070312 425.636719 312.550781 454.140625 334.539062 470.246094 L 342.207031 475.871094 L 337.351562 476.640625 C 307.441406 481.496094 291.71875 488.78125 277.144531 504.761719 C 249.789062 534.671875 233.429688 602.675781 231.253906 695.476562 L 230.488281 727.816406 L 522.3125 727.816406 L 522.3125 708.257812 C 522.3125 665.566406 517.074219 612.519531 509.402344 578.003906 C 501.222656 540.425781 486.011719 510.386719 468.242188 496.195312 C 456.484375 486.863281 431.941406 477.277344 419.542969 477.277344 C 417.371094 477.277344 414.8125 476.765625 413.789062 476.128906 C 412.382812 475.234375 412.640625 474.722656 415.070312 473.441406 C 420.308594 470.757812 432.835938 457.847656 437.308594 450.433594 C 457.761719 416.5625 444.46875 369.90625 409.316406 352.648438 C 393.59375 344.851562 378.636719 342.933594 362.53125 346.382812 Z M 362.53125 346.382812 " fill-opacity="1" fill-rule="nonzero"/></g><path fill="#ffffff" d="M 174.5 441.871094 C 161.972656 447.109375 155.710938 452.863281 149.320312 465.007812 C 146.25 470.886719 145.867188 472.933594 145.867188 484.308594 C 145.867188 495.683594 146.25 497.859375 149.445312 504.378906 C 151.746094 509.105469 155.839844 514.21875 160.566406 518.4375 L 167.980469 525.210938 L 159.035156 526.746094 C 120.300781 533.265625 101.257812 568.929688 93.460938 649.84375 C 92.4375 660.070312 91.542969 677.453125 91.542969 688.445312 L 91.542969 708.640625 L 212.71875 708.640625 L 213.488281 691.640625 C 216.8125 625.429688 225.503906 569.824219 237.773438 539.019531 C 239.4375 534.542969 240.457031 530.710938 240.074219 530.453125 C 237.648438 529.046875 224.734375 525.851562 221.285156 525.851562 C 219.113281 525.851562 216.9375 525.597656 216.554688 525.085938 C 216.171875 524.703125 218.855469 521.632812 222.433594 518.183594 C 226.140625 514.730469 230.871094 508.46875 232.917969 504.503906 C 236.242188 497.859375 236.625 495.8125 236.625 484.949219 C 236.625 474.464844 236.113281 471.78125 233.171875 465.519531 C 228.699219 455.929688 221.15625 447.878906 212.082031 443.277344 C 205.816406 440.082031 203.007812 439.570312 193.164062 439.1875 C 183.449219 438.929688 180.507812 439.3125 174.5 441.871094 Z M 174.5 441.871094 " fill-opacity="1" fill-rule="nonzero"/><path fill="#ffffff" d="M 567.054688 449.796875 C 557.722656 452.480469 550.820312 456.699219 544.171875 463.855469 C 535.609375 473.058594 533.308594 479.578125 533.179688 493.894531 C 533.179688 504.632812 533.5625 506.804688 536.757812 513.324219 C 538.933594 517.671875 543.148438 523.167969 547.367188 527.003906 C 553.886719 532.882812 554.144531 533.519531 551.457031 534.03125 C 538.933594 536.460938 533.179688 538.25 526.660156 541.703125 C 522.441406 544.003906 519.246094 546.558594 519.503906 547.453125 C 519.628906 548.347656 521.164062 553.84375 522.824219 559.597656 C 524.488281 565.222656 527.300781 578.261719 529.21875 588.488281 C 534.585938 618.398438 535.863281 631.945312 539.699219 696.753906 L 540.464844 708.640625 L 678.132812 708.640625 L 677.621094 688.445312 C 675.832031 633.351562 668.035156 590.789062 654.871094 566.246094 C 645.410156 548.347656 629.816406 538.125 606.296875 534.160156 L 601.4375 533.394531 L 608.46875 527.003906 C 618.054688 518.308594 622.273438 509.363281 623.039062 496.578125 C 623.679688 485.074219 622.273438 479.066406 616.648438 469.609375 C 606.808594 453.246094 585.460938 444.683594 567.054688 449.796875 Z M 567.054688 449.796875 " fill-opacity="1" fill-rule="nonzero"/><path fill="#ffffff" d="M 302.453125 464.367188 C 302.453125 465.773438 302.964844 467.050781 303.605469 467.050781 C 305.90625 467.050781 306.289062 464.75 304.371094 463.21875 C 302.710938 461.9375 302.453125 462.066406 302.453125 464.367188 Z M 302.453125 464.367188 " fill-opacity="1" fill-rule="nonzero"/></svg>