<svg xmlns="http://www.w3.org/2000/svg" xmlns:xlink="http://www.w3.org/1999/xlink" width="1024" zoomAndPan="magnify" viewBox="0 0 768 767.999994" height="1024" preserveAspectRatio="xMidYMid meet" version="1.0"><defs><clipPath id="9ee6b1f574"><path d="M 81 19.371094 L 687 19.371094 L 687 748 L 81 748 Z M 81 19.371094 " clip-rule="nonzero"/></clipPath></defs><g clip-path="url(#9ee6b1f574)"><path fill="#ffffff" d="M 87.457031 721.773438 L 448.902344 721.773438 L 546.390625 747.484375 C 546.902344 747.609375 547.410156 747.738281 547.917969 747.738281 C 549.066406 747.738281 550.210938 747.355469 551.226562 746.847656 C 552.628906 745.957031 553.644531 744.554688 554.15625 742.902344 L 686.644531 239.804688 C 686.769531 239.421875 686.644531 239.167969 686.769531 238.785156 L 686.769531 238.277344 C 686.769531 237.128906 686.644531 235.984375 686.007812 234.964844 C 686.007812 234.839844 685.878906 234.839844 685.878906 234.839844 L 658.644531 188.132812 C 643.371094 161.785156 629.753906 138.367188 610.535156 105.53125 C 610.410156 105.53125 610.28125 105.40625 610.28125 105.277344 C 609.773438 104.515625 609.007812 104.003906 608.246094 103.496094 C 607.992188 103.242188 607.609375 103.113281 607.226562 102.988281 C 607.101562 102.859375 606.84375 102.734375 606.589844 102.734375 L 290.070312 19.242188 C 288.414062 18.863281 286.632812 19.117188 285.234375 19.878906 C 283.832031 20.769531 282.6875 22.171875 282.304688 23.824219 L 266.78125 82.878906 L 87.457031 82.878906 C 84.019531 82.878906 81.09375 85.679688 81.09375 89.242188 L 81.09375 715.410156 C 81.09375 718.976562 84.019531 721.773438 87.457031 721.773438 Z M 292.996094 33.117188 L 597.300781 113.421875 L 590.683594 138.496094 L 571.972656 209.511719 C 571.71875 210.402344 571.71875 211.292969 571.847656 212.183594 C 571.847656 212.820312 572.226562 213.457031 572.480469 214.09375 C 572.480469 214.222656 572.480469 214.347656 572.609375 214.347656 C 573.375 215.875 574.773438 216.894531 576.425781 217.402344 L 672.769531 242.730469 L 543.464844 733.609375 L 498.792969 721.773438 L 520.683594 721.773438 C 524.246094 721.773438 527.046875 718.976562 527.046875 715.410156 L 527.046875 195.132812 C 527.046875 194.75 526.917969 194.496094 526.917969 194.238281 C 526.792969 193.984375 526.792969 193.730469 526.664062 193.476562 C 526.410156 192.332031 525.902344 191.3125 525.136719 190.550781 L 486.703125 152.113281 C 465.320312 130.605469 446.101562 111.515625 419.375 84.789062 C 418.484375 83.898438 417.46875 83.515625 416.449219 83.132812 C 416.195312 83.132812 415.941406 83.007812 415.6875 83.007812 C 415.429688 83.007812 415.175781 82.878906 414.792969 82.878906 L 279.886719 82.878906 Z M 93.820312 95.605469 L 408.429688 95.605469 L 408.429688 195.132812 C 408.429688 198.566406 411.359375 201.496094 414.792969 201.496094 L 514.320312 201.496094 L 514.320312 709.046875 L 93.820312 709.046875 Z M 93.820312 95.605469 " fill-opacity="1" fill-rule="nonzero"/></g><path fill="#ffffff" d="M 215.746094 312.21875 C 268.050781 312.21875 310.6875 269.585938 310.6875 217.277344 C 310.6875 164.96875 268.050781 122.207031 215.746094 122.207031 C 163.4375 122.207031 120.671875 164.839844 120.671875 217.277344 C 120.671875 269.710938 163.308594 312.21875 215.746094 312.21875 Z M 163.054688 206.710938 C 165.601562 204.167969 169.546875 204.167969 172.089844 206.710938 L 203.652344 238.277344 L 259.398438 182.660156 C 261.816406 180.242188 265.886719 180.242188 268.308594 182.660156 C 270.851562 185.203125 270.851562 189.148438 268.308594 191.695312 L 208.234375 251.765625 C 206.960938 253.039062 205.433594 253.675781 203.652344 253.675781 C 202 253.675781 200.34375 253.039062 199.199219 251.765625 L 163.054688 215.621094 C 160.636719 213.203125 160.636719 209.128906 163.054688 206.710938 Z M 163.054688 206.710938 " fill-opacity="1" fill-rule="nonzero"/><path fill="#ffffff" d="M 127.0625 355.238281 C 123.550781 355.238281 120.699219 358.085938 120.699219 361.601562 C 120.699219 365.113281 123.550781 367.964844 127.0625 367.964844 L 280.449219 367.964844 C 283.960938 367.964844 286.8125 365.113281 286.8125 361.601562 C 286.8125 358.085938 283.960938 355.238281 280.449219 355.238281 Z M 127.0625 355.238281 " fill-opacity="1" fill-rule="nonzero"/><path fill="#ffffff" d="M 481.113281 432.414062 L 127.0625 432.414062 C 123.550781 432.414062 120.699219 435.265625 120.699219 438.777344 C 120.699219 442.289062 123.550781 445.140625 127.0625 445.140625 L 481.113281 445.140625 C 484.628906 445.140625 487.480469 442.289062 487.480469 438.777344 C 487.480469 435.265625 484.628906 432.414062 481.113281 432.414062 Z M 481.113281 432.414062 " fill-opacity="1" fill-rule="nonzero"/><path fill="#ffffff" d="M 481.113281 509.589844 L 127.0625 509.589844 C 123.550781 509.589844 120.699219 512.441406 120.699219 515.953125 C 120.699219 519.464844 123.550781 522.316406 127.0625 522.316406 L 481.113281 522.316406 C 484.628906 522.316406 487.480469 519.464844 487.480469 515.953125 C 487.480469 512.441406 484.628906 509.589844 481.113281 509.589844 Z M 481.113281 509.589844 " fill-opacity="1" fill-rule="nonzero"/><path fill="#ffffff" d="M 280.4375 586.78125 L 127.050781 586.78125 C 123.535156 586.78125 120.6875 589.628906 120.6875 593.144531 C 120.6875 596.65625 123.535156 599.507812 127.050781 599.507812 L 280.4375 599.507812 C 283.949219 599.507812 286.800781 596.65625 286.800781 593.144531 C 286.800781 589.628906 283.949219 586.78125 280.4375 586.78125 Z M 280.4375 586.78125 " fill-opacity="1" fill-rule="nonzero"/><path fill="#ffffff" d="M 481.101562 586.742188 L 319.851562 586.742188 C 316.289062 586.742188 313.488281 589.667969 313.488281 593.105469 L 313.488281 676.085938 C 313.488281 679.648438 316.289062 682.449219 319.851562 682.449219 L 481.101562 682.449219 C 484.664062 682.449219 487.464844 679.648438 487.464844 676.085938 L 487.464844 593.105469 C 487.464844 589.667969 484.664062 586.742188 481.101562 586.742188 Z M 481.101562 586.742188 " fill-opacity="1" fill-rule="nonzero"/></svg>