<svg xmlns="http://www.w3.org/2000/svg" xmlns:xlink="http://www.w3.org/1999/xlink" width="1024" zoomAndPan="magnify" viewBox="0 0 768 767.999994" height="1024" preserveAspectRatio="xMidYMid meet" version="1.0"><defs><clipPath id="4c4d6bac7b"><path d="M 18.285156 16.277344 L 749.535156 16.277344 L 749.535156 752 L 18.285156 752 Z M 18.285156 16.277344 " clip-rule="nonzero"/></clipPath></defs><g clip-path="url(#4c4d6bac7b)"><path fill="#ffffff" d="M 642.917969 123.484375 C 574.1875 54.632812 482.789062 16.648438 385.398438 16.648438 C 184.730469 16.648438 21.410156 180.042969 21.335938 380.917969 C 21.335938 445.113281 38.082031 507.820312 69.941406 563.035156 L 18.285156 751.804688 L 211.285156 701.132812 C 264.46875 730.175781 324.335938 745.445312 385.253906 745.480469 L 385.398438 745.480469 C 586.03125 745.480469 749.390625 582.046875 749.425781 381.210938 C 749.425781 283.863281 711.648438 192.367188 642.878906 123.484375 Z M 385.398438 683.976562 L 385.289062 683.976562 C 331.019531 683.976562 277.726562 669.363281 231.265625 641.773438 L 220.222656 635.191406 L 105.6875 665.253906 L 136.238281 553.511719 L 129.042969 542.0625 C 98.746094 493.859375 82.765625 438.136719 82.800781 380.917969 C 82.875 213.996094 218.625 78.152344 385.507812 78.152344 C 466.335938 78.152344 542.292969 109.707031 599.433594 166.957031 C 656.574219 224.175781 687.996094 300.257812 687.960938 381.171875 C 687.890625 548.132812 552.136719 683.976562 385.363281 683.976562 Z M 551.375 457.21875 C 542.292969 452.675781 497.574219 430.648438 489.21875 427.628906 C 480.863281 424.574219 474.835938 423.085938 468.769531 432.171875 C 462.703125 441.296875 445.265625 461.800781 439.960938 467.871094 C 434.65625 473.941406 429.355469 474.703125 420.234375 470.125 C 411.15625 465.578125 381.839844 455.945312 347.074219 424.941406 C 320.046875 400.804688 301.777344 370.996094 296.472656 361.871094 C 291.167969 352.746094 295.925781 347.839844 300.46875 343.296875 C 304.535156 339.222656 309.550781 332.644531 314.125 327.339844 C 318.667969 322.03125 320.195312 318.214844 323.207031 312.144531 C 326.261719 306.074219 324.734375 300.765625 322.445312 296.183594 C 320.15625 291.640625 301.992188 246.820312 294.402344 228.609375 C 287.027344 210.871094 279.507812 213.269531 273.949219 212.976562 C 268.644531 212.722656 262.578125 212.652344 256.511719 212.652344 C 250.445312 212.652344 240.601562 214.90625 232.246094 224.027344 C 223.890625 233.152344 200.425781 255.183594 200.425781 299.964844 C 200.425781 344.75 233.011719 388.042969 237.585938 394.152344 C 242.128906 400.222656 301.738281 492.152344 392.992188 531.59375 C 414.679688 540.972656 431.644531 546.570312 444.867188 550.785156 C 466.660156 557.730469 486.496094 556.746094 502.152344 554.382812 C 519.625 551.765625 555.953125 532.355469 563.542969 511.089844 C 571.136719 489.824219 571.136719 471.613281 568.847656 467.796875 C 566.558594 463.980469 560.492188 461.726562 551.410156 457.144531 Z M 551.375 457.21875 " fill-opacity="1" fill-rule="evenodd"/></g></svg>