<svg xmlns="http://www.w3.org/2000/svg" xmlns:xlink="http://www.w3.org/1999/xlink" width="1024" zoomAndPan="magnify" viewBox="0 0 768 767.999994" height="1024" preserveAspectRatio="xMidYMid meet" version="1.0"><defs><clipPath id="53890abfc5"><path d="M 22 134 L 746 134 L 746 634.667969 L 22 634.667969 Z M 22 134 " clip-rule="nonzero"/></clipPath></defs><g clip-path="url(#53890abfc5)"><path fill="#ffffff" d="M 496.679688 400.589844 L 402.746094 488.15625 C 392.074219 498.121094 375.503906 498.121094 364.824219 488.15625 L 277.367188 406.625 L 71.726562 627.699219 C 81.886719 632.160156 93.117188 634.648438 104.9375 634.648438 C 104.9375 634.648438 662.640625 634.648438 662.640625 634.648438 C 674.675781 634.648438 686.113281 632.070312 696.421875 627.4375 Z M 32.046875 177.898438 L 236.695312 368.707031 L 31.300781 589.503906 C 25.5625 578.261719 22.339844 565.535156 22.339844 552.054688 C 22.339844 552.054688 22.339844 216.773438 22.339844 216.773438 C 22.339844 202.71875 25.847656 189.484375 32.046875 177.898438 Z M 735.535156 177.898438 C 741.730469 189.484375 745.238281 202.71875 745.238281 216.773438 L 745.238281 552.054688 C 745.238281 565.289062 742.128906 577.804688 736.574219 588.894531 L 537.363281 362.644531 Z M 694.191406 140.421875 L 383.785156 429.8125 L 73.386719 140.421875 C 83.101562 136.394531 93.761719 134.175781 104.9375 134.175781 C 104.9375 134.175781 662.640625 134.175781 662.640625 134.175781 C 673.820312 134.175781 684.476562 136.394531 694.191406 140.421875 Z M 694.191406 140.421875 " fill-opacity="1" fill-rule="evenodd"/></g></svg>